<svg width="23" height="23" viewBox="0 0 23 23" fill="none" xmlns="http://www.w3.org/2000/svg">
<path d="M3.76625 16.1791L4.79406 15.1584C3.66865 14.148 2.78442 12.8977 2.20656 11.5C3.66562 7.85594 7.69062 5.03125 11.5 5.03125C12.4803 5.04419 13.4517 5.21905 14.375 5.54875L15.4891 4.4275C14.226 3.8937 12.8712 3.61053 11.5 3.59375C9.15725 3.68185 6.89165 4.45449 4.98324 5.81619C3.07482 7.17788 1.60724 9.06893 0.761874 11.2556C0.704782 11.4135 0.704782 11.5865 0.761874 11.7444C1.4003 13.4385 2.42968 14.9579 3.76625 16.1791Z" fill="black"/>
<path d="M8.625 11.3059C8.67498 10.6172 8.97121 9.9694 9.45953 9.48109C9.94784 8.99278 10.5956 8.69654 11.2844 8.64656L12.5853 7.33844C11.8563 7.14649 11.0898 7.14898 10.362 7.34567C9.63433 7.54235 8.97087 7.92636 8.43783 8.4594C7.90479 8.99244 7.52079 9.65589 7.32411 10.3836C7.12742 11.1113 7.12493 11.8779 7.31688 12.6069L8.625 11.3059ZM22.2381 11.2556C21.414 9.10887 19.9799 7.25005 18.1125 5.90813L21.5625 2.45094L20.5491 1.4375L1.4375 20.5491L2.45094 21.5625L6.11656 17.8969C7.75091 18.8557 9.60541 19.3756 11.5 19.4062C13.8428 19.3182 16.1083 18.5455 18.0168 17.1838C19.9252 15.8221 21.3928 13.9311 22.2381 11.7444C22.2952 11.5865 22.2952 11.4135 22.2381 11.2556ZM14.375 11.5C14.372 12.0032 14.2369 12.4968 13.9834 12.9314C13.7298 13.3661 13.3666 13.7266 12.93 13.9769C12.4935 14.2271 11.9989 14.3585 11.4957 14.3577C10.9925 14.3569 10.4983 14.2241 10.0625 13.9725L13.9725 10.0625C14.2309 10.4979 14.3697 10.9938 14.375 11.5ZM11.5 17.9688C9.99211 17.9424 8.5128 17.5529 7.1875 16.8331L9.01312 15.0075C9.84352 15.5837 10.8499 15.8499 11.8566 15.7596C12.8633 15.6694 13.8063 15.2285 14.521 14.5138C15.2356 13.7991 15.6766 12.8561 15.7668 11.8494C15.8571 10.8427 15.5909 9.83634 15.0147 9.00594L17.0775 6.94312C18.7267 8.07514 20.0164 9.65671 20.7934 11.5C19.3344 15.1441 15.3094 17.9688 11.5 17.9688Z" fill="black"/>
</svg>
