<svg width="24" height="24" viewBox="0 0 24 24" fill="none" xmlns="http://www.w3.org/2000/svg">
<path fill-rule="evenodd" clip-rule="evenodd" d="M5.733 2.04281C6.95 0.832808 8.954 1.04781 9.973 2.40981L11.235 4.09381C12.065 5.20181 11.991 6.74981 11.006 7.72881L10.768 7.96681C10.7411 8.06673 10.7384 8.17162 10.76 8.27281C10.823 8.68081 11.164 9.54481 12.592 10.9648C14.02 12.3848 14.89 12.7248 15.304 12.7888C15.4082 12.811 15.5162 12.8079 15.619 12.7798L16.027 12.3738C16.903 11.5038 18.247 11.3408 19.331 11.9298L21.241 12.9698C22.878 13.8578 23.291 16.0818 21.951 17.4148L20.53 18.8268C20.082 19.2718 19.48 19.6428 18.746 19.7118C16.936 19.8808 12.719 19.6648 8.286 15.2578C4.149 11.1438 3.355 7.55581 3.254 5.78781C3.204 4.89381 3.626 4.13781 4.164 3.60381L5.733 2.04281ZM8.773 3.30881C8.266 2.63181 7.322 2.57781 6.79 3.10681L5.22 4.66681C4.89 4.99481 4.732 5.35681 4.752 5.70281C4.832 7.10781 5.472 10.3448 9.344 14.1948C13.406 18.2328 17.157 18.3538 18.607 18.2178C18.903 18.1908 19.197 18.0368 19.472 17.7638L20.892 16.3508C21.47 15.7768 21.343 14.7308 20.525 14.2868L18.615 13.2478C18.087 12.9618 17.469 13.0558 17.085 13.4378L16.63 13.8908L16.1 13.3588C16.63 13.8908 16.629 13.8918 16.628 13.8918L16.627 13.8938L16.624 13.8968L16.617 13.9028L16.602 13.9168C16.5595 13.9556 16.514 13.9911 16.466 14.0228C16.386 14.0758 16.28 14.1348 16.147 14.1838C15.877 14.2848 15.519 14.3388 15.077 14.2708C14.21 14.1378 13.061 13.5468 11.534 12.0288C10.008 10.5108 9.412 9.36881 9.278 8.50281C9.209 8.06081 9.264 7.70281 9.366 7.43281C9.42256 7.28107 9.5029 7.1393 9.604 7.01281L9.636 6.97781L9.65 6.96281L9.656 6.95681L9.659 6.95381L9.661 6.95181L9.949 6.66581C10.377 6.23881 10.437 5.53181 10.034 4.99281L8.773 3.30881Z" fill="black"/>
</svg>
