<svg
  xmlns="http://www.w3.org/2000/svg"
  width="65"
  height="65"
  viewBox="0 0 65 65"
  fill="none"
>
  <path
    d="M58.7031 39.717L54.5454 36.1623C54.7422 34.9563 54.8438 33.7248 54.8438 32.4934C54.8438 31.262 54.7422 30.0305 54.5454 28.8245L58.7031 25.2698C59.0167 25.0013 59.2412 24.6437 59.3466 24.2446C59.4521 23.8455 59.4335 23.4237 59.2935 23.0354L59.2363 22.8704C58.0917 19.6713 56.3778 16.7057 54.1773 14.1169L54.063 13.9836C53.7961 13.6698 53.4403 13.4441 53.0425 13.3365C52.6448 13.2288 52.2238 13.2442 51.835 13.3806L46.6743 15.2151C44.77 13.6536 42.6436 12.4221 40.3457 11.5588L39.3491 6.16333C39.2739 5.75735 39.077 5.38385 38.7845 5.09247C38.492 4.80108 38.1177 4.60559 37.7114 4.53198L37.5401 4.50024C34.2329 3.90356 30.7544 3.90356 27.4473 4.50024L27.2759 4.53198C26.8696 4.60559 26.4954 4.80108 26.2028 5.09247C25.9103 5.38385 25.7134 5.75735 25.6382 6.16333L24.6353 11.5842C22.3558 12.4477 20.233 13.6785 18.3511 15.2278L13.1524 13.3806C12.7637 13.2431 12.3423 13.2272 11.9444 13.3349C11.5464 13.4426 11.1906 13.6689 10.9243 13.9836L10.8101 14.1169C8.61217 16.7076 6.89849 19.6726 5.75099 22.8704L5.69386 23.0354C5.40822 23.8289 5.64308 24.7175 6.28419 25.2698L10.4927 28.8625C10.2959 30.0559 10.2007 31.2747 10.2007 32.4871C10.2007 33.7058 10.2959 34.9246 10.4927 36.1116L6.28419 39.7043C5.97059 39.9728 5.74614 40.3304 5.64069 40.7295C5.53524 41.1286 5.55379 41.5504 5.69386 41.9387L5.75099 42.1038C6.89992 45.303 8.60109 48.2546 10.8101 50.8572L10.9243 50.9905C11.1913 51.3044 11.5471 51.53 11.9448 51.6376C12.3425 51.7453 12.7635 51.7299 13.1524 51.5935L18.3511 49.7463C20.2427 51.3015 22.3565 52.533 24.6353 53.3899L25.6382 58.8108C25.7134 59.2168 25.9103 59.5903 26.2028 59.8816C26.4954 60.173 26.8696 60.3685 27.2759 60.4421L27.4473 60.4739C30.7848 61.0737 34.2025 61.0737 37.5401 60.4739L37.7114 60.4421C38.1177 60.3685 38.492 60.173 38.7845 59.8816C39.077 59.5903 39.2739 59.2168 39.3491 58.8108L40.3457 53.4153C42.6426 52.5543 44.7811 51.3188 46.6743 49.759L51.835 51.5935C52.2237 51.731 52.645 51.7469 53.043 51.6392C53.4409 51.5315 53.7967 51.3052 54.063 50.9905L54.1773 50.8572C56.3862 48.2483 58.0874 45.303 59.2363 42.1038L59.2935 41.9387C59.5791 41.158 59.3442 40.2693 58.7031 39.717ZM50.0386 29.5735C50.1973 30.532 50.2798 31.5159 50.2798 32.4998C50.2798 33.4836 50.1973 34.4675 50.0386 35.426L49.6196 37.9714L54.3613 42.0276C53.6425 43.6836 52.7352 45.2513 51.6572 46.6995L45.7666 44.6111L43.7734 46.2488C42.2564 47.4929 40.5679 48.4705 38.7398 49.156L36.3213 50.0637L35.1851 56.2209C33.3923 56.4241 31.5823 56.4241 29.7896 56.2209L28.6533 50.051L26.2539 49.1306C24.4448 48.4451 22.7627 47.4675 21.2583 46.2297L19.2652 44.5857L13.3364 46.6931C12.2573 45.2395 11.356 43.6716 10.6323 42.0212L15.4248 37.927L15.0122 35.3879C14.8599 34.4421 14.7774 33.4646 14.7774 32.4998C14.7774 31.5286 14.8535 30.5574 15.0122 29.6116L15.4248 27.0725L10.6323 22.9783C11.3496 21.3215 12.2573 19.76 13.3364 18.3064L19.2652 20.4138L21.2583 18.7698C22.7627 17.532 24.4448 16.5544 26.2539 15.8689L28.6597 14.9612L29.7959 8.79126C31.5796 8.58813 33.4014 8.58813 35.1914 8.79126L36.3276 14.9485L38.7461 15.8562C40.5679 16.5417 42.2627 17.5193 43.7798 18.7634L45.773 20.4011L51.6636 18.3127C52.7427 19.7664 53.6441 21.3342 54.3677 22.9846L49.626 27.0408L50.0386 29.5735ZM32.5 20.6931C26.3301 20.6931 21.3281 25.6951 21.3281 31.865C21.3281 38.0349 26.3301 43.0369 32.5 43.0369C38.6699 43.0369 43.6719 38.0349 43.6719 31.865C43.6719 25.6951 38.6699 20.6931 32.5 20.6931ZM37.5274 36.8923C36.868 37.5536 36.0844 38.078 35.2216 38.4353C34.3588 38.7926 33.4339 38.9758 32.5 38.9744C30.6021 38.9744 28.8184 38.2317 27.4727 36.8923C26.8114 36.2329 26.287 35.4493 25.9297 34.5865C25.5724 33.7238 25.3892 32.7988 25.3906 31.865C25.3906 29.967 26.1333 28.1833 27.4727 26.8376C28.8184 25.4919 30.6021 24.7556 32.5 24.7556C34.398 24.7556 36.1817 25.4919 37.5274 26.8376C38.1886 27.497 38.713 28.2806 39.0703 29.1434C39.4276 30.0062 39.6108 30.9311 39.6094 31.865C39.6094 33.7629 38.8667 35.5466 37.5274 36.8923Z"
    fill="black"
  />
</svg>
