<svg width="20" height="20" viewBox="0 0 20 20" fill="none" xmlns="http://www.w3.org/2000/svg">
<path d="M9.91322 19.9989H0.900808C0.661987 19.9986 0.433029 19.9028 0.264157 19.7324C0.0952844 19.5621 0.000286185 19.3311 0 19.0902L0 10C0 8.02219 0.5814 6.08879 1.67068 4.4443C2.75996 2.79981 4.30819 1.51808 6.11959 0.761209C7.931 0.00433286 9.92422 -0.1937 11.8472 0.192152C13.7702 0.578004 15.5365 1.53041 16.9229 2.92894C18.3093 4.32746 19.2535 6.10929 19.636 8.0491C20.0185 9.98891 19.8221 11.9996 19.0718 13.8268C18.3215 15.6541 17.0509 17.2159 15.4207 18.3147C13.7905 19.4135 11.8739 20 9.91322 20V19.9989ZM5.40701 13.6359C5.16796 13.6359 4.9387 13.7317 4.76966 13.9022C4.60063 14.0727 4.50566 14.304 4.50566 14.5451C4.50566 14.7862 4.60063 15.0175 4.76966 15.188C4.9387 15.3585 5.16796 15.4543 5.40701 15.4543H9.91322C10.1523 15.4543 10.3815 15.3585 10.5506 15.188C10.7196 15.0175 10.8146 14.7862 10.8146 14.5451C10.8146 14.304 10.7196 14.0727 10.5506 13.9022C10.3815 13.7317 10.1523 13.6359 9.91322 13.6359H5.40701ZM5.40701 10C5.16796 10 4.9387 10.0958 4.76966 10.2663C4.60063 10.4368 4.50566 10.6681 4.50566 10.9092C4.50566 11.1504 4.60063 11.3817 4.76966 11.5522C4.9387 11.7227 5.16796 11.8185 5.40701 11.8185H13.5175C13.7566 11.8185 13.9858 11.7227 14.1549 11.5522C14.3239 11.3817 14.4189 11.1504 14.4189 10.9092C14.4189 10.6681 14.3239 10.4368 14.1549 10.2663C13.9858 10.0958 13.7566 10 13.5175 10H5.40701ZM5.40701 6.36304C5.16796 6.36304 4.9387 6.45884 4.76966 6.62935C4.60063 6.79987 4.50566 7.03114 4.50566 7.27228C4.50566 7.51343 4.60063 7.7447 4.76966 7.91521C4.9387 8.08573 5.16796 8.18152 5.40701 8.18152H13.5175C13.7566 8.18152 13.9858 8.08573 14.1549 7.91521C14.3239 7.7447 14.4189 7.51343 14.4189 7.27228C14.4189 7.03114 14.3239 6.79987 14.1549 6.62935C13.9858 6.45884 13.7566 6.36304 13.5175 6.36304H5.40701Z" fill="#3D5CFF"/>
</svg>
