<svg width="17" height="21" viewBox="0 0 17 21" fill="none" xmlns="http://www.w3.org/2000/svg">
<path d="M15.9375 20.6697H3.1875C2.34212 20.6697 1.53137 20.3431 0.933596 19.7616C0.335825 19.1802 0 18.3915 0 17.5693L0 3.10046C0 2.27816 0.335825 1.48955 0.933596 0.908103C1.53137 0.326654 2.34212 0 3.1875 0L14.875 0C15.4386 0 15.9791 0.21777 16.3776 0.605402C16.7761 0.993034 17 1.51878 17 2.06697V15.492C17.0006 15.6615 16.9594 15.8288 16.8799 15.9798L16.3009 17.1073C16.2276 17.2511 16.1895 17.4093 16.1895 17.5698C16.1895 17.7302 16.2276 17.8885 16.3009 18.0323L16.8789 19.1557C16.9593 19.3037 17.0009 19.4688 17 19.6362C17 19.9103 16.888 20.1732 16.6888 20.367C16.4895 20.5608 16.2193 20.6697 15.9375 20.6697ZM3.1875 16.5358C2.90571 16.5358 2.63545 16.6447 2.4362 16.8385C2.23694 17.0323 2.125 17.2952 2.125 17.5693C2.125 17.8434 2.23694 18.1062 2.4362 18.3C2.63545 18.4939 2.90571 18.6027 3.1875 18.6027H14.2449C14.0028 17.9339 14.0028 17.2046 14.2449 16.5358H3.1875ZM6.37499 5.16743C6.0932 5.16743 5.82295 5.27631 5.62369 5.47013C5.42444 5.66395 5.3125 5.92682 5.3125 6.20091C5.3125 6.47501 5.42444 6.73788 5.62369 6.9317C5.82295 7.12551 6.0932 7.2344 6.37499 7.2344H10.625C10.9068 7.2344 11.177 7.12551 11.3763 6.9317C11.5755 6.73788 11.6875 6.47501 11.6875 6.20091C11.6875 5.92682 11.5755 5.66395 11.3763 5.47013C11.177 5.27631 10.9068 5.16743 10.625 5.16743H6.37499Z" fill="#E0DEEC"/>
</svg>
