<svg width="28" height="17" viewBox="0 0 28 17" fill="none" xmlns="http://www.w3.org/2000/svg">
<path fill-rule="evenodd" clip-rule="evenodd" d="M0 3.12245C0 1.95812 1.55185e-08 0.922857 0.0180514 0H27.7533C27.7714 0.922857 27.7714 1.95812 27.7714 3.12245V5.89796C27.7714 11.1312 27.7714 13.7485 26.144 15.3735C24.518 17 21.8991 17 16.6628 17H11.1086C5.87226 17 3.25342 17 1.6274 15.3735C-1.6553e-07 13.7485 0 11.1312 0 5.89796V3.12245ZM20.8285 5.89796C21.1968 5.89796 21.55 5.75175 21.8104 5.49149C22.0708 5.23124 22.2171 4.87826 22.2171 4.5102C22.2171 4.14215 22.0708 3.78917 21.8104 3.52891C21.55 3.26866 21.1968 3.12245 20.8285 3.12245C20.4603 3.12245 20.1071 3.26866 19.8467 3.52891C19.5863 3.78917 19.44 4.14215 19.44 4.5102C19.44 4.87826 19.5863 5.23124 19.8467 5.49149C20.1071 5.75175 20.4603 5.89796 20.8285 5.89796ZM20.8285 11.449C21.1968 11.449 21.55 11.3028 21.8104 11.0425C22.0708 10.7823 22.2171 10.4293 22.2171 10.0612C22.2171 9.69317 22.0708 9.34019 21.8104 9.07993C21.55 8.81968 21.1968 8.67347 20.8285 8.67347C20.4603 8.67347 20.1071 8.81968 19.8467 9.07993C19.5863 9.34019 19.44 9.69317 19.44 10.0612C19.44 10.4293 19.5863 10.7823 19.8467 11.0425C20.1071 11.3028 20.4603 11.449 20.8285 11.449ZM15.2743 4.5102C15.2743 4.87826 15.128 5.23124 14.8676 5.49149C14.6072 5.75175 14.254 5.89796 13.8857 5.89796C13.5174 5.89796 13.1642 5.75175 12.9038 5.49149C12.6434 5.23124 12.4971 4.87826 12.4971 4.5102C12.4971 4.14215 12.6434 3.78917 12.9038 3.52891C13.1642 3.26866 13.5174 3.12245 13.8857 3.12245C14.254 3.12245 14.6072 3.26866 14.8676 3.52891C15.128 3.78917 15.2743 4.14215 15.2743 4.5102ZM15.2743 10.0612C15.2743 10.4293 15.128 10.7823 14.8676 11.0425C14.6072 11.3028 14.254 11.449 13.8857 11.449C13.5174 11.449 13.1642 11.3028 12.9038 11.0425C12.6434 10.7823 12.4971 10.4293 12.4971 10.0612C12.4971 9.69317 12.6434 9.34019 12.9038 9.07993C13.1642 8.81968 13.5174 8.67347 13.8857 8.67347C14.254 8.67347 14.6072 8.81968 14.8676 9.07993C15.128 9.34019 15.2743 9.69317 15.2743 10.0612ZM6.94285 5.89796C7.31112 5.89796 7.66431 5.75175 7.92471 5.49149C8.18512 5.23124 8.33141 4.87826 8.33141 4.5102C8.33141 4.14215 8.18512 3.78917 7.92471 3.52891C7.66431 3.26866 7.31112 3.12245 6.94285 3.12245C6.57457 3.12245 6.22139 3.26866 5.96098 3.52891C5.70057 3.78917 5.55428 4.14215 5.55428 4.5102C5.55428 4.87826 5.70057 5.23124 5.96098 5.49149C6.22139 5.75175 6.57457 5.89796 6.94285 5.89796ZM6.94285 11.449C7.31112 11.449 7.66431 11.3028 7.92471 11.0425C8.18512 10.7823 8.33141 10.4293 8.33141 10.0612C8.33141 9.69317 8.18512 9.34019 7.92471 9.07993C7.66431 8.81968 7.31112 8.67347 6.94285 8.67347C6.57457 8.67347 6.22139 8.81968 5.96098 9.07993C5.70057 9.34019 5.55428 9.69317 5.55428 10.0612C5.55428 10.4293 5.70057 10.7823 5.96098 11.0425C6.22139 11.3028 6.57457 11.449 6.94285 11.449Z" fill="#E0DEEC"/>
</svg>
