<svg width="13" height="13" viewBox="0 0 13 13" fill="none" xmlns="http://www.w3.org/2000/svg">
<path d="M2.16667 0C1.59203 0 1.04093 0.228273 0.634602 0.634602C0.228273 1.04093 0 1.59203 0 2.16667L0 3.9C0 8.9258 4.0742 13 9.1 13H10.8333C11.408 13 11.9591 12.7717 12.3654 12.3654C12.7717 11.9591 13 11.408 13 10.8333V9.6356C13 9.39405 12.9327 9.15727 12.8056 8.95184C12.6786 8.7464 12.4968 8.58043 12.2807 8.47253L10.1877 7.4256C10.021 7.34229 9.83844 7.29577 9.65225 7.2892C9.46607 7.28262 9.28065 7.31613 9.10855 7.38747C8.93645 7.45881 8.78169 7.5663 8.65476 7.70267C8.52783 7.83904 8.4317 8.0011 8.37287 8.17787L8.1146 8.9518C8.06707 9.09383 7.96937 9.21365 7.83982 9.28879C7.71026 9.36394 7.55775 9.38926 7.41087 9.36C6.48043 9.17389 5.62588 8.71659 4.95485 8.04572C4.28382 7.37484 3.82633 6.52039 3.64 5.59C3.61074 5.44311 3.63606 5.2906 3.71121 5.16105C3.78635 5.0315 3.90617 4.9338 4.0482 4.88627L5.00933 4.5656C5.31994 4.46188 5.57996 4.24476 5.73742 3.95763C5.89488 3.67051 5.93818 3.33453 5.85867 3.01687L5.3508 0.9854C5.28066 0.704182 5.11856 0.454468 4.89024 0.275931C4.66193 0.0973935 4.3805 0.00027332 4.09067 0L2.16667 0Z" fill="#C4C4C4"/>
</svg>
