<svg width="28" height="9" viewBox="0 0 28 9" fill="none" xmlns="http://www.w3.org/2000/svg">
<path d="M7.85215 1.03846C7.85215 0.763044 7.74274 0.498908 7.548 0.304158C7.35325 0.109409 7.08911 0 6.81369 0C6.53828 0 6.27414 0.109409 6.07939 0.304158C5.88464 0.498908 5.77523 0.763044 5.77523 1.03846V3.22615C3.78138 3.38538 2.47431 3.77585 1.51338 4.73815C0.551077 5.69908 0.160615 7.00754 0 9H27.4735C27.3129 7.00615 26.9225 5.69908 25.9602 4.73815C24.9992 3.77585 23.6908 3.38538 21.6983 3.22477V1.03846C21.6983 0.763044 21.5889 0.498908 21.3941 0.304158C21.1994 0.109409 20.9353 0 20.6598 0C20.3844 0 20.1203 0.109409 19.9255 0.304158C19.7308 0.498908 19.6214 0.763044 19.6214 1.03846V3.13338C18.7006 3.11538 17.6677 3.11538 16.506 3.11538H10.9675C9.80585 3.11538 8.77292 3.11538 7.85215 3.13338V1.03846Z" fill="#5063BF"/>
</svg>
