<svg width="9" height="11" viewBox="0 0 9 11" fill="none" xmlns="http://www.w3.org/2000/svg">
<path d="M8.40481 11.0001H0.5253C0.385982 11.0001 0.25237 10.9421 0.153857 10.839C0.055344 10.7358 0 10.5959 0 10.4501V10.0959C0 9.49525 0 9.02005 0.0304674 8.62955C0.0461103 8.25586 0.133283 7.88928 0.286814 7.55154C0.537323 7.03345 0.939252 6.61262 1.43407 6.35033C1.75662 6.18953 2.10675 6.09825 2.46366 6.08193C2.83662 6.05003 3.29048 6.05003 3.86411 6.05003H5.06495C5.63963 6.05003 6.09349 6.05003 6.4654 6.08193C6.82265 6.0982 7.17314 6.18947 7.49604 6.35033C7.99086 6.613 8.39302 7.03369 8.64434 7.55154C8.79714 7.8895 8.88393 8.256 8.89964 8.62955C8.93011 9.02005 8.93011 9.49415 8.93011 10.0959V10.4501C8.93011 10.5959 8.87476 10.7358 8.77625 10.839C8.67774 10.9421 8.54413 11.0001 8.40481 11.0001ZM7.71666 8.06964C7.79895 8.276 7.84486 8.49626 7.85219 8.71975C7.84489 8.49625 7.79897 8.276 7.71666 8.06964ZM1.89108 7.34364C1.60572 7.50254 1.37392 7.74946 1.2271 8.05094C1.37392 7.74946 1.60572 7.50254 1.89108 7.34364ZM3.88722 7.15004C3.26632 7.15004 2.86919 7.15004 2.54981 7.17864C2.86919 7.15004 3.26632 7.15004 3.88722 7.15004ZM4.46505 4.95003C3.99753 4.95003 3.5405 4.80487 3.15177 4.53291C2.76303 4.26095 2.46005 3.87441 2.28114 3.42216C2.10223 2.96991 2.05541 2.47227 2.14662 1.99216C2.23783 1.51206 2.46297 1.07105 2.79356 0.724916C3.12415 0.378779 3.54535 0.143057 4.00389 0.0475578C4.46243 -0.0479411 4.93772 0.00107239 5.36966 0.1884C5.8016 0.375728 6.17078 0.692957 6.43053 1.09997C6.69027 1.50698 6.82891 1.9855 6.82891 2.47501C6.82807 3.13116 6.57876 3.76018 6.13563 4.22415C5.6925 4.68811 5.09173 4.94915 4.46505 4.95003ZM4.46505 1.10001C4.11765 1.10058 3.78458 1.24503 3.53854 1.50182C3.29249 1.75861 3.15347 2.10688 3.1518 2.47061C3.15347 2.10688 3.29249 1.75861 3.53854 1.50182C3.78458 1.24503 4.11765 1.10058 4.46505 1.10001ZM4.46505 1.10001C4.76719 1.1009 5.05971 1.21129 5.29293 1.41241C5.06113 1.21168 4.77006 1.10128 4.46926 1.10001H4.46505Z" fill="#B8B8D2"/>
</svg>
