<svg width="19" height="19" viewBox="0 0 19 19" fill="none" xmlns="http://www.w3.org/2000/svg">
<g clip-path="url(#clip0_94_67)">
<path d="M17.0631 3.16669C16.9911 3.15928 16.9186 3.15928 16.8467 3.16669H2.06891C1.97419 3.16815 1.88011 3.18235 1.78918 3.20891L9.41557 10.8036L17.0631 3.16669Z" fill="#C4C4C4"/>
<path d="M17.8442 3.90027L10.1597 11.553C9.96196 11.7496 9.69442 11.86 9.41556 11.86C9.1367 11.86 8.86916 11.7496 8.67139 11.553L1.05556 3.95832C1.03215 4.04437 1.01973 4.13304 1.01862 4.22221V14.7778C1.01862 15.0577 1.12983 15.3262 1.32778 15.5242C1.52574 15.7221 1.79422 15.8333 2.07417 15.8333H16.8519C17.1319 15.8333 17.4004 15.7221 17.5983 15.5242C17.7963 15.3262 17.9075 15.0577 17.9075 14.7778V4.22221C17.9033 4.11225 17.8819 4.00363 17.8442 3.90027ZM2.79723 14.7778H2.06362V14.023L5.90056 10.2178L6.64473 10.9619L2.79723 14.7778ZM16.8414 14.7778H16.1025L12.255 10.9619L12.9992 10.2178L16.8361 14.023L16.8414 14.7778Z" fill="#C4C4C4"/>
</g>
<defs>
<clipPath id="clip0_94_67">
<rect width="19" height="19" fill="white"/>
</clipPath>
</defs>
</svg>
