<svg width="48" height="47" viewBox="0 0 48 47" fill="none" xmlns="http://www.w3.org/2000/svg">
<path d="M23.5299 47C36.525 47 47.0597 36.4787 47.0597 23.5C47.0597 10.5213 36.525 0 23.5299 0C10.5347 0 0 10.5213 0 23.5C0 36.4787 10.5347 47 23.5299 47Z" fill="#398A80"/>
<path d="M31.0167 21.6497C31.3419 21.8372 31.6119 22.1069 31.7996 22.4316C31.9873 22.7564 32.0862 23.1248 32.0862 23.4998C32.0862 23.8747 31.9873 24.2431 31.7996 24.5679C31.6119 24.8926 31.3419 25.1623 31.0167 25.3498L21.3909 30.9044C21.0657 31.0919 20.6968 31.1906 20.3213 31.1906C19.9459 31.1906 19.577 31.0919 19.2518 30.9044C18.9266 30.7169 18.6566 30.4472 18.4689 30.1225C18.2811 29.7977 18.1823 29.4293 18.1823 29.0543V17.9452C18.1823 17.5702 18.2811 17.2018 18.4689 16.877C18.6566 16.5523 18.9266 16.2826 19.2518 16.0951C19.577 15.9076 19.9459 15.8089 20.3213 15.8089C20.6968 15.8089 21.0657 15.9076 21.3909 16.0951L31.0167 21.6497Z" fill="white"/>
</svg>
