<svg width="168" height="123" viewBox="0 0 168 123" fill="none" xmlns="http://www.w3.org/2000/svg">
<path d="M168 122.604V122.92H0V122.604H168Z" fill="#DADAF7"/>
<path opacity="0.998" d="M68.2229 122.795C65.0175 122.785 61.9457 121.329 59.6792 118.744C57.4128 116.159 56.1361 112.655 56.1284 109L56.1003 14.1143C56.1083 10.4588 57.3851 6.95563 59.6516 4.3708C61.918 1.78597 64.9896 0.32977 68.1948 0.320619L124.269 0.288624C127.474 0.297775 130.546 1.75397 132.812 4.33881C135.079 6.92364 136.355 10.4268 136.363 14.0823L136.391 108.968C136.379 112.622 135.101 116.122 132.835 118.706C130.57 121.29 127.501 122.748 124.297 122.763L68.2229 122.795Z" fill="#F4F3FD"/>
<path d="M75.7526 23.994C75.3198 23.9809 74.9087 23.7756 74.6066 23.4219C74.3046 23.0682 74.1356 22.594 74.1356 22.1003C74.1356 21.6066 74.3046 21.1324 74.6066 20.7787C74.9087 20.425 75.3198 20.2197 75.7526 20.2066L116.714 20.1746C117.147 20.1877 117.558 20.393 117.86 20.7467C118.162 21.1004 118.331 21.5746 118.331 22.0683C118.331 22.562 118.162 23.0362 117.86 23.3899C117.558 23.7436 117.147 23.9489 116.714 23.962L75.7526 23.994Z" fill="#DADAF7"/>
<path d="M75.7526 42.5228C75.3198 42.5097 74.9087 42.3045 74.6066 41.9508C74.3046 41.5971 74.1356 41.1229 74.1356 40.6292C74.1356 40.1354 74.3046 39.6612 74.6066 39.3075C74.9087 38.9538 75.3198 38.7486 75.7526 38.7355L116.714 38.7035C117.147 38.7166 117.558 38.9218 117.86 39.2755C118.162 39.6292 118.331 40.1035 118.331 40.5972C118.331 41.0909 118.162 41.5651 117.86 41.9188C117.558 42.2725 117.147 42.4777 116.714 42.4908L75.7526 42.5228Z" fill="#DADAF7"/>
<path d="M75.7526 61.0517C75.3198 61.0386 74.9087 60.8333 74.6066 60.4796C74.3046 60.1259 74.1356 59.6517 74.1356 59.158C74.1356 58.6643 74.3046 58.1901 74.6066 57.8364C74.9087 57.4827 75.3198 57.2774 75.7526 57.2643L116.714 57.2323C117.147 57.2454 117.558 57.4507 117.86 57.8044C118.162 58.1581 118.331 58.6323 118.331 59.126C118.331 59.6197 118.162 60.0939 117.86 60.4476C117.558 60.8014 117.147 61.0066 116.714 61.0197L75.7526 61.0517Z" fill="#DADAF7"/>
<path d="M75.752 79.5486C75.5302 79.5553 75.3096 79.5113 75.103 79.4191C74.8964 79.327 74.708 79.1886 74.5491 79.0121C74.3902 78.8356 74.2639 78.6245 74.1776 78.3914C74.0914 78.1583 74.0469 77.9079 74.0469 77.6549C74.0469 77.4019 74.0914 77.1515 74.1776 76.9184C74.2639 76.6853 74.3902 76.4743 74.5491 76.2978C74.708 76.1212 74.8964 75.9828 75.103 75.8907C75.3096 75.7985 75.5302 75.7545 75.752 75.7612L116.713 75.7292C117.146 75.7423 117.557 75.9476 117.859 76.3013C118.161 76.655 118.33 77.1292 118.33 77.6229C118.33 78.1166 118.161 78.5908 117.859 78.9445C117.557 79.2982 117.146 79.5035 116.713 79.5166L75.752 79.5486Z" fill="#DADAF7"/>
<path opacity="0.533" d="M62.3554 122.793C60.7832 122.789 59.2387 122.321 57.8715 121.436C58.2656 121.887 58.7369 122.24 59.256 122.473C59.7751 122.707 60.3308 122.816 60.8884 122.793H62.3554Z" fill="#EAEAFF"/>
<path d="M141.401 99.4039H118.959L73.5647 99.4359C73.9247 101.195 74.1013 102.996 74.0907 104.802C74.0907 114.745 68.8307 122.799 62.3282 122.799L130.553 122.767C131.124 122.765 131.693 122.669 132.241 122.483C137.749 120.963 141.93 113.608 141.93 104.77C141.926 102.964 141.749 101.165 141.401 99.4039V99.4039Z" fill="#EAEAFF"/>
<path d="M157.733 92.7743C167.502 92.7743 171.292 81.095 163.46 75.6972C162.039 74.7387 160.393 74.306 158.747 74.4586C157.102 74.6111 155.538 75.3414 154.271 76.5491C154.271 76.5491 154.273 66.5121 143.947 66.6987C133.597 66.8907 134.815 79.4539 134.815 79.4539C134.815 79.4539 129.447 79.6432 128.81 85.1036C128.063 91.1639 134.677 92.7743 138.137 92.7743H157.733Z" fill="#EAEAFF"/>
<path d="M25.906 23.3621C17.1323 23.3621 13.7554 12.9145 20.7629 8.08464C22.033 7.22421 23.506 6.83492 24.9784 6.97056C26.4509 7.10621 27.85 7.76009 28.9825 8.84185C28.9825 8.84185 28.9498 -0.153969 38.2226 0.00200507C47.4954 0.157979 46.4154 11.4281 46.4154 11.4281C46.4154 11.4281 51.2078 11.6174 51.8121 16.4779C52.4761 21.9076 46.5252 23.3594 43.4534 23.3594L25.906 23.3621Z" fill="#EAEAFF"/>
<path d="M32.7418 91.2279L47.1343 97.5415L37.7236 122.793H32.7418L25.878 110.798L32.7418 91.2279Z" fill="#F9ACC0"/>
<path d="M92.8019 91.2279L78.4094 97.5415L87.8201 122.793H92.8019L99.6656 110.767L92.8019 91.2279Z" fill="#F9ACC0"/>
<path d="M42.4276 101.329L28.8684 94.0688C28.8684 94.0688 29.9204 92.3064 31.7743 89.7442C35.4551 84.725 42.2639 76.6797 50.1516 73.5509C62.0532 68.8157 71.7398 72.2884 78.9367 75.7599C83.7525 78.0648 96.9271 95.3299 96.9271 95.3299L83.0886 101.329L88.933 122.792H36.6182L42.4276 101.329Z" fill="#3D5CFF"/>
<path d="M72.0161 48.6151C71.8233 43.2173 67.8654 38.8301 63.1595 39.7806C57.1221 41.007 50.7049 43.2467 48.491 48.6151C46.9411 52.3718 48.463 59.8519 52.0889 62.8194C57.9006 67.5546 59.8386 64.7137 59.8386 64.7137L67.3114 59.6639C68.8575 58.4336 70.1016 56.7723 70.9252 54.8382C71.7487 52.9041 72.1243 50.7617 72.0161 48.6151Z" fill="#1F1F39"/>
<path d="M51.2563 55.5593C49.0459 57.1377 50.7069 61.237 52.6437 62.1888C53.4812 62.7382 54.4533 62.9601 55.4117 62.8207V73.5536C57.2281 74.5141 59.2246 74.9478 61.2234 74.816C62.9591 74.6656 64.652 74.1284 66.2064 73.2349L65.3765 65.6589C66.4978 65.0726 67.454 64.1421 68.1383 62.9716C68.8226 61.8011 69.2079 60.4366 69.2514 59.0307C69.3219 56.5757 69.0411 54.124 68.4203 51.7719L57.3497 54.2968C57.523 55.3398 57.523 56.4106 57.3497 57.4536C57.2854 58.3678 56.9965 59.2429 56.5163 59.9785C56.5163 59.9785 56.7933 57.1377 55.4093 56.1912C54.8736 55.5812 54.1769 55.1889 53.4265 55.0747C52.676 54.9605 51.9135 55.1308 51.2563 55.5593Z" fill="#F9D2DD"/>
<path d="M42.3728 101.487C42.3558 101.482 42.34 101.473 42.3264 101.46C42.3128 101.448 42.3017 101.432 42.2939 101.414C42.286 101.396 42.2816 101.377 42.2809 101.357C42.2802 101.337 42.2832 101.317 42.2898 101.298L46.4417 88.3564C46.4463 88.3375 46.4542 88.32 46.4651 88.3048C46.4759 88.2897 46.4894 88.2773 46.5047 88.2684C46.52 88.2595 46.5367 88.2543 46.5538 88.2531C46.5709 88.252 46.5881 88.2549 46.6041 88.2617C46.6211 88.2669 46.6369 88.2761 46.6505 88.2887C46.6641 88.3014 46.6752 88.3172 46.683 88.335C46.6909 88.3529 46.6953 88.3725 46.696 88.3925C46.6967 88.4125 46.6937 88.4325 46.6871 88.451L42.5387 101.393C42.5387 101.455 42.4838 101.487 42.4277 101.487H42.3728Z" fill="#DADAF7"/>
<path d="M30.947 96.3417C29.369 93.3115 23.8062 78.5074 23.8062 78.5074C23.8062 78.5074 22.3673 72.4777 19.2394 71.6578C17.4202 71.2726 15.6987 70.4317 14.1991 69.1956C13.0092 68.3744 11.7912 68.0905 11.0758 68.9116C10.7484 69.3089 10.5461 69.8192 10.5011 70.3621C10.456 70.9049 10.5706 71.4495 10.8269 71.9098C11.0969 72.5598 11.5037 73.1235 12.011 73.5509C12.011 73.5509 2.40852 73.2669 1.21859 74.3721C0.02866 75.4772 -0.691377 78.4754 3.84743 80.1164C7.14805 81.1287 10.5606 81.5858 13.977 81.4735C14.198 82.0068 20.7858 108.904 22.7788 114.869C24.7998 120.835 28.8126 123.134 32.1299 122.792C35.5068 122.476 39.6307 119.604 37.9977 112.154C38.0012 112.156 33.1585 100.572 30.947 96.3417Z" fill="#F9D2DD"/>
<path d="M82.977 101.393L78.8251 88.451C78.8172 88.4326 78.8132 88.4124 78.8132 88.3919C78.8133 88.3715 78.8176 88.3513 78.8256 88.333C78.8336 88.3147 78.8452 88.2988 78.8595 88.2864C78.8738 88.274 78.8904 88.2656 78.908 88.2617C78.9242 88.2528 78.9419 88.2481 78.9598 88.2483C78.9778 88.2484 78.9955 88.2532 79.0115 88.2623C79.0276 88.2715 79.0416 88.2847 79.0524 88.301C79.0632 88.3173 79.0706 88.3363 79.074 88.3564L83.2259 101.298C83.2338 101.317 83.2377 101.337 83.2374 101.358C83.2371 101.379 83.2326 101.399 83.2242 101.418C83.2158 101.436 83.2038 101.452 83.1891 101.464C83.1744 101.476 83.1574 101.484 83.1394 101.487H83.1149C83.0864 101.488 83.0584 101.479 83.034 101.463C83.0096 101.446 82.9899 101.422 82.977 101.393Z" fill="#DADAF7"/>
<path d="M94.5454 96.2791C96.1234 93.2489 101.686 78.4447 101.686 78.4447C101.686 78.4447 103.125 72.4151 106.253 71.5952C108.071 71.2096 109.792 70.3687 111.291 69.133C112.481 68.3118 113.699 68.0278 114.419 68.849C114.746 69.2463 114.949 69.7566 114.994 70.2995C115.039 70.8423 114.924 71.3868 114.668 71.8472C114.396 72.4979 113.987 73.0617 113.478 73.4882C113.478 73.4882 123.081 73.2043 124.271 74.3094C125.461 75.4146 126.18 78.4127 121.64 80.0538C118.34 81.0715 114.928 81.5394 111.511 81.4429C111.29 81.9761 104.731 108.873 102.709 114.839C100.687 120.804 96.6751 123.104 93.3578 122.761C90.0369 122.445 85.9131 119.574 87.5133 112.123C87.5156 112.124 92.3315 100.541 94.5454 96.2791Z" fill="#F9D2DD"/>
<path d="M3.10101 79.9912C2.71645 79.872 2.37164 79.6251 2.11043 79.2818C1.84922 78.9386 1.6834 78.5145 1.63406 78.0635C1.58296 77.5356 1.66214 77.002 1.86268 76.5227C2.06321 76.0433 2.37712 75.6374 2.76905 75.3506C4.18107 74.4041 16.8285 74.8174 17.3802 74.8454C17.3979 74.8448 17.4155 74.8484 17.4319 74.8558C17.4484 74.8632 17.4633 74.8744 17.4759 74.8886C17.4884 74.9028 17.4984 74.9198 17.505 74.9385C17.5117 74.9571 17.5149 74.9772 17.5146 74.9974C17.5121 75.0381 17.4968 75.0766 17.4715 75.1055C17.4461 75.1344 17.4124 75.1519 17.3767 75.1547C12.839 74.9974 3.98586 74.8774 2.93503 75.6039C2.58921 75.8599 2.31114 76.2186 2.13072 76.6415C1.9503 77.0643 1.87436 77.5352 1.91108 78.0035C1.94774 78.3972 2.08945 78.7687 2.31708 79.0676C2.54472 79.3666 2.84732 79.5787 3.18401 79.6752C3.20096 79.6804 3.21675 79.6896 3.23035 79.7022C3.24395 79.7149 3.25503 79.7307 3.26288 79.7486C3.27073 79.7665 3.27515 79.7861 3.27586 79.806C3.27657 79.826 3.27355 79.846 3.267 79.8645C3.26008 79.9004 3.24264 79.9325 3.21756 79.9555C3.19248 79.9785 3.16126 79.9911 3.12907 79.9912H3.10101Z" fill="white"/>
<path d="M5.25886 80.6844C5.0147 80.6102 4.79632 80.4525 4.63311 80.2325C4.4699 80.0125 4.36969 79.7408 4.34596 79.4539C4.31126 79.1212 4.36045 78.784 4.48778 78.482C4.6151 78.1801 4.81527 77.9257 5.06483 77.7489C5.89474 77.181 13.0355 77.4022 13.8666 77.4329C13.8851 77.4317 13.9036 77.435 13.9208 77.4426C13.9381 77.4502 13.9538 77.4619 13.9668 77.4769C13.9799 77.4918 13.99 77.5098 13.9964 77.5296C14.0029 77.5494 14.0057 77.5705 14.0045 77.5916C14.002 77.6323 13.9867 77.6708 13.9614 77.6997C13.936 77.7286 13.9023 77.7461 13.8666 77.7489C10.7117 77.6222 5.81292 77.6222 5.23081 78.0021C5.0326 78.152 4.87363 78.3603 4.77074 78.6048C4.66785 78.8494 4.62488 79.1211 4.64636 79.3912C4.66533 79.6148 4.74485 79.826 4.87389 79.9956C5.00292 80.1652 5.17506 80.2848 5.3664 80.3378C5.38335 80.3429 5.39915 80.3521 5.41274 80.3648C5.42634 80.3774 5.43743 80.3932 5.44527 80.4111C5.45312 80.429 5.45754 80.4486 5.45825 80.4686C5.45896 80.4886 5.45594 80.5085 5.44939 80.5271C5.39445 80.6537 5.33835 80.6844 5.28341 80.6844H5.25886Z" fill="white"/>
<path d="M11.9573 73.7415C11.9214 73.7387 11.8876 73.721 11.8622 73.6918C11.8368 73.6627 11.8216 73.6239 11.8194 73.5829C11.8184 73.5619 11.8213 73.541 11.8278 73.5214C11.8344 73.5017 11.8445 73.4839 11.8576 73.4691C11.8706 73.4542 11.8862 73.4427 11.9034 73.4352C11.9206 73.4277 11.939 73.4244 11.9573 73.4256L16.9123 73.7415C16.948 73.7443 16.9817 73.7618 17.0071 73.7907C17.0324 73.8196 17.0477 73.858 17.0502 73.8988C17.0794 73.9588 17.0221 74.0575 16.9392 74.0575L11.9573 73.7415Z" fill="white"/>
<path d="M122.111 79.8338C122.101 79.7962 122.104 79.7555 122.12 79.7202C122.135 79.685 122.162 79.6579 122.194 79.6445C122.531 79.5479 122.834 79.3356 123.062 79.0364C123.289 78.7372 123.431 78.3654 123.467 77.9715C123.519 77.5013 123.45 77.024 123.268 76.5978C123.087 76.1717 122.8 75.8152 122.443 75.5719C121.364 74.8467 112.508 74.972 107.996 75.1306C107.977 75.1318 107.959 75.1285 107.942 75.1209C107.924 75.1133 107.909 75.1017 107.896 75.0867C107.883 75.0717 107.872 75.0537 107.866 75.0339C107.859 75.0142 107.857 74.993 107.858 74.972C107.857 74.951 107.86 74.93 107.866 74.9104C107.873 74.8908 107.883 74.873 107.896 74.8582C107.909 74.8433 107.925 74.8318 107.942 74.8243C107.959 74.8168 107.977 74.8135 107.996 74.8147C108.522 74.7827 121.198 74.3414 122.609 75.3199C123.001 75.6068 123.315 76.013 123.516 76.4925C123.717 76.9721 123.796 77.506 123.744 78.0341C123.699 78.4864 123.534 78.9124 123.272 79.256C123.011 79.5996 122.664 79.8447 122.277 79.9591H122.249C122.217 79.9592 122.186 79.9468 122.161 79.924C122.136 79.9012 122.118 79.8694 122.111 79.8338Z" fill="white"/>
<path d="M119.954 80.527C119.944 80.4894 119.947 80.4487 119.963 80.4134C119.978 80.3782 120.005 80.3511 120.037 80.3377C120.226 80.2797 120.395 80.1585 120.522 79.9898C120.65 79.821 120.73 79.6125 120.753 79.3912C120.774 79.1211 120.731 78.8494 120.628 78.6048C120.525 78.3603 120.366 78.152 120.168 78.0021C119.594 77.5915 114.696 77.6209 111.54 77.7542C111.521 77.7554 111.502 77.752 111.484 77.7442C111.467 77.7364 111.451 77.7244 111.438 77.7089C111.425 77.6935 111.415 77.675 111.409 77.6548C111.402 77.6345 111.4 77.6129 111.402 77.5915C111.401 77.5706 111.403 77.5496 111.41 77.53C111.417 77.5104 111.427 77.4926 111.44 77.4777C111.453 77.4629 111.468 77.4513 111.486 77.4439C111.503 77.4364 111.521 77.4331 111.54 77.4342C112.343 77.4022 119.483 77.1503 120.341 77.7542C120.587 77.936 120.784 78.1911 120.911 78.4917C121.038 78.7924 121.09 79.1271 121.061 79.4592C121.038 79.7461 120.937 80.0179 120.774 80.2378C120.611 80.4578 120.393 80.6155 120.148 80.6897C120.12 80.6577 120.12 80.6577 120.093 80.6577C120.061 80.6578 120.029 80.6447 120.003 80.6209C119.978 80.5971 119.961 80.5639 119.954 80.527Z" fill="white"/>
<path d="M108.301 73.8362C108.3 73.8152 108.303 73.7942 108.309 73.7746C108.316 73.755 108.326 73.7372 108.339 73.7224C108.352 73.7075 108.368 73.696 108.385 73.6885C108.402 73.681 108.42 73.6777 108.439 73.6789L113.394 73.3629C113.412 73.3617 113.43 73.365 113.448 73.3725C113.465 73.38 113.48 73.3916 113.493 73.4064C113.506 73.4213 113.517 73.4391 113.523 73.4587C113.53 73.4783 113.533 73.4993 113.532 73.5202C113.533 73.5412 113.53 73.5621 113.523 73.5818C113.517 73.6014 113.506 73.6192 113.493 73.634C113.48 73.6489 113.465 73.6604 113.448 73.6679C113.43 73.6754 113.412 73.6787 113.394 73.6775L108.439 73.9948C108.42 73.996 108.402 73.9927 108.384 73.9851C108.367 73.9775 108.351 73.9658 108.338 73.9509C108.325 73.9359 108.315 73.9179 108.309 73.8981C108.302 73.8783 108.3 73.8572 108.301 73.8362Z" fill="white"/>
<path d="M65.6777 65.5016C65.5947 65.5336 65.5444 65.5656 65.4567 65.5962C63.2506 66.5228 60.8193 66.4666 58.6479 65.4389C60.5383 67.8799 63.0739 69.5528 65.8717 70.2048L65.3737 65.6602C65.3737 65.6602 65.4836 65.5962 65.6777 65.5016Z" fill="#F9ACC0"/>
</svg>
