<svg width="17" height="17" viewBox="0 0 17 17" fill="none" xmlns="http://www.w3.org/2000/svg">
<path d="M9.71429 16.1905C9.49959 16.1905 9.29368 16.1052 9.14187 15.9534C8.99005 15.8016 8.90476 15.5957 8.90476 15.381V14.5714H0.809524C0.594825 14.5714 0.388919 14.4861 0.237104 14.3343C0.0852889 14.1825 0 13.9766 0 13.7619C0 13.5472 0.0852889 13.3413 0.237104 13.1895C0.388919 13.0377 0.594825 12.9524 0.809524 12.9524H8.90476V12.1429C8.90476 11.9282 8.99005 11.7223 9.14187 11.5704C9.29368 11.4186 9.49959 11.3333 9.71429 11.3333C9.92898 11.3333 10.1349 11.4186 10.2867 11.5704C10.4385 11.7223 10.5238 11.9282 10.5238 12.1429V15.381C10.5238 15.5957 10.4385 15.8016 10.2867 15.9534C10.1349 16.1052 9.92898 16.1905 9.71429 16.1905ZM15.381 14.5714H12.9524C12.7377 14.5714 12.5318 14.4861 12.38 14.3343C12.2281 14.1825 12.1429 13.9766 12.1429 13.7619C12.1429 13.5472 12.2281 13.3413 12.38 13.1895C12.5318 13.0377 12.7377 12.9524 12.9524 12.9524H15.381C15.5957 12.9524 15.8016 13.0377 15.9534 13.1895C16.1052 13.3413 16.1905 13.5472 16.1905 13.7619C16.1905 13.9766 16.1052 14.1825 15.9534 14.3343C15.8016 14.4861 15.5957 14.5714 15.381 14.5714ZM7.28571 10.5238C7.07102 10.5238 6.86511 10.4385 6.71329 10.2867C6.56148 10.1349 6.47619 9.92898 6.47619 9.71428V6.47619C6.47619 6.26149 6.56148 6.05559 6.71329 5.90377C6.86511 5.75196 7.07102 5.66667 7.28571 5.66667C7.50041 5.66667 7.70632 5.75196 7.85813 5.90377C8.00995 6.05559 8.09524 6.26149 8.09524 6.47619V7.28571H16.1905C16.4052 7.28571 16.6111 7.371 16.7629 7.52282C16.9147 7.67463 17 7.88054 17 8.09524C17 8.30994 16.9147 8.51584 16.7629 8.66766C16.6111 8.81947 16.4052 8.90476 16.1905 8.90476H8.09524V9.71428C8.09524 9.92898 8.00995 10.1349 7.85813 10.2867C7.70632 10.4385 7.50041 10.5238 7.28571 10.5238ZM4.04762 8.90476H0.809524C0.594825 8.90476 0.388919 8.81947 0.237104 8.66766C0.0852889 8.51584 0 8.30994 0 8.09524C0 7.88054 0.0852889 7.67463 0.237104 7.52282C0.388919 7.371 0.594825 7.28571 0.809524 7.28571H4.04762C4.26232 7.28571 4.46822 7.371 4.62004 7.52282C4.77185 7.67463 4.85714 7.88054 4.85714 8.09524C4.85714 8.30994 4.77185 8.51584 4.62004 8.66766C4.46822 8.81947 4.26232 8.90476 4.04762 8.90476ZM9.71429 4.85714C9.49959 4.85714 9.29368 4.77185 9.14187 4.62004C8.99005 4.46822 8.90476 4.26232 8.90476 4.04762V3.2381H0.809524C0.594825 3.2381 0.388919 3.15281 0.237104 3.00099C0.0852889 2.84918 0 2.64327 0 2.42857C0 2.21387 0.0852889 2.00797 0.237104 1.85615C0.388919 1.70434 0.594825 1.61905 0.809524 1.61905H8.90476V0.809524C8.90476 0.594825 8.99005 0.388919 9.14187 0.237104C9.29368 0.0852889 9.49959 0 9.71429 0C9.92898 0 10.1349 0.0852889 10.2867 0.237104C10.4385 0.388919 10.5238 0.594825 10.5238 0.809524V4.04762C10.5238 4.26232 10.4385 4.46822 10.2867 4.62004C10.1349 4.77185 9.92898 4.85714 9.71429 4.85714ZM15.381 3.2381H12.9524C12.7377 3.2381 12.5318 3.15281 12.38 3.00099C12.2281 2.84918 12.1429 2.64327 12.1429 2.42857C12.1429 2.21387 12.2281 2.00797 12.38 1.85615C12.5318 1.70434 12.7377 1.61905 12.9524 1.61905H15.381C15.5957 1.61905 15.8016 1.70434 15.9534 1.85615C16.1052 2.00797 16.1905 2.21387 16.1905 2.42857C16.1905 2.64327 16.1052 2.84918 15.9534 3.00099C15.8016 3.15281 15.5957 3.2381 15.381 3.2381Z" fill="#B8B8D2"/>
</svg>
