<svg width="19" height="19" viewBox="0 0 19 19" fill="none" xmlns="http://www.w3.org/2000/svg">
<path d="M10.6262 0.405333L17.9186 5.72533C18.1774 5.91411 18.3874 6.1589 18.5321 6.44031C18.6767 6.72173 18.7521 7.03204 18.7521 7.34667V16.9733C18.7521 17.5108 18.5325 18.0263 18.1418 18.4064C17.751 18.7865 17.2211 19 16.6685 19H2.08356C1.53097 19 1.001 18.7865 0.610261 18.4064C0.219518 18.0263 0 17.5108 0 16.9733V7.34667C0 7.03204 0.0753105 6.72173 0.219967 6.44031C0.364624 6.1589 0.574655 5.91411 0.833425 5.72533L8.12589 0.405333C8.48655 0.142227 8.92521 0 9.37603 0C9.82685 0 10.2655 0.142227 10.6262 0.405333Z" fill="#5063BF"/>
</svg>
