<svg width="28" height="9" viewBox="0 0 28 9" fill="none" xmlns="http://www.w3.org/2000/svg">
<path d="M7.85676 1.03846C7.85676 0.763044 7.74729 0.498908 7.55242 0.304158C7.35756 0.109409 7.09327 0 6.81769 0C6.54211 0 6.27782 0.109409 6.08296 0.304158C5.88809 0.498908 5.77862 0.763044 5.77862 1.03846V3.22615C3.7836 3.38538 2.47576 3.77585 1.51427 4.73815C0.5514 5.69908 0.16071 7.00754 0 9H27.4897C27.3289 7.00615 26.9383 5.69908 25.9754 4.73815C25.0139 3.77585 23.7047 3.38538 21.711 3.22477V1.03846C21.711 0.763044 21.6016 0.498908 21.4067 0.304158C21.2118 0.109409 20.9475 0 20.672 0C20.3964 0 20.1321 0.109409 19.9372 0.304158C19.7424 0.498908 19.6329 0.763044 19.6329 1.03846V3.13338C18.7116 3.11538 17.6781 3.11538 16.5157 3.11538H10.974C9.8116 3.11538 8.77807 3.11538 7.85676 3.13338V1.03846Z" fill="#E0DEEC"/>
</svg>
