<svg width="126" height="93" viewBox="0 0 126 93" fill="none" xmlns="http://www.w3.org/2000/svg">
<path d="M107.354 52.3807L105.872 61.5146L95.3087 66.6764L97.0293 57.2777L107.354 52.3807Z" fill="#DADAF7"/>
<path d="M107.218 15.5791C107.218 15.5791 108.286 10.947 105.634 10.2859C104.026 9.88519 102.388 9.61939 100.736 9.49128L83.8852 92.2369L93.9857 92.224L107.218 15.5791Z" fill="#DADAF7"/>
<path d="M100.736 9.35889C100.736 9.35889 102.324 9.35889 102.853 10.0211C103.189 10.6254 103.328 11.3195 103.251 12.0066L88.359 92.223L30.7114 92.223L51.4934 8.16695C51.4934 8.16695 52.8178 4.59328 57.4467 5.65278L100.736 9.35889Z" fill="#EAEAFF"/>
<path d="M96.8973 17.1683C96.8973 17.1683 97.1622 15.4477 95.7065 15.3153L54.9361 11.6092L46.5968 51.1887L84.9844 57.4101C84.9844 57.4101 89.0878 58.4695 89.6176 55.4246L96.8973 17.1683Z" fill="white"/>
<path d="M113.972 92.3565H118.605L102.324 32.3923L100.603 41.791L113.972 92.3565Z" fill="#DADAF7"/>
<path d="M20.498 46.7297C14.0898 46.7297 11.6333 40.0181 16.7385 36.9347C17.6677 36.3838 18.7449 36.1352 19.8215 36.223C20.8981 36.3108 21.9208 36.7308 22.7484 37.4249C22.7484 37.4249 22.7356 31.6639 29.5123 31.7707C36.2891 31.8775 35.4934 39.0911 35.4934 39.0911C35.4934 39.0911 39.003 39.1979 39.427 42.3347C39.9033 45.8027 35.5617 46.7297 33.3114 46.7297H20.498Z" fill="white"/>
<path d="M100.484 55.1073L109.127 39.3814C108.974 37.7791 108.974 36.1658 109.127 34.5635C109.464 33.125 109.262 31.6129 108.558 30.3137C107.989 29.612 106.295 25.7863 107.42 24.3701C108.544 22.9539 110.821 23.8008 111.947 24.9394C113.073 26.0779 116.196 29.3343 116.196 29.3343C116.196 29.3343 124.27 29.7573 125.69 32.5908C127.109 35.4243 114.368 69.9723 110.692 74.0757C107.016 78.1792 96.2501 75.916 91.2869 72.3818C86.3237 68.8477 94.1161 50.8629 94.1161 50.8629L100.484 55.1073Z" fill="#F9D2DD"/>
<path d="M91.2977 72.3809C86.3473 68.8467 94.1344 50.8577 94.1344 50.8577L98.2998 53.6346L95.9565 74.737C94.3068 74.1598 92.7404 73.3676 91.2977 72.3809Z" fill="#F9ACC0"/>
<path d="M108.016 29.3205L112.808 25.7736C113.81 26.8064 115.177 28.2354 115.839 28.9104L109.247 32.9294C109.291 32.0101 109.057 31.0988 108.576 30.3138C108.357 30.0023 108.169 29.6695 108.016 29.3205Z" fill="#F9ACC0"/>
<path d="M122.021 47.0319C122.021 46.1315 122.021 42.5045 120.605 41.6447C119.149 40.771 114.944 41.4994 112.955 39.5268C111.665 38.0467 110.829 36.2271 110.545 34.2848L109.089 34.8541L109.129 34.5764C109.142 34.4439 109.168 34.3254 109.182 34.193V34.1396C109.198 34.0299 109.207 33.9193 109.209 33.8085V33.7818C109.222 33.5436 109.236 33.3182 109.236 33.0939L110.254 31.1608L120.777 31.4919C122.458 32.4585 125.092 31.3744 125.703 32.5898C126.245 33.675 124.697 39.4467 122.38 46.3825C122.274 46.6063 122.154 46.8232 122.021 47.0319Z" fill="#F9ACC0"/>
<path d="M105.909 37.4344L125.741 17.6051C125.9 17.445 125.989 17.2285 125.989 17.0027C125.989 16.777 125.9 16.5604 125.741 16.4004C125.58 16.2412 125.364 16.1519 125.138 16.1519C124.912 16.1519 124.696 16.2412 124.536 16.4004L104.706 36.2318C104.547 36.3919 104.458 36.6084 104.458 36.8342C104.458 37.0599 104.547 37.2764 104.706 37.4365C104.867 37.5947 105.083 37.6833 105.308 37.6829C105.533 37.6825 105.749 37.5932 105.909 37.4344Z" fill="white"/>
<path d="M105.871 38.5346C105.444 39.8056 103.886 40.2285 103.608 41.0894C103.522 41.3209 103.491 41.5689 103.516 41.8143C103.541 42.0598 103.622 42.2963 103.753 42.5056C103.233 42.2516 102.803 41.8432 102.524 41.336C102.245 40.8288 102.128 40.2477 102.192 39.6721C102.337 37.5413 103.608 35.7011 105.447 36.6944C105.712 36.9109 105.897 37.209 105.973 37.5421C106.05 37.8751 106.014 38.2242 105.871 38.5346Z" fill="#E88524"/>
<path d="M122.021 39.1028C118.341 40.6642 116.209 40.6642 115.362 40.2413C114.515 39.8183 114.793 38.401 114.793 38.401C114.793 38.401 113.377 38.2558 112.953 37.4078C112.829 37.1662 112.764 36.8986 112.764 36.627C112.764 36.3555 112.829 36.0878 112.953 35.8463C112.559 35.7666 112.188 35.5974 111.869 35.3519C111.55 35.1064 111.292 34.791 111.114 34.4301C110.976 34.169 110.904 33.8783 110.904 33.5831C110.904 33.2879 110.976 32.9972 111.114 32.7361C110.681 32.7033 110.27 32.5345 109.94 32.2538C109.609 31.9731 109.376 31.595 109.274 31.1736C108.573 28.9104 115.932 23.0992 120.882 24.807C123.741 25.7736 125.569 30.9055 125.846 31.8753C126.176 33.3383 125.971 34.871 125.27 36.1964C124.568 37.5218 123.416 38.5527 122.021 39.1028Z" fill="#F9D2DD"/>
<path d="M116.94 29.6111L110.6 32.6017L116.94 29.6111Z" fill="#1F1F39"/>
<path d="M110.664 32.7223L117.004 29.7307C117.021 29.7229 117.036 29.7119 117.048 29.6983C117.061 29.6848 117.07 29.6689 117.076 29.6516C117.082 29.6343 117.085 29.616 117.084 29.5977C117.083 29.5794 117.079 29.5614 117.071 29.5449C117.063 29.528 117.052 29.5127 117.039 29.5002C117.025 29.4876 117.009 29.4779 116.992 29.4717C116.975 29.4655 116.956 29.4629 116.938 29.4641C116.919 29.4653 116.901 29.4703 116.885 29.4787L110.545 32.4692C110.528 32.477 110.513 32.488 110.501 32.5015C110.489 32.5151 110.479 32.531 110.473 32.5483C110.467 32.5656 110.464 32.5839 110.465 32.6022C110.466 32.6205 110.471 32.6385 110.479 32.655C110.487 32.6798 110.503 32.701 110.525 32.7154C110.546 32.7297 110.572 32.7363 110.598 32.734C110.621 32.7365 110.644 32.7325 110.664 32.7223Z" fill="#1F1F39"/>
<path d="M118.766 33.0128L112.954 35.8453L118.766 33.0128Z" fill="#1F1F39"/>
<path d="M113.019 35.9627L118.83 33.1324C118.847 33.1246 118.862 33.1136 118.874 33.1C118.887 33.0865 118.896 33.0706 118.902 33.0533C118.908 33.036 118.911 33.0177 118.91 32.9994C118.909 32.981 118.905 32.9631 118.897 32.9466C118.889 32.93 118.878 32.9151 118.864 32.9027C118.851 32.8904 118.835 32.8809 118.818 32.8747C118.8 32.8686 118.782 32.8659 118.764 32.8668C118.745 32.8678 118.727 32.8724 118.711 32.8803L112.901 35.7139C112.884 35.7217 112.869 35.7327 112.857 35.7462C112.845 35.7598 112.835 35.7757 112.829 35.793C112.823 35.8103 112.82 35.8286 112.821 35.8469C112.822 35.8652 112.827 35.8832 112.834 35.8997C112.844 35.9234 112.861 35.9436 112.882 35.9577C112.903 35.9718 112.929 35.9791 112.954 35.9787C112.977 35.9797 113 35.9742 113.019 35.9627Z" fill="#1F1F39"/>
<path d="M120.182 35.8463L114.794 38.3883L120.182 35.8463Z" fill="#1F1F39"/>
<path d="M114.858 38.5208L120.246 35.966C120.262 35.9583 120.277 35.9473 120.29 35.9337C120.302 35.9201 120.311 35.9042 120.318 35.8869C120.324 35.8696 120.326 35.8513 120.325 35.833C120.324 35.8147 120.32 35.7967 120.312 35.7802C120.304 35.7636 120.293 35.7487 120.28 35.7364C120.266 35.724 120.25 35.7145 120.233 35.7083C120.215 35.7022 120.197 35.6995 120.179 35.7005C120.161 35.7014 120.143 35.706 120.126 35.714L114.739 38.2698C114.722 38.2776 114.707 38.2886 114.695 38.3022C114.683 38.3158 114.673 38.3316 114.667 38.3489C114.661 38.3662 114.658 38.3845 114.659 38.4028C114.66 38.4212 114.665 38.4391 114.673 38.4556C114.682 38.4793 114.699 38.4995 114.72 38.5136C114.742 38.5277 114.767 38.5351 114.792 38.5347C114.815 38.5365 114.838 38.5317 114.858 38.5208Z" fill="#1F1F39"/>
<path d="M97.6654 60.625L100.498 55.0925L97.6654 60.625Z" fill="#1F1F39"/>
<path d="M97.7963 60.6795L100.629 55.1599C100.639 55.1438 100.645 55.1256 100.647 55.1068C100.649 55.0879 100.647 55.0689 100.64 55.051C100.634 55.0331 100.624 55.017 100.61 55.0036C100.597 54.9903 100.58 54.9802 100.562 54.9741C100.546 54.964 100.528 54.9578 100.509 54.9558C100.491 54.9537 100.471 54.956 100.454 54.9623C100.436 54.9687 100.42 54.979 100.406 54.9925C100.393 55.006 100.383 55.0223 100.377 55.0403L97.5495 60.5599C97.5395 60.576 97.5333 60.5942 97.5312 60.613C97.5292 60.6319 97.5315 60.651 97.5378 60.6688C97.5442 60.6867 97.5545 60.7029 97.568 60.7162C97.5815 60.7295 97.5978 60.7396 97.6158 60.7458C97.6286 60.7586 97.6425 60.7586 97.6692 60.7586C97.6955 60.7582 97.7213 60.7506 97.7437 60.7367C97.7661 60.7228 97.7842 60.703 97.7963 60.6795Z" fill="#1F1F39"/>
<path d="M29.2689 49.5876C20.2151 58.6553 18.785 65.5122 16.7995 72.1308C14.814 78.7495 14.1657 92.1983 14.1657 92.1983H41.4072L51.904 38.6797C51.904 38.6797 38.3227 40.5199 29.2689 49.5876Z" fill="#F9ACC0"/>
<path d="M91.1917 92.2111L32.0745 92.2111L32.8157 66.4403H16.8121C16.8121 66.4403 21.9035 50.5799 33.8079 43.0747C45.7123 35.5696 58.8001 34.744 67.3775 36.9869C83.1023 41.0882 95.7053 50.7251 95.7053 50.7251L93.2957 74.5126L86.9024 71.8126L91.1917 92.2111Z" fill="#F99A3D"/>
<path d="M43.9876 65.445L37.7534 46.185C37.7534 46.185 55.8749 49.7191 67.6298 72.1032C73.1099 82.5209 73.1762 88.6493 71.6798 92.2102H32.0618L32.6973 70.0515L43.9876 65.445Z" fill="#E88524"/>
<path d="M93.1367 74.4442L87.0745 71.8906L84.069 62.1618L93.1367 74.4442Z" fill="#E88524"/>
<path d="M74.1323 47.4026C74.1268 47.6277 74.0732 47.849 73.975 48.0517C73.8768 48.2543 73.7363 48.4336 73.563 48.5774C73.2191 48.8978 72.7951 49.0933 72.4384 49.3849C72.2455 49.523 72.0892 49.706 71.9831 49.9182C71.877 50.1304 71.8243 50.3653 71.8296 50.6024C71.8466 50.8543 71.9319 51.0968 72.0764 51.3038C72.221 51.5108 72.4192 51.6745 72.6498 51.7773C72.9008 51.8969 72.6765 52.2536 72.4362 52.1479C72.224 52.049 72.0333 51.9093 71.8752 51.7367C71.717 51.5641 71.5944 51.362 71.5145 51.142C71.4345 50.9219 71.3987 50.6883 71.4092 50.4544C71.4196 50.2205 71.4761 49.991 71.5754 49.779C71.8124 49.3502 72.1655 48.997 72.5943 48.76C73.0064 48.5478 73.3572 48.2334 73.6132 47.8469C73.9048 47.3129 73.5342 46.8141 73.186 46.4178C73.0055 46.2245 73.3099 45.9201 73.4818 46.1316C73.8277 46.4757 74.0554 46.9207 74.1323 47.4026Z" fill="white"/>
<path d="M75.3465 60.8119C74.9631 61.1034 74.5124 61.3021 74.1556 61.6321C73.9658 61.8002 73.8369 62.0264 73.789 62.2754C73.741 62.5244 73.7768 62.7823 73.8908 63.0088C74.2403 63.5868 74.7579 64.0443 75.3743 64.3204C75.4234 64.3487 75.4593 64.3954 75.474 64.4502C75.4887 64.505 75.4811 64.5633 75.4528 64.6125C75.4245 64.6616 75.3778 64.6975 75.323 64.7122C75.2682 64.727 75.2098 64.7193 75.1607 64.691C74.5974 64.4183 74.1011 64.0248 73.7071 63.5386C73.5302 63.3111 73.4132 63.0429 73.3669 62.7585C73.3206 62.4741 73.3465 62.1827 73.4422 61.9109C73.8523 60.9496 75.0838 60.7862 75.5996 59.9126C75.7539 59.6556 75.8462 59.3662 75.8691 59.0674C75.8921 58.7685 75.8452 58.4684 75.7321 58.1909C75.7078 58.1409 75.7024 58.0839 75.7169 58.0303C75.7314 57.9767 75.7649 57.9301 75.8111 57.8993C75.8355 57.883 75.863 57.8718 75.8918 57.8666C75.9207 57.8614 75.9503 57.8621 75.9789 57.8688C76.0074 57.8755 76.0343 57.8881 76.0578 57.9056C76.0813 57.9232 76.101 57.9454 76.1155 57.9709C76.3225 58.4624 76.3592 59.0089 76.2198 59.5237C76.0805 60.0384 75.7731 60.4919 75.3465 60.8119Z" fill="white"/>
<path d="M90.5563 56.6944C90.6185 56.3069 90.6007 55.9107 90.504 55.5303C90.2391 54.8553 89.3793 54.8158 88.7695 54.9738C88.1073 55.1597 87.4056 55.6488 86.7049 55.3572C86.4211 55.2084 86.1755 54.996 85.9873 54.7367C85.7991 54.4773 85.6733 54.178 85.6198 53.862C85.5383 53.5071 85.5278 53.1396 85.589 52.7807C85.6503 52.4218 85.782 52.0785 85.9765 51.7708C86.1218 51.5454 86.4924 51.7579 86.3471 51.9844C86.1786 52.2464 86.0635 52.5391 86.0086 52.8458C85.9536 53.1525 85.9597 53.4669 86.0267 53.7712C86.1592 54.3533 86.5693 55.0817 87.2582 55.0155C87.6172 54.9452 87.9652 54.8274 88.2931 54.6652C88.633 54.5288 88.995 54.4564 89.3612 54.4515C89.6843 54.4392 90.0037 54.5243 90.278 54.6957C90.5522 54.8671 90.7686 55.1169 90.8991 55.4128C91.0122 55.8167 91.0398 56.2397 90.9803 56.6549C90.944 57.1105 90.8686 57.5622 90.755 58.0049C90.7356 58.0532 90.6993 58.0927 90.6529 58.1162C90.6065 58.1396 90.5532 58.1453 90.5029 58.1322C90.4525 58.1191 90.4087 58.0881 90.3796 58.045C90.3506 58.0019 90.3382 57.9497 90.3448 57.8981C90.4484 57.5034 90.5191 57.1008 90.5563 56.6944Z" fill="white"/>
<path d="M82.9202 78.8671C82.7747 78.8369 82.6239 78.8441 82.482 78.888C82.34 78.9319 82.2115 79.011 82.1085 79.1181C81.8436 79.3317 81.6054 79.5677 81.3405 79.7802C81.0659 79.9943 80.7736 80.1847 80.4669 80.3495C79.8626 80.6838 79.1746 80.8366 78.4857 80.7895C77.8744 80.7212 77.3055 80.4439 76.875 80.0045C76.634 79.7687 76.4529 79.4786 76.347 79.1584C76.2411 78.8382 76.2134 78.4974 76.2663 78.1643C76.3197 77.8994 76.7298 78.0052 76.6764 78.2839C76.6399 78.5726 76.6773 78.8658 76.7853 79.1359C76.8933 79.4061 77.0683 79.6444 77.2937 79.8283C77.5298 80.0382 77.8073 80.1961 78.1083 80.292C78.4093 80.3879 78.7271 80.4195 79.041 80.3848C79.7287 80.2949 80.381 80.0273 80.9336 79.6083C81.4676 79.2249 81.913 78.5894 82.5752 78.4569C82.7365 78.4247 82.9033 78.4332 83.0606 78.4817C83.2178 78.5302 83.3604 78.6171 83.4755 78.7346C83.5923 78.8414 83.67 78.9841 83.6963 79.14C83.7227 79.296 83.6961 79.4563 83.6208 79.5955C83.5897 79.6457 83.5403 79.6819 83.4831 79.6965C83.4258 79.7111 83.3652 79.703 83.3138 79.6738C83.2624 79.6447 83.2243 79.5968 83.2075 79.5402C83.1906 79.4835 83.1964 79.4226 83.2235 79.3701C83.3431 79.1576 83.1049 78.9461 82.9202 78.8671Z" fill="white"/>
<path d="M67.8298 64.6503C67.8823 64.951 67.8616 65.2599 67.7694 65.5509C67.6772 65.8419 67.5162 66.1063 67.3 66.3218C66.8728 66.7587 66.3206 67.0235 65.8571 67.4209C65.447 67.7786 64.9439 68.3821 65.2088 68.9567C65.447 69.4993 66.2021 69.5922 66.7179 69.526C66.7722 69.5133 66.8293 69.5212 66.8781 69.548C66.927 69.5748 66.9643 69.6187 66.9828 69.6712C67.0095 69.7641 66.9433 69.9222 66.8376 69.9361C66.5556 69.992 66.2654 69.9916 65.9837 69.9347C65.7019 69.8779 65.4342 69.7658 65.196 69.605C64.9642 69.4143 64.8056 69.1492 64.7472 68.8548C64.6888 68.5604 64.7342 68.2549 64.8756 67.9901C65.197 67.4129 65.6755 66.9385 66.2555 66.622C66.5321 66.4825 66.7777 66.2887 66.9778 66.0522C67.1778 65.8156 67.3281 65.5412 67.4197 65.2452C67.4456 64.8769 67.3889 64.5075 67.2536 64.1639C67.1184 63.8204 66.908 63.5115 66.6378 63.2598C66.452 63.0739 66.7446 62.7695 66.9294 62.9682C67.3877 63.4287 67.7007 64.0136 67.8298 64.6503Z" fill="white"/>
<path d="M71.0986 87.2469C70.9394 87.8952 70.3969 88.4121 70.2911 89.0871C70.2492 89.3748 70.2905 89.6684 70.4101 89.9334C70.5297 90.1984 70.7227 90.4236 70.9661 90.5824C71.2579 90.76 71.5999 90.8368 71.9396 90.8009C72.2793 90.765 72.5977 90.6184 72.8459 90.3837C73.0446 90.1979 73.3489 90.4905 73.1503 90.6881C72.9167 90.9087 72.6341 91.0707 72.3257 91.1608C72.0173 91.2508 71.6919 91.2664 71.3763 91.2061C71.0652 91.1387 70.776 90.9941 70.5354 90.7856C70.2948 90.5771 70.1106 90.3115 69.9996 90.0131C69.888 89.704 69.8502 89.373 69.8891 89.0467C69.9281 88.7203 70.0427 88.4076 70.2239 88.1334C70.415 87.8395 70.5706 87.524 70.6874 87.1935C70.7646 86.915 70.7553 86.6196 70.6607 86.3465C70.5598 86.0394 70.3703 85.769 70.1159 85.5694C69.8616 85.3699 69.5539 85.2501 69.2316 85.2251C68.9539 85.2123 68.9539 84.7882 69.2188 84.7979C69.5107 84.8164 69.7952 84.8971 70.0532 85.0347C70.3113 85.1722 70.5369 85.3634 70.715 85.5954C70.893 85.8274 71.0194 86.0948 71.0856 86.3796C71.1517 86.6645 71.1562 86.9602 71.0986 87.2469Z" fill="white"/>
<path d="M47.9059 43.2862C47.8149 43.892 47.5651 44.4628 47.1817 44.9406C46.9886 45.1822 46.781 45.4119 46.5601 45.6284C46.3517 45.8163 46.1925 46.0525 46.0966 46.3163C46.0176 46.6473 46.2953 46.8193 46.573 46.925C46.9363 47.0668 47.3267 47.1259 47.7158 47.0981C47.9935 47.0852 47.9935 47.5082 47.7158 47.5253C47.3674 47.5387 47.019 47.4983 46.683 47.4057C46.3872 47.3397 46.1134 47.1984 45.8883 46.9955C45.4387 46.5192 45.7559 45.9104 46.1137 45.5003C46.3124 45.2749 46.5409 45.0731 46.7225 44.852C46.9312 44.612 47.1069 44.3451 47.2448 44.0584C47.5145 43.5443 47.5852 42.9488 47.4434 42.3859C47.3767 42.1046 47.2391 41.845 47.0437 41.6319C46.8484 41.4188 46.6017 41.2592 46.3273 41.1683C46.2972 41.1644 46.2683 41.1542 46.2425 41.1382C46.2167 41.1223 46.1946 41.1011 46.1776 41.076C46.1606 41.0508 46.1492 41.0224 46.1441 40.9925C46.139 40.9626 46.1403 40.932 46.1479 40.9026C46.1556 40.8733 46.1694 40.8459 46.1884 40.8223C46.2075 40.7987 46.2313 40.7794 46.2584 40.7657C46.2855 40.7521 46.3151 40.7443 46.3454 40.743C46.3757 40.7417 46.406 40.7469 46.4341 40.7582C46.9359 40.9415 47.3578 41.2947 47.6266 41.7564C47.8954 42.2181 47.9942 42.7593 47.9059 43.2862Z" fill="white"/>
<path d="M61.1446 51.4932C60.4033 51.7848 60.1833 52.5612 59.9697 53.2672C59.8991 53.6647 59.7399 54.0412 59.504 54.3689C59.2681 54.6965 58.9615 54.9668 58.6069 55.1598C57.8489 55.4962 56.9898 55.5245 56.2113 55.2388C55.7769 55.0537 55.3856 54.7805 55.0621 54.4366C54.7385 54.0926 54.4898 53.6854 54.3315 53.2405C54.2386 52.9895 54.6519 52.8699 54.7416 53.1209C54.8822 53.5022 55.0984 53.8511 55.3772 54.1468C55.656 54.4424 55.9916 54.6787 56.364 54.8415C56.7336 54.9718 57.1279 55.0171 57.5175 54.974C57.9183 54.9578 58.3091 54.8441 58.656 54.6429C59.3438 54.206 59.4763 53.3324 59.7144 52.6136C59.807 52.2572 59.9841 51.9284 60.2309 51.655C60.4776 51.3817 60.7866 51.1719 61.1317 51.0436C61.5169 50.9153 61.9305 50.8994 62.3244 50.9978C62.7182 51.0961 63.0758 51.3046 63.3554 51.5989C63.5412 51.7976 63.2358 52.102 63.051 51.9033C62.8114 51.6511 62.5012 51.477 62.1611 51.4039C61.821 51.3307 61.4667 51.3618 61.1446 51.4932Z" fill="white"/>
<path d="M24.8877 51.1888C25.0409 51.3949 25.1474 51.6318 25.2 51.8832C25.2525 52.1345 25.2498 52.3943 25.1921 52.6445C25.0689 53.1747 24.9974 53.7155 24.9784 54.2594C24.9936 54.4951 25.0821 54.7201 25.2318 54.9029C25.3814 55.0857 25.5845 55.217 25.8126 55.2783C26.0714 55.3382 26.3424 55.3169 26.5888 55.2173C26.8351 55.1178 27.0448 54.9448 27.1893 54.7219C27.3495 54.4976 27.702 54.7101 27.561 54.9344C27.4305 55.1431 27.2556 55.3205 27.0488 55.4539C26.842 55.5873 26.6083 55.6735 26.3644 55.7064C26.1204 55.7392 25.8723 55.7179 25.6375 55.6439C25.4028 55.5699 25.1872 55.4451 25.0062 55.2783C24.8327 55.0839 24.7037 54.854 24.6283 54.6046C24.5528 54.3552 24.5327 54.0923 24.5694 53.8343C24.694 53.264 24.7737 52.6847 24.8076 52.1019C24.7809 51.6384 24.3974 51.0168 23.8463 51.1888C23.5814 51.2817 23.4629 50.8684 23.7267 50.7786C23.9391 50.7243 24.1628 50.7343 24.3695 50.8073C24.5762 50.8803 24.7565 51.0131 24.8877 51.1888Z" fill="white"/>
<path d="M63.157 40.3342C61.5479 41.0534 59.8203 41.4708 58.0603 41.5657C55.4774 41.9081 52.8624 41.2342 50.7667 39.6859C49.9874 39.016 49.3563 38.191 48.9136 37.2636C48.794 37.0254 49.1646 36.8001 49.2842 37.05C49.6597 37.8235 50.1655 38.5266 50.7795 39.1284C51.5237 39.821 52.4086 40.3448 53.3738 40.6643C54.6828 41.0734 56.0539 41.2481 57.4238 41.1801C59.135 41.154 60.8285 40.8286 62.4276 40.2189C64.1499 39.5166 65.6731 38.4016 66.8631 36.972C67.0084 36.7467 67.3128 37.0521 67.1408 37.2636C66.0572 38.5701 64.6963 39.619 63.157 40.3342Z" fill="white"/>
<path d="M93.2434 55.4108C93.0448 56.7875 92.8333 58.1503 92.6475 59.527C92.4883 60.6922 92.3431 61.8564 92.2106 63.0345C92.0654 64.3716 91.9191 65.6949 91.8005 67.0321L91.2847 72.6308C91.258 72.9224 91.2312 73.2001 91.2056 73.4917C91.1789 73.7565 90.756 73.7694 90.7784 73.4917C90.9504 71.5329 91.1223 69.5741 91.3124 67.6281C91.4449 66.2396 91.5773 64.8512 91.7396 63.4627C91.8721 62.2879 92.0173 61.1066 92.1765 59.9382C92.3623 58.5882 92.5471 57.251 92.7457 55.901L93.5745 50.3408C93.6141 50.0502 93.6536 49.7715 93.707 49.481C93.7198 49.3614 93.865 49.308 93.9708 49.3347C93.9973 49.341 94.0223 49.3526 94.0442 49.3688C94.0661 49.3851 94.0844 49.4056 94.0981 49.4292C94.1118 49.4528 94.1206 49.4789 94.1238 49.506C94.1271 49.5331 94.1248 49.5606 94.1171 49.5867C93.8255 51.5327 93.534 53.4776 93.2434 55.4108Z" fill="white"/>
<path d="M85.7918 68.0788C85.5536 67.9592 85.7651 67.5886 86.0054 67.7082C87.804 68.6342 89.5909 69.5612 91.3884 70.4872C91.6265 70.6197 91.4151 70.9775 91.1748 70.8578C89.3783 69.9276 87.5915 69.0048 85.7918 68.0788Z" fill="white"/>
<path d="M24.4903 63.6881H18.2818C18.2251 63.6881 18.1708 63.6656 18.1308 63.6256C18.0907 63.5855 18.0682 63.5312 18.0682 63.4745C18.0682 63.4179 18.0907 63.3635 18.1308 63.3235C18.1708 63.2834 18.2251 63.2609 18.2818 63.2609L29.0306 63.2609C29.0872 63.2609 29.1416 63.2834 29.1816 63.3235C29.2217 63.3635 29.2442 63.4179 29.2442 63.4745C29.2442 63.5312 29.2217 63.5855 29.1816 63.6256C29.1416 63.6656 29.0872 63.6881 29.0306 63.6881H24.4903Z" fill="white"/>
<path d="M17.1423 83.8313L22.9535 81.1441C22.9704 81.1366 22.9856 81.1258 22.9982 81.1123C23.0108 81.0988 23.0205 81.0828 23.0267 81.0654C23.0329 81.048 23.0355 81.0295 23.0343 81.0111C23.0331 80.9927 23.0281 80.9747 23.0197 80.9582C23.0123 80.9413 23.0015 80.9261 22.988 80.9135C22.9745 80.9009 22.9585 80.8912 22.9411 80.885C22.9237 80.8788 22.9052 80.8763 22.8868 80.8775C22.8683 80.8787 22.8504 80.8836 22.8339 80.892L17.0237 83.5803C17.0075 83.5877 16.9929 83.5983 16.9808 83.6115C16.9687 83.6246 16.9593 83.64 16.9531 83.6568C16.947 83.6735 16.9442 83.6914 16.945 83.7092C16.9457 83.7271 16.95 83.7446 16.9575 83.7608C16.97 83.785 16.989 83.8053 17.0124 83.8193C17.0358 83.8333 17.0627 83.8404 17.09 83.8398C17.1167 83.8451 17.1295 83.8451 17.1423 83.8313Z" fill="#1F1F39"/>
<path d="M50.5817 92.1567C49.4932 92.1551 48.4056 92.0977 47.3231 91.9847C43.623 91.4699 40.0308 90.3586 36.6864 88.6941C32.5178 86.798 28.8793 83.9059 26.0914 80.2726C23.5741 76.9543 22.1091 72.9577 21.8855 68.7986C21.7863 66.6861 22.2158 64.5822 23.1351 62.6776C24.4168 60.2799 26.6383 59.5803 28.6013 58.9598C29.7683 58.732 30.8497 58.1865 31.7264 57.3834C32.4666 56.4947 32.0597 55.2334 31.5876 53.7734C31.0002 51.9577 30.3337 49.8921 31.6207 47.8799C32.505 46.4829 34.4777 45.7748 37.4885 45.7748C39.2583 45.7748 41.906 46.7649 45.1464 48.6371C47.8864 50.2448 50.5003 52.0582 52.9655 54.0617C56.9803 57.33 65.8889 68.1599 66.2285 79.0539C66.3557 80.6574 66.1495 82.2698 65.6229 83.7896C65.0963 85.3093 64.2606 86.7036 63.1686 87.8845C61.6277 89.4121 59.7324 90.5342 57.6521 91.1506C55.3614 91.8489 52.9763 92.1883 50.5817 92.1567ZM37.7523 57.7283C37.1292 57.7283 36.52 57.9131 36.0019 58.2593C35.4838 58.6055 35.0799 59.0976 34.8414 59.6733C34.603 60.249 34.5406 60.8826 34.6622 61.4937C34.7837 62.1049 35.0838 62.6663 35.5244 63.107C35.9651 63.5476 36.5265 63.8477 37.1377 63.9692C37.7488 64.0908 38.3823 64.0284 38.9581 63.79C39.5338 63.5515 40.0259 63.1476 40.3721 62.6295C40.7183 62.1114 40.9031 61.5022 40.9031 60.8791C40.9022 60.0437 40.57 59.2428 39.9793 58.6521C39.3886 58.0614 38.5877 57.7292 37.7523 57.7283Z" fill="white"/>
<path d="M54.9635 65.0209C54.407 63.2469 52.5283 62.5858 51.5351 64.0276C51.1752 64.5685 51.0389 65.2278 51.1548 65.8671C51.2707 66.5064 51.6298 67.0759 52.1567 67.456C52.6575 67.7848 53.2532 67.9385 53.8506 67.8929C54.3072 67.5851 54.6586 67.1449 54.8576 66.6315C55.0565 66.118 55.0935 65.556 54.9635 65.0209Z" fill="#F99A3D"/>
<path d="M56.5004 74.1944C55.2828 74.0876 54.9517 74.1944 54.6206 75.0809C54.2895 75.9674 55.3843 76.8549 56.7215 76.9606C57.3127 77.0066 57.9014 76.8438 58.385 76.5005C58.8685 76.1572 59.2164 75.6553 59.3681 75.0819C59.7045 73.969 59.3681 73.0965 58.2701 73.3079C58.0857 73.6046 57.8228 73.8445 57.5104 74.001C57.198 74.1574 56.8485 74.2244 56.5004 74.1944Z" fill="#3C82F5"/>
<path d="M48.9782 81.2637C46.6616 81.7005 43.0089 80.7072 42.7836 79.1586C42.5582 77.6099 43.4457 77.7156 44.6633 77.5042C45.9559 77.2643 47.1485 76.647 48.0907 75.7301C48.3651 75.4628 48.7048 75.2719 49.0758 75.1764C49.4469 75.0809 49.8365 75.0842 50.2059 75.1859C50.5753 75.2877 50.9117 75.4843 51.1816 75.7562C51.4515 76.0282 51.6455 76.3661 51.7444 76.7362C51.9388 77.2143 52.0182 77.7313 51.9764 78.2457C51.9345 78.7601 51.7726 79.2574 51.5035 79.6978C51.2344 80.1382 50.8658 80.5093 50.4272 80.7812C49.9886 81.0532 49.4923 81.2184 48.9782 81.2637Z" fill="#BEE3C5"/>
<path d="M35.6086 73.639C32.1802 73.0826 32.286 71.5339 32.961 71.0971C33.636 70.6602 35.3961 71.0971 35.8329 70.5406C36.2698 69.9842 39.0242 68.6619 39.6992 70.9924C40.3742 73.3229 39.0371 74.1955 35.6086 73.639Z" fill="#DA5742"/>
<path d="M49.7199 0.569872C45.5107 2.35671 44.4117 5.05565 42.863 9.95477C41.3144 14.8539 41.6316 17.5261 39.6728 21.3252C38.6974 23.4451 36.9716 25.1287 34.8281 26.0512C34.8281 26.0512 38.6005 31.306 57.1855 30.4858C75.386 29.6911 81.4621 18.8505 81.4621 18.8505C81.4621 18.8505 75.1745 17.6062 73.0961 13.3042C71.0177 9.00207 68.5164 1.31109 63.2477 0.22596C57.979 -0.859171 56.4966 2.31719 56.4966 2.31719C55.7275 1.30701 54.6407 0.58525 53.4113 0.268258C52.1819 -0.0487356 50.8815 0.0575131 49.7199 0.569872Z" fill="#1F1F39"/>
<path d="M68.5428 24.1181C68.0833 25.4139 67.3197 26.5806 66.3162 27.5203C65.3127 28.4601 64.0985 29.1456 62.7754 29.5192C62.7754 29.5192 62.989 32.4841 63.4376 34.9993L63.8872 37.5146C63.2166 38.4489 62.3225 39.2001 61.2866 39.6996C60.2507 40.1991 59.1061 40.4309 57.9574 40.3737C53.8145 40.3075 51.908 38.6798 51.908 38.6798C51.908 38.6798 51.9209 35.2514 51.6036 31.4395C51.2864 27.6277 50.7834 24.6884 50.7834 24.6884C50.7834 24.6884 44.6154 24.4374 44.0462 19.658C43.5431 15.5417 47.6861 15.515 48.7317 15.9518C49.7773 16.3887 49.7997 16.5339 49.7997 16.5339C50.0746 17.5182 50.4286 18.4786 50.8581 19.4059C51.0695 19.928 51.421 20.3815 51.8739 20.7164C51.3747 19.1786 51.0872 17.58 51.0194 15.9647C51.0167 14.8833 51.1773 13.8078 51.4958 12.7744L52.645 15.1967L59.9258 14.0315L60.0839 10.5903L61.6465 14.1148L68.6485 13.1215C68.6485 13.1215 70.1438 19.6441 68.5428 24.1181Z" fill="#F9D2DD"/>
<path d="M50.7789 24.6873C50.3521 24.6568 49.9276 24.5993 49.508 24.5154C49.4093 23.7953 49.2666 23.0819 49.0808 22.3793C48.6515 21.0234 48.1309 19.6981 47.5225 18.4126C48.5524 19.0172 49.388 19.9036 49.9309 20.9673C50.3714 22.152 50.6564 23.3888 50.7789 24.6467C50.8443 24.9572 50.8928 25.2709 50.9242 25.5866C50.8452 25.0174 50.7789 24.6873 50.7789 24.6873Z" fill="#F9ACC0"/>
<path d="M50.5399 22.2918C50.5578 22.2855 50.5742 22.2755 50.5881 22.2625C50.602 22.2495 50.613 22.2338 50.6204 22.2163C50.6278 22.1988 50.6316 22.1799 50.6313 22.1609C50.6311 22.1419 50.6268 22.1232 50.6189 22.1059C50.2687 21.1233 49.7639 20.2028 49.1237 19.3792C48.7239 18.893 48.2226 18.5001 47.6551 18.2279C47.6199 18.2149 47.5811 18.2159 47.5465 18.2305C47.512 18.2452 47.4844 18.2725 47.4693 18.3069C47.4563 18.3421 47.4573 18.3809 47.472 18.4155C47.4867 18.45 47.514 18.4776 47.5483 18.4927C48.0721 18.7503 48.5366 19.114 48.9122 19.5608C49.5261 20.3584 50.0085 21.249 50.3412 22.1988C50.3513 22.2296 50.3707 22.2564 50.3967 22.2756C50.4228 22.2947 50.4542 22.3052 50.4865 22.3056C50.5052 22.3061 50.5237 22.3013 50.5399 22.2918Z" fill="#1F1F39"/>
<path d="M66.4761 15.5278C66.2495 15.3704 65.9719 15.3041 65.6986 15.3419C65.4262 15.3622 65.165 15.4584 64.9446 15.6196C64.8366 15.701 64.7501 15.8074 64.6925 15.9297C64.6348 16.0519 64.6077 16.1863 64.6135 16.3213C64.6984 16.1038 64.8552 15.9217 65.0578 15.8055C65.2605 15.7039 65.4803 15.6409 65.7061 15.6196C65.9276 15.5959 66.1515 15.6278 66.3576 15.7126C66.571 15.8195 66.7499 15.9846 66.8734 16.1889C66.857 16.0571 66.8132 15.9302 66.7448 15.8163C66.6763 15.7024 66.5848 15.6041 66.4761 15.5278Z" fill="#1F1F39"/>
<path d="M57.7405 16.2296C57.5032 16.0989 57.2274 16.0566 56.9619 16.1099C56.8265 16.128 56.6961 16.173 56.5784 16.2424C56.4597 16.3086 56.356 16.3988 56.274 16.5073C56.1063 16.7079 56.0128 16.9603 56.0092 17.2218C56.114 17.0103 56.2592 16.8213 56.4364 16.6653C56.5128 16.5915 56.6027 16.5332 56.7013 16.4934C56.7547 16.4806 56.7942 16.4539 56.8465 16.44L57.0056 16.4005C57.2198 16.3621 57.44 16.376 57.6475 16.441C57.8757 16.5024 58.0821 16.6263 58.2435 16.7988C58.1565 16.5507 57.976 16.3465 57.7405 16.2296Z" fill="#1F1F39"/>
<path d="M62.3217 18.4521C62.4623 18.7577 62.5604 19.0811 62.6132 19.4133C62.6244 19.494 62.6287 19.5755 62.6261 19.6569C62.6195 19.7332 62.6051 19.8087 62.5833 19.8822C62.5489 20.0222 62.4641 20.1447 62.3452 20.2261C62.2087 20.3094 62.0562 20.3629 61.8977 20.3831C61.7273 20.4118 61.5542 20.4207 61.3818 20.4098C61.5511 20.4801 61.7325 20.5163 61.9158 20.5166C62.1082 20.5217 62.299 20.4807 62.4723 20.397C62.6542 20.2985 62.79 20.1324 62.8503 19.9345C62.8808 19.8405 62.8988 19.7428 62.9037 19.644C62.9061 19.5467 62.9018 19.4492 62.8909 19.3525C62.8295 18.9933 62.7039 18.6482 62.5203 18.3335C62.3486 18.0304 62.1394 17.7502 61.8977 17.4994C62.0429 17.8198 62.1892 18.1349 62.3217 18.4521Z" fill="#1F1F39"/>
<path d="M66.456 18.7464C66.5138 18.4783 66.4642 18.1981 66.3179 17.966C66.1716 17.734 65.9402 17.5685 65.6732 17.505C65.3988 17.5028 65.1343 17.6082 64.9367 17.7988C64.7391 17.9893 64.6241 18.2497 64.6163 18.5241C64.5585 18.7925 64.6082 19.0728 64.7547 19.3049C64.9012 19.537 65.1329 19.7024 65.4001 19.7656C65.6744 19.7676 65.9386 19.662 66.136 19.4715C66.3333 19.2809 66.4482 19.0207 66.456 18.7464Z" fill="#1F1F39"/>
<path d="M58.1057 19.3199C58.1635 19.0518 58.1139 18.7716 57.9676 18.5395C57.8213 18.3075 57.5899 18.142 57.323 18.0785C57.0485 18.0763 56.7841 18.1818 56.5864 18.3723C56.3888 18.5628 56.2738 18.8232 56.266 19.0976C56.2082 19.366 56.2579 19.6463 56.4044 19.8784C56.551 20.1105 56.7827 20.276 57.0498 20.3392C57.3241 20.3411 57.5883 20.2355 57.7857 20.045C57.9831 19.8545 58.098 19.5942 58.1057 19.3199Z" fill="#1F1F39"/>
<path d="M62.7976 29.6645C62.7976 29.6645 62.9792 32.3121 63.4064 34.7601C62.1467 34.8743 60.8812 34.6166 59.7665 34.0189C55.8083 32.3346 55.4249 29.9849 55.4249 29.9849C57.8378 30.7916 60.4638 30.6775 62.7976 29.6645Z" fill="#F9ACC0"/>
<path d="M60.8377 22.6751C60.6003 22.6415 60.3687 22.5747 60.1499 22.4765C59.9272 22.3743 59.7144 22.2517 59.5144 22.1102C59.3008 21.951 59.0776 21.7791 58.8266 21.5761C58.8262 21.902 58.9245 22.2204 59.1086 22.4893C59.2969 22.7717 59.5639 22.9926 59.8765 23.1248C60.0383 23.189 60.2072 23.2334 60.3795 23.2572C60.5524 23.277 60.7275 23.2636 60.8954 23.2177C61.0559 23.1827 61.2075 23.1153 61.341 23.0196C61.4746 22.9239 61.5871 22.802 61.6719 22.6613C61.3953 22.6986 61.1154 22.7032 60.8377 22.6751Z" fill="#DA5742"/>
<path d="M59.6204 30.4719C60.7692 30.3723 61.9021 30.1367 62.9954 29.7702C63.0133 29.7639 63.0297 29.7539 63.0436 29.7409C63.0575 29.7279 63.0685 29.7122 63.0759 29.6947C63.0833 29.6772 63.0871 29.6584 63.0868 29.6394C63.0865 29.6203 63.0823 29.6016 63.0744 29.5843C63.0681 29.5664 63.0582 29.55 63.0452 29.5361C63.0322 29.5223 63.0164 29.5113 62.9989 29.5038C62.9815 29.4964 62.9626 29.4927 62.9436 29.4929C62.9246 29.4932 62.9059 29.4974 62.8886 29.5053C61.8116 29.8456 60.7019 30.0719 59.5777 30.1803C58.2443 30.3355 56.8932 30.214 55.6088 29.8236C55.5736 29.8106 55.5348 29.8116 55.5002 29.8263C55.4657 29.8409 55.4381 29.8682 55.423 29.9026C55.41 29.9378 55.411 29.9767 55.4257 30.0112C55.4403 30.0457 55.4676 30.0734 55.502 30.0884C56.4558 30.396 57.453 30.5478 58.4551 30.5381C58.8258 30.5381 59.2102 30.5114 59.6204 30.4719Z" fill="#1F1F39"/>
<path d="M57.372 23.123C57.4841 22.1941 56.346 21.2929 54.8287 21.1098C53.3113 20.9267 51.9915 21.5313 51.8794 22.4601C51.7673 23.389 52.9064 24.2913 54.4227 24.4743C55.939 24.6573 57.2598 24.0529 57.372 23.123Z" fill="#F9ACC0"/>
<path d="M66.9544 19.7498C67.7494 19.6252 68.563 19.7796 69.2571 20.1866C69.2204 20.9913 69.1229 21.7921 68.9656 22.5822C68.4705 22.8726 67.9207 23.0574 67.3507 23.1248C65.8394 23.2967 64.5182 22.6879 64.4125 21.762C64.3068 20.836 65.4314 19.9217 66.9544 19.7498Z" fill="#F9ACC0"/>
<path d="M33.794 77.9666C35.7806 78.1097 35.9119 80.4423 35.9119 80.4423C36.7687 80.1997 37.6866 80.3044 38.4667 80.7339C39.6052 81.4623 39.3136 83.6465 39.3136 83.6465C39.7803 83.7612 40.2088 83.9963 40.5564 84.3281C40.904 84.66 41.1586 85.0771 41.2949 85.538C41.9966 87.2853 39.0445 90.6998 33.3657 91.9847C27.6869 93.2695 23.7341 90.9391 22.1769 87.7221C20.6197 84.5052 21.1836 82.321 20.059 79.2504C19.4248 77.775 18.5121 76.4358 17.3707 75.3061C17.1767 74.992 17.0727 74.6306 17.0701 74.2613C17.0675 73.8921 17.1664 73.5293 17.356 73.2125C17.5455 72.8956 17.8185 72.6369 18.145 72.4646C18.4716 72.2924 18.8392 72.2131 19.2077 72.2355C21.6172 72.2355 24.1581 74.1281 25.7228 76.0345C26.6577 77.1837 27.2893 78.549 27.5598 80.0055C27.5598 80.0055 31.8085 77.8213 33.794 77.9666Z" fill="#F9D2DD"/>
<path d="M33.4372 86.7033L39.3808 83.9232C39.3974 83.9154 39.4123 83.9044 39.4247 83.8908C39.437 83.8772 39.4465 83.8613 39.4527 83.844C39.4588 83.8268 39.4615 83.8084 39.4605 83.7901C39.4596 83.7718 39.455 83.7538 39.447 83.7373C39.4392 83.7207 39.4282 83.7058 39.4147 83.6935C39.4011 83.6811 39.3852 83.6716 39.3679 83.6655C39.3506 83.6593 39.3323 83.6566 39.314 83.6576C39.2957 83.6586 39.2777 83.6632 39.2612 83.6711L33.3175 86.448C33.3009 86.4558 33.286 86.4668 33.2737 86.4804C33.2614 86.494 33.2518 86.5098 33.2457 86.5271C33.2395 86.5444 33.2368 86.5627 33.2378 86.581C33.2388 86.5994 33.2434 86.6173 33.2513 86.6338C33.2616 86.6582 33.2788 86.679 33.3009 86.6936C33.3229 86.7083 33.3488 86.7161 33.3752 86.7161C33.3966 86.7174 33.418 86.713 33.4372 86.7033Z" fill="#1F1F39"/>
<path d="M29.8901 83.1958L35.8327 80.4157C35.8493 80.4079 35.8642 80.3969 35.8765 80.3833C35.8889 80.3697 35.8984 80.3538 35.9046 80.3366C35.9107 80.3193 35.9134 80.3009 35.9124 80.2826C35.9115 80.2643 35.9069 80.2464 35.8989 80.2298C35.8911 80.2132 35.8801 80.1983 35.8666 80.186C35.853 80.1736 35.8371 80.1641 35.8198 80.158C35.8025 80.1518 35.7842 80.1491 35.7659 80.1501C35.7476 80.1511 35.7296 80.1557 35.7131 80.1636L29.7694 82.9405C29.7528 82.9483 29.7379 82.9593 29.7256 82.9729C29.7132 82.9865 29.7037 83.0024 29.6976 83.0196C29.6914 83.0369 29.6887 83.0552 29.6897 83.0736C29.6907 83.0919 29.6953 83.1098 29.7032 83.1264C29.7108 83.1525 29.7275 83.1751 29.7501 83.1901C29.7728 83.2052 29.8001 83.2117 29.8271 83.2086C29.8489 83.2102 29.8707 83.2057 29.8901 83.1958Z" fill="#1F1F39"/>
<path d="M26.4225 74.6055C27.0274 76.269 27.5009 77.9775 27.8387 79.715L23.8677 82.3488L21.8822 72.9639C21.9089 72.9639 21.9217 72.9639 21.9356 72.9768L26.4225 74.6055Z" fill="#F9ACC0"/>
<path d="M83.7799 61.1952L86.9039 71.8115L83.7799 61.1952Z" fill="#1F1F39"/>
<path d="M86.9436 71.9632C86.9613 71.9585 86.9778 71.9502 86.9921 71.9388C87.0065 71.9275 87.0184 71.9133 87.0271 71.8972C87.0358 71.8812 87.0411 71.8635 87.0427 71.8452C87.0443 71.827 87.0422 71.8087 87.0365 71.7913L83.9253 61.1696C83.9206 61.1519 83.9123 61.1354 83.9009 61.1211C83.8896 61.1067 83.8754 61.0948 83.8593 61.0861C83.8432 61.0774 83.8255 61.0721 83.8073 61.0705C83.7891 61.0689 83.7707 61.071 83.7534 61.0767C83.7357 61.0814 83.7192 61.0897 83.7048 61.1011C83.6905 61.1124 83.6786 61.1266 83.6699 61.1427C83.6612 61.1587 83.6559 61.1764 83.6543 61.1947C83.6526 61.2129 83.6547 61.2312 83.6604 61.2486L86.7706 71.865C86.7781 71.894 86.7954 71.9196 86.8195 71.9375C86.8436 71.9553 86.873 71.9644 86.903 71.9632H86.9436Z" fill="#1F1F39"/>
<path d="M88.6401 41.9618C88.6322 41.9349 88.6297 41.9067 88.6328 41.8788C88.6358 41.8509 88.6443 41.8239 88.6578 41.7993C88.6713 41.7747 88.6895 41.753 88.7114 41.7355C88.7333 41.7179 88.7584 41.7048 88.7853 41.697C88.8391 41.6856 88.8952 41.6941 88.9432 41.721C88.9911 41.748 89.0277 41.7914 89.0459 41.8433C89.1527 42.1477 89.2713 42.4521 89.377 42.7437C89.3849 42.7706 89.3873 42.7988 89.3843 42.8267C89.3812 42.8546 89.3727 42.8816 89.3592 42.9062C89.3458 42.9308 89.3276 42.9525 89.3057 42.97C89.2838 42.9876 89.2587 43.0007 89.2318 43.0085C89.2051 43.0177 89.1768 43.0212 89.1487 43.0189C89.1205 43.0167 89.0932 43.0086 89.0683 42.9953C89.0435 42.9819 89.0216 42.9636 89.0042 42.9415C88.9867 42.9193 88.974 42.8938 88.9669 42.8665C88.8611 42.5578 88.7469 42.2534 88.6401 41.9618Z" fill="white"/>
<path d="M50.5817 92.554C49.4932 92.5524 48.4056 92.4951 47.3231 92.3821C43.623 91.8673 40.0308 90.756 36.6864 89.0914C32.5178 87.1953 28.8793 84.3032 26.0914 80.6699C23.5741 77.3516 22.1091 73.355 21.8855 69.1959C21.7863 67.0834 22.2158 64.9795 23.1351 63.075C24.4168 60.6772 26.6383 59.9776 28.6013 59.3571C29.7683 59.1293 30.8497 58.5838 31.7264 57.7807C32.4666 56.8921 32.0597 55.6307 31.5876 54.1707C31.0002 52.355 30.3337 50.2894 31.6207 48.2772C32.505 46.8802 34.4777 46.1721 37.4885 46.1721C39.2583 46.1721 41.906 47.1622 45.1464 49.0345C47.8864 50.6421 50.5003 52.4555 52.9655 54.4591C56.9803 57.7273 65.8889 68.5572 66.2285 79.4513C66.3557 81.0547 66.1495 82.6671 65.6229 84.1869C65.0963 85.7067 64.2606 87.1009 63.1686 88.2819C61.6277 89.8094 59.7324 90.9315 57.6521 91.5479C55.3614 92.2463 52.9763 92.5856 50.5817 92.554ZM37.7523 58.1257C37.1292 58.1257 36.52 58.3104 36.0019 58.6566C35.4838 59.0029 35.0799 59.4949 34.8414 60.0707C34.603 60.6464 34.5406 61.2799 34.6622 61.8911C34.7837 62.5022 35.0838 63.0636 35.5244 63.5043C35.9651 63.9449 36.5265 64.245 37.1377 64.3666C37.7488 64.4881 38.3823 64.4257 38.9581 64.1873C39.5338 63.9488 40.0259 63.545 40.3721 63.0268C40.7183 62.5087 40.9031 61.8995 40.9031 61.2764C40.9022 60.441 40.57 59.6401 39.9793 59.0494C39.3886 58.4587 38.5877 58.1265 37.7523 58.1257Z" fill="white"/>
<path d="M50.5817 92.554C49.4932 92.5524 48.4056 92.4951 47.3231 92.3821C43.623 91.8673 40.0308 90.756 36.6864 89.0914C32.5178 87.1953 28.8793 84.3032 26.0914 80.6699C23.5741 77.3516 22.1091 73.355 21.8855 69.1959C21.7863 67.0834 22.2158 64.9795 23.1351 63.075C24.4168 60.6772 26.6383 59.9776 28.6013 59.3571C29.7683 59.1293 30.8497 58.5838 31.7264 57.7807C32.4666 56.8921 32.0597 55.6307 31.5876 54.1707C31.0002 52.355 30.3337 50.2894 31.6207 48.2772C32.505 46.8802 34.4777 46.1721 37.4885 46.1721C39.2583 46.1721 41.906 47.1622 45.1464 49.0345C47.8864 50.6421 50.5003 52.4555 52.9655 54.4591C56.9803 57.7273 65.8889 68.5572 66.2285 79.4513C66.3557 81.0547 66.1495 82.6671 65.6229 84.1869C65.0963 85.7067 64.2606 87.1009 63.1686 88.2819C61.6277 89.8094 59.7324 90.9315 57.6521 91.5479C55.3614 92.2463 52.9763 92.5856 50.5817 92.554ZM37.7523 58.1257C37.1292 58.1257 36.52 58.3104 36.0019 58.6566C35.4838 59.0029 35.0799 59.4949 34.8414 60.0707C34.603 60.6464 34.5406 61.2799 34.6622 61.8911C34.7837 62.5022 35.0838 63.0636 35.5244 63.5043C35.9651 63.9449 36.5265 64.245 37.1377 64.3666C37.7488 64.4881 38.3823 64.4257 38.9581 64.1873C39.5338 63.9488 40.0259 63.545 40.3721 63.0268C40.7183 62.5087 40.9031 61.8995 40.9031 61.2764C40.9022 60.441 40.57 59.6401 39.9793 59.0494C39.3886 58.4587 38.5877 58.1265 37.7523 58.1257Z" fill="white"/>
<path d="M54.9637 65.4183C54.4073 63.6443 52.5286 62.9832 51.5353 64.4251C51.1755 64.966 51.0392 65.6253 51.1551 66.2646C51.271 66.9038 51.6301 67.4733 52.1569 67.8535C52.6577 68.1823 53.2534 68.3359 53.8508 68.2903C54.3074 67.9826 54.6589 67.5424 54.8578 67.0289C55.0568 66.5155 55.0937 65.9534 54.9637 65.4183Z" fill="white"/>
<path d="M56.5006 74.5916C55.2831 74.4848 54.952 74.5916 54.6209 75.4781C54.2898 76.3646 55.3845 77.2521 56.7217 77.3578C57.313 77.4038 57.9016 77.241 58.3852 76.8977C58.8688 76.5544 59.2167 76.0525 59.3683 75.4791C59.7048 74.3662 59.3683 73.4937 58.2704 73.7051C58.086 74.0018 57.823 74.2417 57.5106 74.3982C57.1983 74.5546 56.8487 74.6216 56.5006 74.5916Z" fill="white"/>
<path d="M48.978 81.66C46.6614 82.0968 43.0087 81.1036 42.7833 79.5549C42.558 78.0062 43.4455 78.112 44.6631 77.9005C45.9556 77.6606 47.1482 77.0433 48.0904 76.1265C48.3649 75.8591 48.7045 75.6682 49.0756 75.5727C49.4467 75.4773 49.8363 75.4806 50.2057 75.5823C50.5751 75.684 50.9114 75.8806 51.1813 76.1526C51.4512 76.4245 51.6453 76.7624 51.7442 77.1326C51.9385 77.6107 52.018 78.1277 51.9761 78.642C51.9343 79.1564 51.7723 79.6538 51.5032 80.0941C51.2342 80.5345 50.8655 80.9056 50.4269 81.1776C49.9883 81.4495 49.492 81.6148 48.978 81.66Z" fill="white"/>
<path d="M35.6084 74.0352C32.18 73.4788 32.2857 71.9301 32.9607 71.4933C33.6357 71.0565 35.3959 71.4933 35.8327 70.9368C36.2695 70.3804 39.024 69.0582 39.699 71.3886C40.374 73.7191 39.0368 74.5917 35.6084 74.0352Z" fill="white"/>
</svg>
