<svg width="117" height="91" viewBox="0 0 117 91" fill="none" xmlns="http://www.w3.org/2000/svg">
<path d="M113.958 41.5065L84.5898 28.7136L73.1828 32.1741L92.7986 50.6332L113.958 41.5065Z" fill="#F9ACC0"/>
<path d="M16.2681 47.5564L15.6402 69.6039L22.6763 67.0453L20.4983 90.1141L82.6685 90.3699L78.4383 55.504L94.9742 50.3783L86.0011 30.1229C86.0011 30.1229 62.5815 32.238 48.1864 35.6345C41.3468 37.3514 34.6588 39.6236 28.189 42.4286C20.4983 45.6332 16.2681 47.5564 16.2681 47.5564Z" fill="#3D5CFF"/>
<path d="M36.9065 2.30698C32.8053 5.38367 32.0356 12.1778 30.3683 16.0231C28.7009 19.8684 27.9334 20.895 26.395 22.4323C25.3545 23.4004 24.069 24.0654 22.6776 24.3555C22.6776 24.3555 28.1892 33.4566 43.4437 32.6879C58.6981 31.9193 65.876 25.5101 68.5678 22.9462C70.288 21.2039 71.6011 19.1025 72.4132 16.7928C72.4132 16.7928 65.1063 16.4079 62.0307 10.2556C58.955 4.10332 55.3645 0 50.8785 0C46.3924 0 44.4692 1.7942 44.4692 1.7942C43.3211 1.05514 41.9653 0.705888 40.603 0.798258C39.2406 0.890629 37.9444 1.4197 36.9065 2.30698Z" fill="#1F1F39"/>
<path d="M15.9869 69.4888L22.6787 67.0369L22.3066 71.0528L23.7032 59.3366L15.9869 69.4888Z" fill="#224BF4"/>
<path d="M79.2211 61.9143L78.4396 55.5051L82.1315 54.3644L76.7339 45.0575L79.2211 61.9143Z" fill="#224BF4"/>
<path d="M64.4413 47.4018C64.2547 47.802 63.9384 48.1273 63.5436 48.325C63.1263 48.547 62.7664 48.8631 62.4925 49.2482C62.3647 49.4544 62.2825 49.6855 62.2511 49.9261C62.2198 50.1666 62.2401 50.411 62.3107 50.6431C62.3813 50.8752 62.5006 51.0895 62.6607 51.2718C62.8207 51.4541 63.0178 51.6001 63.2387 51.7002C63.4818 51.8153 63.6875 51.4571 63.4434 51.3409C63.2465 51.2562 63.0734 51.1244 62.9393 50.9571C62.8053 50.7898 62.7145 50.5921 62.6748 50.3815C62.6339 50.1537 62.6522 49.9193 62.728 49.7007C62.8038 49.4821 62.9345 49.2866 63.1076 49.1331C63.7355 48.5436 64.7739 48.2355 64.8762 47.2611C64.8732 46.9958 64.8159 46.7339 64.7079 46.4915C64.5999 46.2491 64.4435 46.0314 64.2483 45.8517C64.0948 45.6598 63.7995 45.9583 63.9658 46.1598C64.2483 46.5052 64.5948 46.9285 64.4413 47.4018Z" fill="white"/>
<path d="M29.2159 88.2036C29.2223 88.3608 29.1931 88.5174 29.1305 88.6618C29.0679 88.8061 28.9736 88.9345 28.8545 89.0373C28.3673 89.5245 27.701 89.7548 27.2906 90.3166C27.1371 90.5298 27.4953 90.743 27.6499 90.5213C27.9042 90.2309 28.2081 89.9879 28.5475 89.8038C28.8705 89.6104 29.1552 89.3592 29.3876 89.0629C29.4964 88.9205 29.5733 88.7564 29.613 88.5816C29.6527 88.4068 29.6544 88.2256 29.6178 88.0501C29.5081 87.6612 29.2986 87.3077 29.0102 87.0246C28.8439 86.8114 28.5486 87.1013 28.7149 87.3071C28.9658 87.5506 29.14 87.8623 29.2159 88.2036Z" fill="white"/>
<path d="M71.4141 55.9657C71.1734 56.3967 70.8127 56.7485 70.3758 56.9784C69.9534 57.1929 69.5918 57.5104 69.3246 57.9017C69.1932 58.1458 69.1298 58.4207 69.1411 58.6977C69.1523 58.9747 69.2378 59.2436 69.3886 59.4762C69.7732 60.0268 70.2945 60.4678 70.9014 60.7555C70.9489 60.7809 71.0044 60.7868 71.0562 60.7718C71.108 60.7569 71.1519 60.7223 71.1785 60.6755C71.2052 60.6287 71.2125 60.5733 71.199 60.5212C71.1855 60.469 71.1521 60.4242 71.106 60.3963C70.574 60.1531 70.1114 59.7803 69.7607 59.3121C69.6149 59.1057 69.541 58.8571 69.5503 58.6046C69.5595 58.3521 69.6514 58.1097 69.8118 57.9144C70.152 57.5983 70.531 57.3268 70.9397 57.1064C71.3637 56.8305 71.6909 56.4291 71.8758 55.9582C72.0775 55.404 72.0591 54.7936 71.8246 54.2525C71.8116 54.2284 71.7939 54.2072 71.7725 54.19C71.7512 54.1729 71.7267 54.1602 71.7003 54.1526C71.674 54.1451 71.6465 54.1429 71.6193 54.1461C71.5921 54.1493 71.5659 54.158 71.5421 54.1715C71.4934 54.1978 71.4569 54.2419 71.4402 54.2946C71.4235 54.3473 71.4279 54.4045 71.4525 54.454C71.5509 54.6949 71.5983 54.9537 71.5917 55.2138C71.5851 55.474 71.5246 55.73 71.4141 55.9657Z" fill="white"/>
<path d="M35.6893 75.834C35.7406 75.4684 35.7406 75.0974 35.6893 74.7317C35.6296 74.431 35.4757 74.1571 35.2499 73.9497C35.0241 73.7423 34.7381 73.6122 34.4334 73.5782C34.062 73.5331 33.6852 73.5724 33.3311 73.6934C33.0113 73.8 32.7032 73.9492 32.3717 74.0398C32.2181 74.0988 32.0515 74.1157 31.8892 74.0887C31.7268 74.0617 31.5747 73.9919 31.4484 73.8863C31.2219 73.6729 31.0532 73.4055 30.958 73.1092C30.8495 72.7883 30.8151 72.4469 30.8576 72.1108C30.9001 71.7748 31.0182 71.4527 31.2032 71.1689C31.344 70.9504 30.9975 70.7457 30.844 70.9632C30.5044 71.4914 30.3635 72.1231 30.4463 72.7456C30.4767 73.0599 30.5722 73.3644 30.7267 73.6397C30.8813 73.9151 31.0915 74.1552 31.344 74.3447C31.9719 74.7552 32.6766 74.3703 33.2928 74.1528C33.5851 74.0012 33.9174 73.9443 34.2435 73.9902C34.5696 74.036 34.8734 74.1823 35.1125 74.4087C35.3056 74.7557 35.369 75.16 35.2916 75.5494C35.2665 76.0043 35.1951 76.4554 35.0784 76.8958C35.0273 77.1261 35.4249 77.2423 35.4889 76.9854C35.5887 76.6081 35.6557 76.2229 35.6893 75.834Z" fill="white"/>
<path d="M73.2597 77.1421C72.5934 77.1165 72.119 77.7317 71.6446 78.1155C71.1881 78.5777 70.5944 78.8799 69.9521 78.9769C69.3098 79.0739 68.6533 78.9606 68.0807 78.6538C67.8112 78.4803 67.5961 78.2343 67.4599 77.9442C67.3238 77.654 67.2722 77.3313 67.311 77.0131C67.3632 76.7541 66.9656 76.6421 66.9144 76.898C66.8547 77.481 67.0188 78.065 67.3736 78.5315C67.7283 78.9981 68.2471 79.3124 68.8248 79.4107C69.4771 79.5142 70.1453 79.4203 70.7438 79.141C71.3499 78.8539 71.9042 78.4685 72.3844 78.0003C72.619 77.7956 72.926 77.5131 73.2597 77.5643C73.4729 77.5899 73.7981 77.834 73.6573 78.0771C73.5678 78.2903 73.9132 78.5035 74.0422 78.269C74.3364 77.7445 73.7981 77.1677 73.2597 77.1421Z" fill="white"/>
<path d="M58.4157 64.169C58.3828 64.4645 58.2782 64.7475 58.111 64.9933C57.9438 65.2391 57.719 65.4403 57.4562 65.5794C56.9009 65.8917 56.4195 66.32 56.0448 66.8353C55.8759 67.0763 55.7908 67.366 55.8023 67.66C55.8139 67.954 55.9215 68.2361 56.1087 68.4632C56.3429 68.6665 56.621 68.8128 56.9212 68.8907C57.2213 68.9685 57.5355 68.9758 57.839 68.912C57.9541 68.8992 58.0053 68.7585 57.9797 68.6561C57.9541 68.5538 57.839 68.4973 57.7217 68.5143C57.4785 68.5675 57.2258 68.5589 56.9867 68.4895C56.7477 68.42 56.5297 68.2919 56.3529 68.1167C55.968 67.6167 56.3529 66.9888 56.7249 66.6167C57.1513 66.1903 57.6993 65.9504 58.1353 65.5506C58.3588 65.3651 58.5363 65.1303 58.6539 64.8647C58.7715 64.5991 58.8261 64.3099 58.8134 64.0198C58.7329 63.3151 58.4166 62.6584 57.9157 62.1563C57.7366 61.9772 57.4552 62.2714 57.6343 62.4644C58.0995 62.9143 58.3785 63.5228 58.4157 64.169Z" fill="white"/>
<path d="M53.7506 80.384C53.8772 80.6284 53.9305 80.9042 53.9042 81.1782C53.8419 81.4973 53.72 81.8019 53.5449 82.0758C53.359 82.3615 53.2154 82.6724 53.1185 82.9991C53.0457 83.2987 53.0501 83.612 53.1313 83.9095C53.207 84.2074 53.3544 84.4823 53.5607 84.7103C53.7669 84.9383 54.0257 85.1124 54.3146 85.2176C54.6464 85.3282 55.0021 85.3461 55.3433 85.2692C55.6845 85.1924 55.9983 85.0238 56.2506 84.7815C56.4425 84.6024 56.144 84.3071 55.9553 84.4862C55.7449 84.6886 55.4802 84.8254 55.1935 84.8801C54.9067 84.9348 54.6103 84.905 54.3402 84.7943C54.0802 84.6725 53.8608 84.4783 53.7084 84.2349C53.556 83.9916 53.477 83.7094 53.4809 83.4223C53.4809 82.7688 53.9809 82.256 54.1984 81.6793C54.2972 81.4105 54.3324 81.1225 54.3014 80.8379C54.2703 80.5533 54.1738 80.2797 54.0193 80.0386C53.8571 79.7608 53.6278 79.5282 53.3523 79.3622C53.0767 79.1963 52.7639 79.1022 52.4426 79.0887C52.1867 79.0642 52.1867 79.4874 52.4426 79.4874C52.7207 79.5067 52.9887 79.6 53.2187 79.7576C53.4487 79.9152 53.6323 80.1315 53.7506 80.384Z" fill="white"/>
<path d="M38.9706 42.0577C39.1632 42.5727 39.1495 43.1421 38.9322 43.6472C38.6908 44.1935 38.337 44.6828 37.8939 45.0832C37.5346 45.4553 37.1252 45.9936 37.4067 46.532C37.59 46.7952 37.8635 46.9822 38.1753 47.0576C38.5412 47.1854 38.9293 47.2376 39.316 47.2111C39.5857 47.1983 39.5857 46.7847 39.316 46.8006C38.9862 46.8159 38.6563 46.7726 38.3416 46.6727C38.1114 46.596 37.766 46.4798 37.7393 46.1983C37.7577 45.9462 37.8672 45.7094 38.0474 45.532C38.2393 45.3188 38.4578 45.1216 38.6369 44.9041C39.0384 44.5002 39.3148 43.9891 39.433 43.432C39.5512 42.8749 39.5061 42.2956 39.3032 41.7634C39.1918 41.4992 39.0239 41.2625 38.8114 41.0699C38.5989 40.8773 38.3469 40.7334 38.073 40.6483C38.0202 40.6376 37.9654 40.6473 37.9195 40.6753C37.8736 40.7034 37.84 40.7478 37.8254 40.7996C37.8108 40.8514 37.8164 40.9068 37.8409 40.9546C37.8655 41.0025 37.9073 41.0393 37.9578 41.0577C38.1912 41.1372 38.4035 41.2684 38.5789 41.4416C38.7543 41.6148 38.8882 41.8254 38.9706 42.0577Z" fill="white"/>
<path d="M48.3155 52.1074C47.9696 52.1798 47.6485 52.3407 47.3833 52.5742C47.1182 52.8078 46.9182 53.1061 46.8027 53.44C46.5202 54.1191 46.4562 54.9528 45.9051 55.4783C45.612 55.7311 45.2508 55.8917 44.8667 55.94C44.4852 56.0126 44.093 56.0083 43.7132 55.9272C43.2959 55.7968 42.9145 55.5717 42.5988 55.2692C42.283 54.9668 42.0416 54.5954 41.8935 54.1841C41.8028 53.94 41.4063 54.0434 41.4958 54.2993C41.774 55.0727 42.3258 55.7174 43.0469 56.1116C43.7635 56.4558 44.5851 56.5108 45.3411 56.2651C45.7318 56.1586 46.0806 55.9355 46.3411 55.6255C46.5762 55.3178 46.7542 54.9704 46.8667 54.5999C47.0852 53.9272 47.226 53.1074 47.8795 52.7087C48.2047 52.5152 48.5861 52.4378 48.961 52.4893C49.336 52.5409 49.6824 52.7182 49.9434 52.9923C50.1097 53.1842 50.405 52.9027 50.2259 52.697C49.9835 52.4448 49.6811 52.2584 49.3469 52.1553C49.0127 52.0522 48.6578 52.0357 48.3155 52.1074Z" fill="white"/>
<path d="M71.8888 32.495C71.3672 32.857 70.8861 33.2741 70.4538 33.7391C70.2327 33.9486 69.9648 34.1025 69.6724 34.1879C69.2778 34.2753 68.8659 34.238 68.4933 34.0813C68.1001 33.954 67.7407 33.7393 67.4422 33.4534C67.1666 33.1526 66.9606 32.7948 66.8388 32.4055C66.8235 32.3527 66.7879 32.3082 66.7398 32.2817C66.6918 32.2553 66.6351 32.2489 66.5824 32.2642C66.5297 32.2795 66.4852 32.3151 66.4587 32.3632C66.4322 32.4112 66.4259 32.4679 66.4411 32.5206C66.6344 33.2186 67.0891 33.8154 67.7108 34.1869C68.0357 34.4018 68.4032 34.5441 68.7881 34.6039C69.173 34.6637 69.5663 34.6396 69.9411 34.5334C70.5086 34.2461 71.014 33.8498 71.4282 33.3671C71.6184 33.137 71.8605 32.9554 72.1347 32.8373C72.4088 32.7193 72.7071 32.6681 73.0049 32.688C73.3287 32.7307 73.6327 32.8677 73.8791 33.0819C74.1255 33.2961 74.3035 33.578 74.3908 33.8926C74.4073 33.9457 74.4438 33.9903 74.4926 34.0169C74.5414 34.0435 74.5986 34.05 74.6521 34.035C74.7056 34.0199 74.7512 33.9846 74.779 33.9366C74.8069 33.8885 74.8149 33.8314 74.8013 33.7775C74.7195 33.4843 74.5737 33.2128 74.3744 32.9828C74.175 32.7527 73.9271 32.5697 73.6485 32.447C73.3699 32.3243 73.0676 32.265 72.7633 32.2733C72.4589 32.2816 72.1603 32.3573 71.8888 32.495Z" fill="white"/>
<path d="M34.6509 59.247C34.7041 59.8165 34.6473 60.3909 34.4835 60.9389C34.4272 61.1902 34.4221 61.4502 34.4685 61.7035C34.5148 61.9568 34.6116 62.1982 34.7532 62.4133C34.8984 62.6003 35.0852 62.751 35.2987 62.8533C35.5123 62.9556 35.7467 63.0068 35.9835 63.0028C36.2558 62.9881 36.5208 62.9093 36.7569 62.773C36.9931 62.6367 37.1938 62.4466 37.3427 62.2182C37.4962 62.0049 37.138 61.7917 36.9835 62.0135C36.8583 62.202 36.686 62.3544 36.4836 62.4556C36.2812 62.5568 36.0559 62.6032 35.83 62.5902C35.6077 62.5699 35.3973 62.4814 35.2274 62.3367C35.0575 62.192 34.9366 61.9983 34.8812 61.7821C34.6381 60.7822 35.4579 59.7054 34.8684 58.7566C34.7499 58.5416 34.5641 58.3715 34.3395 58.2725C34.1149 58.1735 33.8639 58.1511 33.6253 58.2087C33.3844 58.2737 33.4974 58.6703 33.7533 58.5935C34.1765 58.4517 34.5571 58.8622 34.6509 59.247Z" fill="white"/>
<path d="M58.4041 36.0972C58.2916 36.8277 57.9761 37.5118 57.4937 38.0716C56.8989 38.7316 56.1726 39.26 55.3615 39.6227C54.282 40.1114 53.1573 40.4935 52.0034 40.7634C50.2578 41.2788 48.4221 41.4144 46.6197 41.1611C45.4878 40.9661 44.4376 40.4443 43.5985 39.6601C42.9543 39.0077 42.4254 38.2507 42.0346 37.4213C41.9867 37.334 41.944 37.2439 41.9066 37.1516C41.7915 36.9085 41.4322 37.126 41.5474 37.3563C41.949 38.2127 42.4667 39.0098 43.0857 39.7251C43.8969 40.5894 44.9448 41.1956 46.0984 41.4681C47.8624 41.8316 49.6864 41.7834 51.4288 41.3274C52.6506 41.0695 53.8474 40.7049 55.0055 40.2379C55.9091 39.8834 56.7401 39.3663 57.4574 38.7123C58.0398 38.163 58.4648 37.4681 58.6888 36.6996C58.8969 35.9028 58.9134 35.068 58.7367 34.2636C58.6934 34.0386 58.6379 33.8162 58.5704 33.5973C58.5552 33.5463 58.5202 33.5034 58.4734 33.4781C58.4265 33.4528 58.3715 33.4472 58.3204 33.4624C58.2694 33.4777 58.2265 33.5126 58.2012 33.5595C58.1759 33.6064 58.1703 33.6614 58.1856 33.7124C58.4304 34.4821 58.505 35.2959 58.4041 36.0972Z" fill="white"/>
<path d="M81.446 30.9198L89.7788 52.2022L89.5405 52.2955L81.2078 31.0131L81.446 30.9198Z" fill="white"/>
<path d="M87.8298 47.5372L87.8996 47.7834L77.644 50.6938L77.5742 50.4476L87.8298 47.5372Z" fill="white"/>
<path d="M84.6557 34.9299C72.4779 28.2637 65.6796 24.2905 65.6796 24.2905C63.8931 23.8829 62.1989 23.1437 60.685 22.1114C59.0187 20.701 61.1338 13.327 61.1338 13.327C61.1338 13.327 59.7884 8.90809 60.4292 8.5243C61.0699 8.14052 61.9643 7.7546 64.1466 9.6778C65.6135 11.1531 66.7114 12.9539 67.3512 14.9335C67.3512 14.9335 94.7823 18.6509 102.73 21.4707C110.677 24.2905 117.599 27.752 116.959 35.8275C116.318 43.903 107.986 42.8775 107.986 42.8775C99.8046 41.6107 91.9086 38.9209 84.6557 34.9299Z" fill="#F9D2DD"/>
<path d="M60.685 11.6906C60.8982 12.5882 61.1338 13.3312 61.1338 13.3312C61.1338 13.3312 59.0187 20.7021 60.685 22.1125C61.6014 22.8017 62.6231 23.3384 63.7105 23.702C64.7766 22.3428 66.2616 19.8951 65.7489 17.1776C65.1849 14.1905 62.2361 12.4208 60.685 11.6906Z" fill="#F9ACC0"/>
<path d="M60.1886 21.5618C58.0908 21.8234 56.1321 19.8996 55.8036 17.2644C55.475 14.6292 56.9015 12.2834 58.9993 12.0218C61.0971 11.7603 63.056 13.6852 63.3844 16.3193C63.7127 18.9535 62.2822 21.3009 60.1886 21.5618Z" fill="#F99A3D"/>
<path d="M59.2804 20.3355C57.7611 20.439 56.4247 18.9759 56.2947 17.0683C56.1647 15.1606 57.2904 13.5308 58.8097 13.4273C60.329 13.3238 61.6654 14.7869 61.7953 16.6935C61.9252 18.6001 60.7997 20.232 59.2804 20.3355Z" fill="#FF7F2D"/>
<path d="M36.9073 21.0228C36.548 24.6475 42.4189 26.1507 42.4189 26.1507C43.1459 28.6307 43.7026 31.1575 44.0852 33.7134C44.2355 35.4621 44.2355 37.2204 44.0852 38.9691C46.2267 40.1808 48.7583 40.5031 51.1351 39.8668C56.3909 38.7133 56.6467 36.5342 56.6467 36.5342L54.5956 28.0739C55.8514 27.6214 56.9584 26.8318 57.7951 25.7917C58.6317 24.7515 59.1657 23.501 59.3385 22.1774C60.2362 17.4344 58.6989 11.6659 58.6989 11.6659L52.1617 12.9452L50.1106 11.1521V13.3311L43.9572 14.9974L42.291 13.2032C42.291 13.2032 43.4445 14.6136 42.8037 17.8182C42.163 21.0228 41.7782 21.1508 41.7782 21.1508L41.5223 18.8438C41.5223 18.8438 37.4243 15.7671 36.9073 21.0228Z" fill="#F9D2DD"/>
<path d="M46.737 21.9336C45.2813 22.199 43.9697 21.6916 43.8071 20.8001C43.6445 19.9087 44.6926 18.9709 46.1483 18.7054C47.604 18.44 48.9157 18.9474 49.0782 19.8389C49.2408 20.7303 48.1917 21.6683 46.737 21.9336Z" fill="#F9ACC0"/>
<path d="M54.6598 14.5486C54.7461 14.3843 54.8661 14.24 55.012 14.1252C55.1578 14.0104 55.3263 13.9276 55.5063 13.8823C55.6784 13.8423 55.8555 13.8276 56.0319 13.8386C56.2122 13.8503 56.3875 13.9028 56.5446 13.9921C56.7018 14.071 56.832 14.1948 56.9187 14.3478C57.0055 14.5007 57.0448 14.676 57.0318 14.8514C56.8307 14.6867 56.5849 14.5857 56.3261 14.5614C56.2199 14.5486 56.1125 14.5486 56.0063 14.5614C55.9501 14.563 55.8943 14.5708 55.84 14.5849C55.776 14.5849 55.7334 14.6105 55.6864 14.6105C55.5917 14.6324 55.5008 14.6683 55.4167 14.7171C55.3186 14.7624 55.2277 14.822 55.147 14.894C54.9807 15.0603 54.8005 15.2661 54.5959 15.5092C54.5398 15.3533 54.5165 15.1875 54.5275 15.0222C54.5385 14.8569 54.5836 14.6957 54.6598 14.5486Z" fill="#1F1F39"/>
<path d="M46.5074 16.282C46.5766 16.1233 46.6768 15.98 46.8023 15.8606C46.9277 15.7413 47.0757 15.6482 47.2377 15.5869C47.2899 15.5741 47.324 15.5613 47.3795 15.5485L47.4434 15.5357H47.6566C47.6997 15.5343 47.7427 15.5386 47.7846 15.5485C47.9552 15.5683 48.1206 15.6204 48.2718 15.7021C48.4258 15.7919 48.554 15.9201 48.6438 16.0741C48.6827 16.1503 48.7086 16.2325 48.7206 16.3172C48.7363 16.3983 48.7327 16.4819 48.7099 16.5613C48.6088 16.4755 48.4966 16.4038 48.3762 16.3481C48.2772 16.314 48.1745 16.2918 48.0703 16.282H47.6865C47.6609 16.282 47.6438 16.2916 47.6225 16.2916H47.5969L47.5713 16.3044C47.5586 16.3044 47.533 16.3172 47.5202 16.3172C47.3368 16.3951 47.1678 16.5032 47.0202 16.637C46.8155 16.7905 46.6353 16.9835 46.3923 17.1754C46.3343 16.8729 46.3746 16.5599 46.5074 16.282Z" fill="#1F1F39"/>
<path d="M52.9559 16.4335C53.1 16.5498 53.2292 16.6834 53.3408 16.8312C53.4621 16.9847 53.5454 17.1648 53.5838 17.3567C53.5989 17.4593 53.5945 17.5638 53.571 17.6648C53.5618 17.7142 53.5445 17.7618 53.5199 17.8055C53.5094 17.8567 53.4875 17.9048 53.4559 17.9463C53.3661 18.123 53.2283 18.2708 53.0583 18.3727C52.7445 18.5669 52.3717 18.6425 52.0071 18.5859C52.3451 18.5256 52.6651 18.3897 52.9431 18.1883C53.072 18.0942 53.17 17.964 53.2246 17.8141C53.2411 17.78 53.254 17.7443 53.2629 17.7075C53.2764 17.6733 53.285 17.6374 53.2885 17.6009C53.3008 17.5303 53.3008 17.4582 53.2885 17.3876C53.2594 17.2345 53.1984 17.0892 53.1094 16.9612C53.0137 16.8242 52.9067 16.6955 52.7896 16.5764C52.5581 16.3272 52.3048 16.0992 52.0327 15.8951C52.3673 16.024 52.679 16.2058 52.9559 16.4335Z" fill="#1F1F39"/>
<path d="M52.6865 20.1381C53.492 20.0105 54.2585 19.7038 54.9295 19.2404C54.9295 19.2404 55.8016 22.073 54.8229 23.0474C53.8443 24.0218 51.3411 24.1753 50.6876 22.3939C50.0341 20.6125 50.2516 20.2148 50.2516 20.2148C51.0622 20.3172 51.884 20.2913 52.6865 20.1381Z" fill="#F95368"/>
<path d="M55.1728 22.3769C54.4687 22.1239 53.7038 22.0938 52.982 22.2905C52.3424 22.4633 51.756 22.7931 51.2763 23.25C51.8052 23.6128 52.4396 23.7897 53.08 23.753C53.7204 23.7164 54.3304 23.4682 54.8145 23.0474C54.9884 22.8576 55.1116 22.627 55.1728 22.3769Z" fill="#F9ACC0"/>
<path d="M42.8036 17.831C42.1639 21.0357 41.778 21.1636 41.778 21.1636L41.5221 18.8566C41.4202 18.7813 41.3134 18.7129 41.2023 18.6519L38.6118 24.3554C39.7659 25.1718 41.0545 25.7791 42.4187 26.1496C42.4187 26.1496 42.5466 26.576 42.714 27.2391C43.7855 25.8814 44.5008 24.2774 44.795 22.5729C45.1105 21.4913 45.1074 20.3416 44.7859 19.2617C44.4645 18.1818 43.8384 17.2176 42.9827 16.4846C42.9559 16.9372 42.896 17.3872 42.8036 17.831Z" fill="#F9ACC0"/>
<path d="M41.1222 26.124C38.7982 26.2814 36.7543 24.0446 36.5566 21.127C36.3589 18.2095 38.0824 15.7174 40.4065 15.56C42.7305 15.4025 44.7744 17.6393 44.9721 20.5569C45.1698 23.4744 43.4463 25.9665 41.1222 26.124Z" fill="#F99A3D"/>
<path d="M40.5618 24.0522C39.0429 24.1551 37.7075 22.6919 37.5783 20.7848C37.4491 18.8777 38.575 17.2489 40.0939 17.146C41.6128 17.0431 42.9482 18.5062 43.0773 20.4123C43.2064 22.3183 42.0807 23.9493 40.5618 24.0522Z" fill="#FF7F2D"/>
<path d="M37.2923 5.63947C36.0788 7.78886 35.4592 10.2225 35.4971 12.6905C35.4587 14.4141 35.632 16.1358 36.013 17.8172L38.949 16.5379C38.949 16.5379 38.0386 10.4464 39.4703 6.92195C40.1308 5.22193 41.2768 3.75376 42.7655 2.7003C42.8423 2.64913 43.3167 2.34103 43.7144 2.12356C43.8423 2.05959 43.9574 2.00842 44.048 1.95725L44.4745 1.79094C44.4745 1.79094 45.1024 1.41888 45.628 1.1513C46.2524 0.858751 46.8931 0.60212 47.5469 0.382658C45.7761 -0.152239 43.8753 -0.0619014 42.1632 0.638515C40.0399 1.7327 38.3302 3.48804 37.2923 5.63947Z" fill="#F99A3D"/>
<path d="M48.0202 88.3189C45.8284 87.8573 43.418 87.1142 42.2517 85.2166C41.4053 83.8446 41.3029 82.0248 41.9319 79.6794C42.611 77.1283 44.8412 75.0005 47.4179 72.5368C50.776 69.3321 54.583 65.6915 56.0318 60.0637C57.9294 52.6801 51.2504 47.2452 46.3923 43.2709C44.9997 42.2178 43.6964 41.0515 42.4958 39.7838C41.0215 38.045 40.2144 35.1613 40.111 31.2381C40.0683 29.4479 40.1584 27.6569 40.3808 25.88C40.3853 25.846 40.3966 25.8132 40.414 25.7835C40.4314 25.7539 40.4545 25.728 40.482 25.7073C40.5094 25.6867 40.5408 25.6717 40.5741 25.6633C40.6074 25.6549 40.6421 25.6532 40.6761 25.6583C40.7422 25.6717 40.8008 25.7096 40.8403 25.7643C40.8799 25.819 40.8973 25.8866 40.8893 25.9536C40.8807 26.0464 39.5343 35.5067 42.8807 39.4682C44.059 40.7106 45.3365 41.8551 46.7004 42.8903C51.6737 46.9414 58.4933 52.5042 56.519 60.2076C55.0446 65.9761 51.1737 69.668 47.7644 72.9237C45.2389 75.3075 43.0598 77.3842 42.4191 79.8074C41.8295 82.012 41.9191 83.7039 42.6888 84.948C43.5353 86.3339 45.1632 87.1867 48.1258 87.8189C50.5366 88.3433 53.0107 88.516 55.471 88.3317C55.5039 88.3275 55.5372 88.3298 55.5691 88.3385C55.6011 88.3472 55.631 88.3621 55.6572 88.3823C55.6834 88.4026 55.7053 88.4278 55.7217 88.4565C55.7382 88.4852 55.7488 88.5169 55.753 88.5497C55.7572 88.5825 55.7549 88.6159 55.7462 88.6478C55.7375 88.6798 55.7226 88.7097 55.7024 88.7358C55.6822 88.762 55.6569 88.784 55.6282 88.8004C55.5995 88.8169 55.5678 88.8275 55.535 88.8317C54.9134 88.9004 54.2882 88.9303 53.663 88.9212C51.7663 88.9158 49.8753 88.714 48.0202 88.3189Z" fill="#1F1F39"/>
<path d="M52.5443 48.9018C52.5029 48.8486 52.4838 48.7814 52.491 48.7144C52.4981 48.6474 52.531 48.5858 52.5827 48.5425C52.6605 48.4796 60.1593 42.4414 62.2978 35.045C63.5457 30.4672 63.189 25.6002 61.2872 21.2532C61.272 21.2229 61.2629 21.1899 61.2605 21.1561C61.2581 21.1222 61.2623 21.0883 61.273 21.0561C61.2837 21.0239 61.3006 20.9942 61.3228 20.9685C61.345 20.9429 61.372 20.9219 61.4023 20.9067C61.4326 20.8915 61.4656 20.8824 61.4995 20.88C61.5333 20.8776 61.5672 20.8818 61.5994 20.8925C61.6316 20.9032 61.6613 20.9201 61.687 20.9423C61.7126 20.9645 61.7336 20.9915 61.7488 21.0218C63.7038 25.4815 64.0703 30.4767 62.7872 35.174C60.6081 42.7239 52.9803 48.8634 52.9036 48.9274C52.8873 48.9529 52.8645 48.9734 52.8374 48.9869C52.8104 49.0005 52.7802 49.0064 52.7501 49.0041C52.7103 49.0034 52.6712 48.9939 52.6357 48.9762C52.6001 48.9585 52.5689 48.9331 52.5443 48.9018Z" fill="#1F1F39"/>
<path d="M49.8029 69.1807L50.2507 68.7329C50.3447 68.6333 50.4578 68.5535 50.5832 68.4983C50.7086 68.4431 50.8438 68.4136 50.9808 68.4116C51.1178 68.4096 51.2538 68.4351 51.3807 68.4866C51.5077 68.5381 51.6231 68.6145 51.72 68.7113C51.8169 68.8082 51.8934 68.9235 51.945 69.0504C51.9966 69.1773 52.0221 69.3133 52.0202 69.4503C52.0183 69.5873 51.9889 69.7226 51.9338 69.848C51.8787 69.9734 51.799 70.0866 51.6995 70.1807L51.2506 70.6295C51.0567 70.8125 50.7991 70.9126 50.5325 70.9087C50.2659 70.9048 50.0113 70.7971 49.8229 70.6085C49.6344 70.4199 49.5269 70.1652 49.5232 69.8986C49.5194 69.632 49.6198 69.3745 49.8029 69.1807Z" fill="#1F1F39"/>
<path d="M54.6734 28.4183C54.7246 28.2136 53.0583 28.8533 51.2631 28.8533C48.3026 28.8533 47.2898 28.2136 47.2898 28.2136C47.2898 28.2136 50.1096 31.8031 53.0583 32.9566C53.9883 33.3241 54.9619 33.5696 55.9549 33.6869L54.6734 28.4183Z" fill="#F9ACC0"/>
<path d="M46.8667 28.1879C46.8522 28.1821 46.8391 28.1734 46.8281 28.1625C46.817 28.1515 46.8082 28.1384 46.8023 28.1241C46.7963 28.1097 46.7933 28.0942 46.7934 28.0787C46.7935 28.0631 46.7966 28.0477 46.8027 28.0333C46.8086 28.0189 46.8172 28.0058 46.8282 27.9947C46.8391 27.9837 46.8522 27.9749 46.8666 27.969C46.881 27.963 46.8964 27.96 46.912 27.96C46.9276 27.9601 46.943 27.9633 46.9573 27.9694C48.3297 28.5007 49.793 28.7575 51.2642 28.7252C52.3954 28.6972 53.5171 28.5113 54.5968 28.173C54.6119 28.1677 54.6279 28.1655 54.6439 28.1665C54.6599 28.1675 54.6755 28.1717 54.6898 28.1788C54.7041 28.186 54.7169 28.196 54.7273 28.2082C54.7377 28.2203 54.7455 28.2345 54.7503 28.2498C54.7556 28.2649 54.7578 28.2809 54.7568 28.2969C54.7558 28.3129 54.7516 28.3285 54.7445 28.3428C54.7373 28.3571 54.7273 28.3698 54.7151 28.3802C54.703 28.3906 54.6888 28.3985 54.6735 28.4033C53.5703 28.7581 52.4208 28.9481 51.2621 28.9672H50.9423C49.549 28.9442 48.1702 28.6805 46.8667 28.1879Z" fill="#1F1F39"/>
<path d="M55.6865 90.1151C55.2962 90.1129 54.9224 89.9569 54.6464 89.6808C54.3704 89.4048 54.2144 89.0311 54.2121 88.6408C54.2144 88.2504 54.3704 87.8767 54.6464 87.6007C54.9224 87.3247 55.2962 87.1686 55.6865 87.1664H75.9419C76.3322 87.1686 76.7059 87.3247 76.982 87.6007C77.258 87.8767 77.414 88.2504 77.4163 88.6408C77.4174 88.8347 77.38 89.0269 77.3064 89.2063C77.2327 89.3857 77.1241 89.5487 76.987 89.6858C76.8498 89.823 76.6868 89.9315 76.5075 90.0052C76.3281 90.0789 76.1358 90.1163 75.9419 90.1151H55.6865Z" fill="#EAEAFF"/>
<path d="M24.7286 52.4274L22.6775 67.0401L24.7286 52.4274Z" fill="#1F1F39"/>
<path d="M22.6667 67.169C22.6502 67.1674 22.6342 67.1623 22.6197 67.1542C22.6053 67.1461 22.5927 67.1351 22.5827 67.1219C22.5727 67.1087 22.5655 67.0936 22.5616 67.0775C22.5577 67.0613 22.5572 67.0446 22.56 67.0283L24.6133 52.4167C24.6211 52.3871 24.6396 52.3614 24.6653 52.3446C24.6909 52.3279 24.7219 52.3212 24.7522 52.326C24.7825 52.3308 24.8099 52.3466 24.8291 52.3705C24.8484 52.3943 24.8581 52.4245 24.8564 52.4551L22.8052 67.0667C22.7985 67.096 22.7824 67.1223 22.7592 67.1415C22.7361 67.1608 22.7074 67.1719 22.6773 67.1733L22.6667 67.169Z" fill="#1F1F39"/>
<path d="M28.4491 16.023C29.5883 13.8368 31.3199 12.0154 33.4458 10.7673C34.8562 10.3825 35.24 11.2801 35.24 11.2801C35.5156 11.0362 35.8459 10.8623 36.2029 10.7731C36.56 10.6838 36.9332 10.6818 37.2912 10.7673C37.5892 10.8823 37.8521 11.0728 38.0544 11.32C38.2566 11.5673 38.3911 11.8628 38.4447 12.1777C38.7378 11.9609 39.0873 11.8334 39.4512 11.8105C39.8151 11.7876 40.1778 11.8703 40.4958 12.0487C41.3934 12.5615 41.1354 13.8429 40.4958 14.6073C39.8561 15.3717 37.9372 16.7864 37.8039 17.5561C37.6707 18.3258 41.0086 26.5292 39.4702 32.0408C37.9319 37.5524 25.4983 59.3493 19.7297 66.5272C13.9612 73.7051 6.52641 72.6806 4.21943 70.8864C2.15668 69.3092 0.734692 67.0386 0.216341 64.4943C-0.30201 61.9499 0.118334 59.304 1.39966 57.0456C4.98807 50.1161 28.4491 25.509 28.4491 25.509C28.4491 25.509 27.5494 18.2021 28.4491 16.023Z" fill="#F9D2DD"/>
<path d="M34.6119 20.9195C34.5736 20.7404 33.7143 16.3556 35.1503 14.7917C36.1213 13.7672 37.2049 12.8557 38.3805 12.0743C38.3936 12.0649 38.4086 12.0585 38.4244 12.0553C38.4403 12.0522 38.4566 12.0525 38.4723 12.0561C38.488 12.0597 38.5028 12.0666 38.5156 12.0764C38.5285 12.0861 38.5391 12.0985 38.5468 12.1127C38.5562 12.1258 38.5626 12.1408 38.5658 12.1566C38.5689 12.1724 38.5686 12.1887 38.565 12.2045C38.5614 12.2202 38.5545 12.2349 38.5447 12.2478C38.535 12.2606 38.5226 12.2713 38.5084 12.279C37.3565 13.0511 36.2907 13.9446 35.3294 14.9442C33.9712 16.4239 34.8422 20.8172 34.8422 20.8683C34.8453 20.8837 34.8453 20.8995 34.8423 20.9148C34.8392 20.9302 34.8332 20.9448 34.8244 20.9577C34.8157 20.9707 34.8045 20.9819 34.7914 20.9905C34.7784 20.9991 34.7638 21.0051 34.7484 21.008C34.7484 21.0208 34.7356 21.0208 34.7228 21.0208C34.6957 21.0188 34.67 21.0077 34.6499 20.9893C34.6298 20.971 34.6164 20.9464 34.6119 20.9195Z" fill="#1F1F39"/>
<path d="M30.8949 19.1126C30.8821 18.9719 30.655 15.5871 31.8181 14.1522C32.8258 13.0414 33.9518 12.044 35.1762 11.1778C35.2021 11.1588 35.2345 11.1508 35.2662 11.1556C35.298 11.1604 35.3266 11.1776 35.3457 11.2034C35.3631 11.2294 35.3698 11.261 35.3644 11.2918C35.359 11.3226 35.342 11.3501 35.3169 11.3686C34.1142 12.2219 33.0063 13.2016 32.0121 14.2908C30.8949 15.6511 31.139 19.0444 31.139 19.0742C31.1417 19.1114 31.1299 19.1482 31.106 19.1768C31.0821 19.2054 31.0481 19.2237 31.0111 19.2277C30.9958 19.2279 30.9808 19.225 30.9667 19.2193C30.9526 19.2136 30.9398 19.2051 30.929 19.1944C30.9181 19.1837 30.9096 19.1709 30.9037 19.1569C30.8979 19.1429 30.8949 19.1278 30.8949 19.1126Z" fill="#1F1F39"/>
<path d="M76.5163 43.7111L78.4352 55.504L76.5163 43.7111Z" fill="#1F1F39"/>
<path d="M78.3229 55.5339L76.3987 43.7367C76.3941 43.7037 76.4027 43.6701 76.4227 43.6434C76.4426 43.6167 76.4723 43.5989 76.5053 43.5938C76.5376 43.5905 76.5701 43.5996 76.5959 43.6195C76.6217 43.6393 76.6388 43.6683 76.6439 43.7005L78.5628 55.4934C78.5668 55.5261 78.5579 55.559 78.538 55.5853C78.5181 55.6116 78.4888 55.6291 78.4562 55.6341H78.4391C78.4249 55.6354 78.4105 55.6338 78.3969 55.6294C78.3832 55.6251 78.3706 55.618 78.3598 55.6087C78.3489 55.5993 78.3401 55.5879 78.3337 55.575C78.3274 55.5622 78.3237 55.5482 78.3229 55.5339Z" fill="#1F1F39"/>
<path d="M51.3658 20.8684C51.3691 20.9045 51.38 20.9395 51.3977 20.9711C51.4154 21.0028 51.4396 21.0303 51.4686 21.052C51.4977 21.0737 51.5309 21.0891 51.5663 21.0971C51.6016 21.1052 51.6383 21.1057 51.6739 21.0987L52.9297 20.8919C53.3549 20.8086 53.7744 20.6982 54.1855 20.5614C54.2217 20.5557 54.2564 20.5429 54.2877 20.5237C54.3189 20.5045 54.346 20.4793 54.3674 20.4495C54.3888 20.4198 54.4041 20.3861 54.4124 20.3504C54.4207 20.3147 54.4219 20.2777 54.4158 20.2416L54.2761 19.6126C53.7675 19.8548 53.2302 20.0314 52.677 20.1382C52.2233 20.2214 51.7631 20.2642 51.3018 20.2661L51.3658 20.8684Z" fill="white"/>
<path d="M0.527966 59.0934C-0.147323 61.1999 -0.155061 63.4636 0.505813 65.5747C1.16669 67.6857 2.46387 69.5409 4.21978 70.8863C6.52676 72.6805 13.9616 73.7061 19.7301 66.5282C20.294 65.8235 20.9347 64.9643 21.6149 64.0027C18.8325 65.8491 13.2057 68.6817 7.29647 66.4003C5.66719 65.8106 4.20265 64.8397 3.02517 63.5685C1.84769 62.2974 0.991452 60.763 0.527966 59.0934V59.0934Z" fill="#F9ACC0"/>
<path d="M58.1927 15.8822C56.7493 16.1509 55.6981 17.0922 55.8644 17.9845C56.0307 18.8768 57.3399 19.395 58.7876 19.1252C59.0732 19.0733 59.3525 18.9918 59.6213 18.8822C59.6162 17.8669 59.5561 16.8526 59.4411 15.8439C59.0255 15.7928 58.6045 15.8057 58.1927 15.8822Z" fill="#F9ACC0"/>
</svg>
