<svg width="17" height="21" viewBox="0 0 17 21" fill="none" xmlns="http://www.w3.org/2000/svg">
<path d="M15.9375 20.6698H3.18751C2.34213 20.6698 1.53137 20.3431 0.9336 19.7617C0.335826 19.1802 0 18.3916 0 17.5693L0 3.10047C0 2.27817 0.335826 1.48956 0.9336 0.908106C1.53137 0.326655 2.34213 0 3.18751 0L14.875 0C15.4386 0 15.9791 0.21777 16.3776 0.605404C16.7762 0.993038 17 1.51878 17 2.06698V15.492C17.0007 15.6616 16.9595 15.8289 16.88 15.9798L16.3009 17.1073C16.2277 17.2511 16.1896 17.4094 16.1896 17.5698C16.1896 17.7303 16.2277 17.8886 16.3009 18.0323L16.8789 19.1557C16.9593 19.3038 17.0009 19.4689 17 19.6363C17 19.9104 16.8881 20.1733 16.6888 20.3671C16.4896 20.5609 16.2193 20.6698 15.9375 20.6698ZM3.18751 16.5358C2.90572 16.5358 2.63546 16.6447 2.43621 16.8385C2.23695 17.0323 2.12501 17.2952 2.12501 17.5693C2.12501 17.8434 2.23695 18.1063 2.43621 18.3001C2.63546 18.4939 2.90572 18.6028 3.18751 18.6028H14.245C14.0029 17.9339 14.0029 17.2047 14.245 16.5358H3.18751ZM6.37502 5.16745C6.09322 5.16745 5.82297 5.27633 5.62371 5.47015C5.42446 5.66396 5.31251 5.92684 5.31251 6.20094C5.31251 6.47503 5.42446 6.73791 5.62371 6.93172C5.82297 7.12554 6.09322 7.23442 6.37502 7.23442H10.625C10.9068 7.23442 11.1771 7.12554 11.3763 6.93172C11.5756 6.73791 11.6875 6.47503 11.6875 6.20094C11.6875 5.92684 11.5756 5.66396 11.3763 5.47015C11.1771 5.27633 10.9068 5.16745 10.625 5.16745H6.37502Z" fill="#5063BF"/>
</svg>
