<svg width="25" height="25" viewBox="0 0 25 25" fill="none" xmlns="http://www.w3.org/2000/svg">
<path d="M25 0V24.3173H0V0H25Z" fill="white" fill-opacity="0.01"/>
<path d="M12.5 21.2271C12.2431 21.2273 11.9918 21.1532 11.7782 21.0143L9.06254 19.2513H5.20837C4.37957 19.2513 3.58472 18.9311 2.99867 18.361C2.41261 17.791 2.08337 17.0178 2.08337 16.2116L2.08337 6.07941C2.08337 5.27324 2.41261 4.50009 2.99867 3.93004C3.58472 3.36 4.37957 3.03975 5.20837 3.03975H19.7917C20.6205 3.03975 21.4154 3.36 22.0014 3.93004C22.5875 4.50009 22.9167 5.27324 22.9167 6.07941V16.2116C22.9167 17.0178 22.5875 17.791 22.0014 18.361C21.4154 18.9311 20.6205 19.2513 19.7917 19.2513H15.9375L13.2198 21.0143C13.0067 21.1527 12.7563 21.2267 12.5 21.2271ZM16.1459 10.1323C15.8368 10.1323 15.5348 10.2214 15.2778 10.3884C15.0208 10.5554 14.8206 10.7928 14.7023 11.0705C14.5841 11.3482 14.5531 11.6538 14.6134 11.9486C14.6737 12.2435 14.8225 12.5143 15.041 12.7268C15.2595 12.9394 15.538 13.0841 15.841 13.1428C16.1441 13.2014 16.4583 13.1713 16.7438 13.0563C17.0293 12.9412 17.2734 12.7464 17.445 12.4965C17.6167 12.2466 17.7084 11.9527 17.7084 11.6521C17.7084 11.249 17.5438 10.8625 17.2507 10.5774C16.9577 10.2924 16.5603 10.1323 16.1459 10.1323ZM8.85421 10.1323C8.54518 10.1323 8.24308 10.2214 7.98613 10.3884C7.72918 10.5554 7.52891 10.7928 7.41065 11.0705C7.29238 11.3482 7.26144 11.6538 7.32173 11.9486C7.38202 12.2435 7.53083 12.5143 7.74935 12.7268C7.96787 12.9394 8.24628 13.0841 8.54938 13.1428C8.85248 13.2014 9.16664 13.1713 9.45215 13.0563C9.73766 12.9412 9.98169 12.7464 10.1534 12.4965C10.3251 12.2466 10.4167 11.9527 10.4167 11.6521C10.4167 11.249 10.2521 10.8625 9.95906 10.5774C9.66604 10.2924 9.26861 10.1323 8.85421 10.1323Z" fill="#C8C6D4"/>
</svg>
