<svg width="12" height="12" viewBox="0 0 12 12" fill="none" xmlns="http://www.w3.org/2000/svg">
<path d="M11.421 12C11.3452 11.9996 11.2702 11.9842 11.2004 11.9546C11.1306 11.9249 11.0675 11.8817 11.0145 11.8274L8.90125 9.71413C7.81302 10.5942 6.42862 11.0232 5.03344 10.9127C3.63825 10.8022 2.33863 10.1606 1.40249 9.12026C0.466345 8.07989 -0.0349665 6.72 0.00189807 5.32093C0.0387627 3.92186 0.610993 2.59026 1.60063 1.60063C2.59026 0.610993 3.92186 0.0387627 5.32093 0.00189807C6.72 -0.0349665 8.07989 0.466345 9.12026 1.40249C10.1606 2.33863 10.8022 3.63825 10.9127 5.03344C11.0232 6.42862 10.5942 7.81302 9.71413 8.90125L11.8274 11.0145C11.9078 11.0949 11.9626 11.1973 11.9848 11.3088C12.0069 11.4203 11.9956 11.5359 11.952 11.6409C11.9085 11.746 11.8349 11.8357 11.7403 11.8989C11.6458 11.962 11.5347 11.9957 11.421 11.9957V12ZM5.46424 1.15568C4.6109 1.15568 3.77671 1.40873 3.06718 1.88283C2.35765 2.35692 1.80463 3.03077 1.47807 3.81916C1.15151 4.60755 1.06607 5.47507 1.23255 6.31202C1.39903 7.14897 1.80995 7.91776 2.41336 8.52117C3.01677 9.12458 3.78556 9.5355 4.62251 9.70198C5.45946 9.86846 6.32698 9.78302 7.11537 9.45645C7.90376 9.12989 8.57761 8.57688 9.0517 7.86735C9.5258 7.15782 9.77885 6.32363 9.77885 5.47028C9.77747 4.3264 9.32246 3.22976 8.51361 2.42091C7.70477 1.61207 6.60813 1.15705 5.46424 1.15568Z" fill="#B8B8D2"/>
</svg>
