<svg width="28" height="17" viewBox="0 0 28 17" fill="none" xmlns="http://www.w3.org/2000/svg">
<path fill-rule="evenodd" clip-rule="evenodd" d="M0 3.12245C0 1.95812 1.50394e-08 0.922857 0.0180408 0H27.7371C27.7551 0.922857 27.7551 1.95812 27.7551 3.12245V5.89796C27.7551 11.1312 27.7551 13.7485 26.1287 15.3735C24.5036 17 21.8863 17 16.6531 17H11.102C5.86882 17 3.25151 17 1.62645 15.3735C-1.20315e-07 13.7485 0 11.1312 0 5.89796V3.12245ZM20.8163 5.89796C21.1844 5.89796 21.5374 5.75175 21.7976 5.49149C22.0579 5.23124 22.2041 4.87826 22.2041 4.5102C22.2041 4.14215 22.0579 3.78917 21.7976 3.52891C21.5374 3.26866 21.1844 3.12245 20.8163 3.12245C20.4483 3.12245 20.0953 3.26866 19.835 3.52891C19.5748 3.78917 19.4286 4.14215 19.4286 4.5102C19.4286 4.87826 19.5748 5.23124 19.835 5.49149C20.0953 5.75175 20.4483 5.89796 20.8163 5.89796ZM20.8163 11.449C21.1844 11.449 21.5374 11.3028 21.7976 11.0425C22.0579 10.7823 22.2041 10.4293 22.2041 10.0612C22.2041 9.69317 22.0579 9.34019 21.7976 9.07993C21.5374 8.81968 21.1844 8.67347 20.8163 8.67347C20.4483 8.67347 20.0953 8.81968 19.835 9.07993C19.5748 9.34019 19.4286 9.69317 19.4286 10.0612C19.4286 10.4293 19.5748 10.7823 19.835 11.0425C20.0953 11.3028 20.4483 11.449 20.8163 11.449ZM15.2653 4.5102C15.2653 4.87826 15.1191 5.23124 14.8588 5.49149C14.5986 5.75175 14.2456 5.89796 13.8776 5.89796C13.5095 5.89796 13.1565 5.75175 12.8963 5.49149C12.636 5.23124 12.4898 4.87826 12.4898 4.5102C12.4898 4.14215 12.636 3.78917 12.8963 3.52891C13.1565 3.26866 13.5095 3.12245 13.8776 3.12245C14.2456 3.12245 14.5986 3.26866 14.8588 3.52891C15.1191 3.78917 15.2653 4.14215 15.2653 4.5102ZM15.2653 10.0612C15.2653 10.4293 15.1191 10.7823 14.8588 11.0425C14.5986 11.3028 14.2456 11.449 13.8776 11.449C13.5095 11.449 13.1565 11.3028 12.8963 11.0425C12.636 10.7823 12.4898 10.4293 12.4898 10.0612C12.4898 9.69317 12.636 9.34019 12.8963 9.07993C13.1565 8.81968 13.5095 8.67347 13.8776 8.67347C14.2456 8.67347 14.5986 8.81968 14.8588 9.07993C15.1191 9.34019 15.2653 9.69317 15.2653 10.0612ZM6.93878 5.89796C7.30683 5.89796 7.65981 5.75175 7.92007 5.49149C8.18032 5.23124 8.32653 4.87826 8.32653 4.5102C8.32653 4.14215 8.18032 3.78917 7.92007 3.52891C7.65981 3.26866 7.30683 3.12245 6.93878 3.12245C6.57072 3.12245 6.21774 3.26866 5.95748 3.52891C5.69723 3.78917 5.55102 4.14215 5.55102 4.5102C5.55102 4.87826 5.69723 5.23124 5.95748 5.49149C6.21774 5.75175 6.57072 5.89796 6.93878 5.89796ZM6.93878 11.449C7.30683 11.449 7.65981 11.3028 7.92007 11.0425C8.18032 10.7823 8.32653 10.4293 8.32653 10.0612C8.32653 9.69317 8.18032 9.34019 7.92007 9.07993C7.65981 8.81968 7.30683 8.67347 6.93878 8.67347C6.57072 8.67347 6.21774 8.81968 5.95748 9.07993C5.69723 9.34019 5.55102 9.69317 5.55102 10.0612C5.55102 10.4293 5.69723 10.7823 5.95748 11.0425C6.21774 11.3028 6.57072 11.449 6.93878 11.449Z" fill="#5063BF"/>
</svg>
