<svg width="25" height="25" viewBox="0 0 25 25" fill="none" xmlns="http://www.w3.org/2000/svg">
<path d="M25 0V24.3173H0V0H25Z" fill="white" fill-opacity="0.01"/>
<path d="M12.4999 21.2271C12.2429 21.2273 11.9917 21.1532 11.778 21.0143L9.06242 19.2513H5.20825C4.37945 19.2513 3.58459 18.931 2.99854 18.361C2.41249 17.7909 2.08325 17.0178 2.08325 16.2116L2.08325 6.07938C2.08325 5.27321 2.41249 4.50006 2.99854 3.93001C3.58459 3.35996 4.37945 3.03971 5.20825 3.03971H19.7916C20.6204 3.03971 21.4152 3.35996 22.0013 3.93001C22.5873 4.50006 22.9166 5.27321 22.9166 6.07938V16.2116C22.9166 17.0178 22.5873 17.7909 22.0013 18.361C21.4152 18.931 20.6204 19.2513 19.7916 19.2513H15.9374L13.2197 21.0143C13.0066 21.1527 12.7562 21.2267 12.4999 21.2271ZM16.1458 10.1323C15.8367 10.1323 15.5346 10.2214 15.2777 10.3884C15.0207 10.5554 14.8205 10.7928 14.7022 11.0705C14.5839 11.3482 14.553 11.6538 14.6133 11.9486C14.6736 12.2434 14.8224 12.5142 15.0409 12.7268C15.2594 12.9393 15.5378 13.0841 15.8409 13.1427C16.144 13.2014 16.4582 13.1713 16.7437 13.0562C17.0292 12.9412 17.2732 12.7464 17.4449 12.4965C17.6166 12.2465 17.7083 11.9527 17.7083 11.6521C17.7083 11.249 17.5436 10.8624 17.2506 10.5774C16.9576 10.2924 16.5602 10.1323 16.1458 10.1323ZM8.85409 10.1323C8.54505 10.1323 8.24296 10.2214 7.98601 10.3884C7.72906 10.5554 7.52879 10.7928 7.41052 11.0705C7.29226 11.3482 7.26132 11.6538 7.32161 11.9486C7.3819 12.2434 7.53071 12.5142 7.74923 12.7268C7.96775 12.9393 8.24616 13.0841 8.54926 13.1427C8.85235 13.2014 9.16652 13.1713 9.45203 13.0562C9.73754 12.9412 9.98157 12.7464 10.1533 12.4965C10.3249 12.2465 10.4166 11.9527 10.4166 11.6521C10.4166 11.249 10.252 10.8624 9.95894 10.5774C9.66592 10.2924 9.26849 10.1323 8.85409 10.1323Z" fill="#E0DEEC"/>
</svg>
