<svg width="62" height="76" viewBox="0 0 62 76" fill="none" xmlns="http://www.w3.org/2000/svg">
<path d="M30.9059 54.7441C24.7933 54.7441 18.818 53.1387 13.7355 50.131C8.65306 47.1234 4.69178 42.8484 2.35258 37.8469C0.0133911 32.8453 -0.598648 27.3417 0.593862 22.032C1.78637 16.7224 4.72987 11.8451 9.05214 8.01709C13.3744 4.18905 18.8813 1.58211 24.8765 0.525958C30.8716 -0.530198 37.0858 0.0118599 42.7331 2.08358C48.3804 4.15531 53.2072 7.66365 56.6032 12.165C59.9992 16.6663 61.8118 21.9584 61.8118 27.372C61.8118 34.6315 58.5556 41.5937 52.7597 46.727C46.9637 51.8602 39.1026 54.7441 30.9059 54.7441Z" fill="#FFEBF0"/>
<path d="M34.6832 21.3043C35.227 21.0598 35.8444 20.9742 36.4466 21.0597C37.0121 21.0956 37.5567 21.264 38.0245 21.5474" fill="white"/>
<path d="M29.3191 21.3043C28.7753 21.0598 28.1579 20.9742 27.5557 21.0597C26.99 21.0961 26.4454 21.2649 25.9778 21.5489" fill="white"/>
<path d="M46.4243 61.2783L50.9452 71.9747C54.8747 70.3287 58.531 68.2135 61.812 65.6883C61.0188 63.6262 60.332 62.066 60.332 62.066L46.4243 61.2783Z" fill="#DA5742"/>
<path d="M10.9132 72.1784L15.6246 60.9939L1.71699 61.7816C1.71699 61.7953 0.889403 63.6809 0 66.044C3.30303 68.5222 6.97517 70.5863 10.9132 72.1784Z" fill="#DA5742"/>
<path d="M46.4243 61.2783L47.9868 64.9158L61.7811 65.6761C61.0308 63.7631 60.332 62.066 60.332 62.066L46.4243 61.2783Z" fill="#C43D28"/>
<path d="M15.7704 60.6001L14.2079 64.2375L0.198975 65.4465C0.949301 63.5456 1.86961 61.3878 1.86961 61.3878L15.7704 60.6001Z" fill="#C43D28"/>
<path d="M15.1904 44.5221C9.1174 46.9719 2.4692 54.519 0.017334 63.3693H10.8687L9.07447 71.4045C15.7601 74.4309 23.1625 76.006 30.6708 75.9999C38.2084 76.0111 45.6395 74.4239 52.3427 71.371L50.442 64.4079L61.4153 63.5396C61.3998 63.5396 58.8707 51.0518 47.2999 45.1395C38.0264 40.4163 23.7427 41.1219 15.1904 44.5221Z" fill="#5063BF"/>
<path d="M13.8253 54.2605L7.3728 63.3693L11.0351 63.3556L13.8253 54.2605Z" fill="#5063BF"/>
<path d="M50.4404 64.4018L53.7027 64.1569L46.4243 53.1215L50.4404 64.4018Z" fill="#5063BF"/>
<path d="M11.004 63.506C10.9659 63.4961 10.9335 63.4738 10.9131 63.4437C10.8928 63.4135 10.886 63.3777 10.8941 63.3433L13.9623 53.2704C13.9736 53.2367 13.9987 53.208 14.0327 53.19C14.0668 53.172 14.1072 53.1659 14.1461 53.1731C14.1835 53.1837 14.2151 53.2062 14.2348 53.2363C14.2544 53.2663 14.2608 53.3018 14.2525 53.3358L11.1877 63.4102C11.179 63.4368 11.161 63.4602 11.1363 63.4772C11.1116 63.4941 11.0815 63.5037 11.0503 63.5045L11.004 63.506Z" fill="#1F1F39"/>
<path d="M50.1482 64.4003L46.2249 53.1215C46.2184 53.1055 46.2157 53.0886 46.2168 53.0717C46.2179 53.0547 46.2229 53.0382 46.2314 53.023C46.2399 53.0078 46.2517 52.9943 46.2662 52.9833C46.2807 52.9722 46.2976 52.9639 46.3159 52.9588C46.3339 52.9531 46.353 52.9506 46.3721 52.9516C46.3912 52.9526 46.4099 52.957 46.427 52.9645C46.4442 52.9721 46.4594 52.9826 46.4719 52.9954C46.4844 53.0083 46.4938 53.0232 46.4996 53.0394L50.4384 64.3197C50.4448 64.3357 50.4474 64.3528 50.4462 64.3698C50.445 64.3868 50.4399 64.4033 50.4312 64.4186C50.4225 64.4338 50.4105 64.4472 50.3958 64.4582C50.3811 64.4692 50.364 64.4774 50.3456 64.4824C50.3147 64.4824 50.2993 64.4961 50.2838 64.4961C50.2527 64.4948 50.2228 64.4849 50.1984 64.4677C50.1741 64.4505 50.1565 64.4269 50.1482 64.4003Z" fill="#1F1F39"/>
<path d="M19.9291 22.3766C19.9291 22.3766 16.3423 22.3766 15.3774 20.9928C15.1095 20.617 15.0072 20.167 15.0898 19.7287C15.1725 19.2903 15.4343 18.8943 15.8255 18.616C15.2961 18.0023 14.937 17.2871 14.7772 16.5279C14.6173 15.7688 14.6612 14.9869 14.9052 14.2456C15.2294 13.5622 15.8072 12.9973 16.5431 12.6442C17.2789 12.2911 18.1288 12.171 18.9522 12.3037C18.9522 12.3037 16.8832 9.06008 19.414 6.63005C22.5046 3.64346 27.69 6.63005 27.69 6.63005C27.7897 6.08672 28.1052 5.59277 28.5795 5.23706C29.0538 4.88135 29.6559 4.68725 30.2775 4.68968C32.5096 4.68968 32.5096 5.88493 32.5096 5.88493C33.1562 5.17543 34.028 4.65381 35.0125 4.38737C35.9971 4.12092 37.0492 4.12188 38.0331 4.39011C43.1978 5.73438 42.3084 10.8104 42.3084 10.8104C42.6117 10.7541 42.9246 10.7522 43.2287 10.8048C43.5327 10.8573 43.8219 10.9632 44.079 11.1163C44.3362 11.2693 44.5561 11.4664 44.7259 11.696C44.8957 11.9255 45.0119 12.1828 45.0676 12.4527C45.2715 13.0109 45.2247 13.6172 44.937 14.1457C44.6492 14.6741 44.1425 15.0841 43.5224 15.2903C43.5224 15.2903 45.6068 14.9861 46.127 16.4855C46.3493 17.1124 46.3355 17.7862 46.0877 18.4055C45.84 19.0248 45.3717 19.556 44.7534 19.9192L43.543 25.1457L20.4305 25.9866L19.9291 22.3766Z" fill="#1F1F39"/>
<path d="M15.9321 21.9128C13.4339 22.9317 13.1729 25.9988 15.0581 27.927C16.9434 29.8553 21.6943 29.4067 21.6943 29.4067L21.0041 22.5104C20.2732 22.0609 19.4318 21.7722 18.5497 21.6683C17.6676 21.5644 16.7703 21.6482 15.9321 21.9128Z" fill="#C43D28"/>
<path d="M45.8782 21.9144C48.3764 22.9317 48.6374 26.0004 46.7521 27.9271C44.8669 29.8538 40.116 29.4067 40.116 29.4067L41.3883 22.4162C42.0123 21.9752 42.7615 21.6951 43.5536 21.6066C44.3457 21.518 45.15 21.6246 45.8782 21.9144Z" fill="#C43D28"/>
<path d="M41.4656 27.9803C41.5801 27.1663 41.9355 26.3936 42.4958 25.7404C43.2312 24.8377 44.2798 24.1728 45.4816 23.8471C45.5058 23.8408 45.5311 23.8389 45.5561 23.8417C45.5811 23.8445 45.6052 23.8518 45.6268 23.8632C45.6484 23.8747 45.6672 23.89 45.6818 23.9081C45.6964 23.9263 45.7066 23.947 45.7117 23.9688C45.7189 23.9902 45.721 24.0126 45.7178 24.0348C45.7147 24.0569 45.7064 24.0782 45.6935 24.0974C45.6806 24.1165 45.6634 24.1331 45.6428 24.1461C45.6223 24.159 45.599 24.168 45.5743 24.1726C44.4629 24.4767 43.4906 25.0879 42.7997 25.9168C42.2817 26.5191 41.9486 27.2301 41.833 27.9803C41.8321 28.0232 41.8125 28.0642 41.7782 28.0945C41.744 28.1249 41.6977 28.1423 41.6493 28.143C41.6008 28.1423 41.5546 28.1249 41.5204 28.0945C41.4861 28.0642 41.4665 28.0232 41.4656 27.9803V27.9803Z" fill="#1F1F39"/>
<path d="M20.8207 27.9819C20.704 27.2327 20.373 26.5224 19.8592 25.9184C19.1714 25.0869 18.196 24.4772 17.0811 24.1818C17.0332 24.1693 16.9923 24.1416 16.9663 24.1039C16.9403 24.0663 16.931 24.0214 16.9403 23.978C16.9554 23.9356 16.9874 23.8995 17.0304 23.8766C17.0734 23.8536 17.1244 23.8453 17.1738 23.8533C18.3787 24.1718 19.4297 24.8363 20.1613 25.742C20.7279 26.392 21.084 27.1663 21.1915 27.9819C21.1915 28.0033 21.1868 28.0244 21.1776 28.0442C21.1683 28.0639 21.1548 28.0819 21.1377 28.097C21.1207 28.1121 21.1004 28.1241 21.0781 28.1322C21.0558 28.1404 21.0319 28.1446 21.0078 28.1446C20.9837 28.1446 20.9598 28.1404 20.9375 28.1322C20.9152 28.1241 20.895 28.1121 20.8779 28.097C20.8609 28.0819 20.8473 28.0639 20.8381 28.0442C20.8289 28.0244 20.8241 28.0033 20.8241 27.9819H20.8207Z" fill="#1F1F39"/>
<path d="M25.6952 35.6232L25.0667 43.333C25.0667 43.333 25.9407 45.0301 30.5611 45.0301C35.573 45.0301 36.9518 43.333 36.9518 43.333L36.7148 35.7388C36.7148 35.7388 39.8415 35.2902 41.3507 30.2963C42.2535 27.2285 42.5079 24.0392 42.101 20.8895C42.101 20.8895 34.718 21.9068 32.2163 19.1924C29.7146 16.478 27.1924 13.756 23.5644 15.114C19.9364 16.4719 20.3914 25.2264 21.3426 29.393C21.9415 31.8512 23.4787 34.0514 25.6952 35.6232Z" fill="#DA5742"/>
<path d="M27.3193 25.2264C26.991 25.1993 26.688 25.0589 26.4756 24.8355C26.2632 24.6122 26.1586 24.3238 26.1844 24.0326C26.1581 23.7413 26.2625 23.4525 26.4749 23.2288C26.6874 23.0051 26.9907 22.8645 27.3193 22.8374C27.6479 22.8645 27.9513 23.0051 28.1637 23.2288C28.3761 23.4525 28.4805 23.7413 28.4543 24.0326C28.48 24.3238 28.3754 24.6122 28.1631 24.8355C27.9507 25.0589 27.6476 25.1993 27.3193 25.2264Z" fill="#1F1F39"/>
<path d="M35.5815 25.2264C35.2532 25.1993 34.9502 25.0589 34.7378 24.8355C34.5254 24.6122 34.4208 24.3238 34.4466 24.0326C34.4204 23.7413 34.5247 23.4525 34.7372 23.2288C34.9496 23.0051 35.2529 22.8645 35.5815 22.8374C35.9102 22.8645 36.2135 23.0051 36.4259 23.2288C36.6383 23.4525 36.7427 23.7413 36.7165 24.0326C36.7422 24.3238 36.6376 24.6122 36.4253 24.8355C36.2129 25.0589 35.9098 25.1993 35.5815 25.2264Z" fill="#1F1F39"/>
<path d="M30.5816 25.675C30.9645 26.3532 31.9552 26.0141 31.9552 26.0141C31.9552 26.0141 30.9593 25.783 30.9593 25.1017C30.9593 24.4205 30.8889 22.1045 30.8889 22.1045C30.5635 23.2713 30.4596 24.478 30.5816 25.675Z" fill="#1F1F39"/>
<path d="M25.3413 41.2496C25.4186 41.2299 33.6327 38.406 35.1814 37.1165C35.1814 36.3288 35.2123 35.7479 35.2123 35.7479C33.5953 36.3611 31.8271 36.5947 30.0785 36.4261C28.5696 36.4318 27.0759 36.1583 25.6933 35.6232C25.7087 36.3151 25.4186 40.9714 25.3413 41.2496Z" fill="#C43D28"/>
<path d="M37.6482 28.1719C36.3021 28.1719 35.2118 27.5652 35.2118 26.8155C35.2118 26.0658 36.3021 25.4575 37.6482 25.4575C38.9943 25.4575 40.0863 26.0658 40.0863 26.8155C40.0863 27.5652 38.9892 28.1719 37.6482 28.1719Z" fill="#C43D28"/>
<path d="M24.759 28.1719C23.4129 28.1719 22.3226 27.5652 22.3226 26.8155C22.3226 26.0658 23.4129 25.4575 24.759 25.4575C26.1052 25.4575 27.1972 26.0658 27.1972 26.8155C27.1972 27.5652 26.1 28.1719 24.759 28.1719Z" fill="#C43D28"/>
<path d="M31.4242 28.4852C32.0818 28.2405 32.7005 27.9211 33.2648 27.5348C33.2648 27.5348 33.5722 27.3994 33.725 27.5348C33.6082 27.9379 33.3981 28.3151 33.1078 28.6423C32.8175 28.9696 32.4535 29.2397 32.0389 29.4356C31.6242 29.5572 31.1762 29.5567 30.7618 29.4341C30.3474 29.3116 29.9889 29.0737 29.7398 28.7559C29.2797 28.213 29.8927 28.3483 29.8927 28.3483C30.3849 28.496 30.9086 28.5428 31.4242 28.4852Z" fill="white"/>
<path d="M25.602 32.8267C27.9011 33.3696 27.4718 34.32 28.4677 33.9124C29.4636 33.5049 29.7554 32.6959 31.7781 32.962C33.8007 33.2281 33.356 34.1785 34.6437 34.0478C36.3087 33.6002 37.8315 32.8121 39.089 31.747C40.1003 30.9258 41.5254 29.5694 41.5254 29.5694C41.5254 29.5694 40.6051 35.2704 35.4868 36.6283C31.639 37.6457 26.1841 37.1712 23.746 34.0432C22.4584 32.6208 21.571 30.9477 21.1567 29.1619C21.1567 29.1619 23.303 32.2838 25.602 32.8267Z" fill="#1F1F39"/>
<path d="M27.9458 32.15C27.9237 32.139 27.9047 32.1238 27.89 32.1055C27.8754 32.0872 27.8655 32.0662 27.861 32.0441C27.8566 32.022 27.8578 31.9993 27.8644 31.9777C27.871 31.956 27.883 31.9359 27.8994 31.9189L28.5124 31.1038C28.5248 31.0842 28.542 31.0674 28.5627 31.0544C28.5834 31.0414 28.607 31.0326 28.632 31.0287C28.6569 31.0248 28.6825 31.0258 28.707 31.0317C28.7314 31.0376 28.7541 31.0482 28.7734 31.0627C28.7955 31.0737 28.8145 31.0889 28.8292 31.1072C28.8438 31.1256 28.8537 31.1465 28.8582 31.1686C28.8626 31.1907 28.8614 31.2134 28.8548 31.235C28.8482 31.2567 28.8362 31.2768 28.8198 31.2939L28.2068 32.1089C28.189 32.1299 28.1659 32.1469 28.1394 32.1585C28.1128 32.1702 28.0836 32.1761 28.054 32.1758C28.0163 32.1737 27.9796 32.1649 27.9458 32.15Z" fill="#1F1F39"/>
<path d="M24.6835 31.5791C24.6563 31.5427 24.6459 31.4984 24.6546 31.4554C24.6632 31.4124 24.6902 31.374 24.7299 31.3482L25.6485 30.8057C25.6896 30.7816 25.7397 30.7725 25.7882 30.7801C25.8368 30.7877 25.8802 30.8116 25.9095 30.8467C25.9378 30.8834 25.9487 30.9284 25.9401 30.9721C25.9314 31.0158 25.9038 31.0548 25.8631 31.0807L24.9445 31.6201C24.9116 31.6368 24.8743 31.6457 24.8364 31.646C24.8067 31.6462 24.7775 31.6403 24.7509 31.6287C24.7244 31.617 24.7013 31.6001 24.6835 31.5791Z" fill="#1F1F39"/>
<path d="M31.2424 32.2838V31.6056C31.2433 31.5627 31.263 31.5217 31.2972 31.4914C31.3315 31.461 31.3777 31.4437 31.4261 31.4429C31.4738 31.4457 31.5187 31.4638 31.5525 31.4937C31.5863 31.5236 31.6067 31.5634 31.6099 31.6056V32.2838C31.6119 32.3057 31.6086 32.3277 31.6001 32.3484C31.5916 32.369 31.5782 32.3878 31.5607 32.4034C31.5433 32.419 31.5222 32.4311 31.499 32.4388C31.4757 32.4465 31.4509 32.4496 31.4261 32.448C31.3774 32.4472 31.3309 32.4296 31.2966 32.399C31.2623 32.3683 31.2429 32.327 31.2424 32.2838V32.2838Z" fill="#1F1F39"/>
<path d="M34.1563 31.9341L33.849 31.2528C33.8396 31.2323 33.835 31.2103 33.8353 31.1881C33.8357 31.166 33.8411 31.1441 33.8512 31.1239C33.8613 31.1036 33.8759 31.0853 33.8941 31.0701C33.9123 31.0549 33.9337 31.0431 33.9571 31.0354C33.9802 31.0273 34.0049 31.0234 34.0297 31.0238C34.0545 31.0243 34.079 31.0291 34.1017 31.038C34.1244 31.047 34.1449 31.0598 34.1619 31.0758C34.1789 31.0918 34.1922 31.1106 34.201 31.1312L34.5083 31.8094C34.5177 31.8299 34.5223 31.8519 34.5219 31.8741C34.5215 31.8962 34.5161 31.9181 34.5061 31.9383C34.496 31.9586 34.4814 31.9769 34.4632 31.9921C34.445 32.0073 34.4236 32.0191 34.4001 32.0268C34.3864 32.0405 34.3709 32.0405 34.34 32.0405C34.301 32.0407 34.2628 32.0307 34.2301 32.0117C34.1975 31.9928 34.1718 31.9658 34.1563 31.9341Z" fill="#1F1F39"/>
<path d="M37.6194 31.7418L36.5462 31.1993C36.502 31.1772 36.4692 31.1408 36.4548 31.0977C36.4404 31.0546 36.4455 31.0082 36.469 30.9684C36.494 30.9293 36.5351 30.9003 36.5838 30.8875C36.6325 30.8747 36.6849 30.8792 36.73 30.9L37.8031 31.4425C37.8407 31.4613 37.8702 31.4905 37.8872 31.5257C37.9042 31.5608 37.9077 31.5999 37.8972 31.637C37.8867 31.6741 37.8627 31.7071 37.829 31.7309C37.7952 31.7548 37.7536 31.7682 37.7104 31.7691C37.6781 31.7661 37.647 31.7568 37.6194 31.7418Z" fill="#1F1F39"/>
<g opacity="0.592">
<g opacity="0.592">
<path opacity="0.592" d="M22.2995 51.5339C22.447 51.6019 22.6085 51.6429 22.7743 51.6544C22.9401 51.6659 23.1068 51.6477 23.2645 51.6008C23.6628 51.5065 24.0766 51.3286 24.475 51.5187C24.6449 51.601 24.7791 51.7309 24.8568 51.888C24.9345 52.0451 24.9512 52.2206 24.9042 52.387C24.8733 52.5086 25.0879 52.5634 25.1189 52.4417C25.1629 52.2886 25.1638 52.1282 25.1215 51.9747C25.0793 51.8212 24.9951 51.6793 24.8765 51.5613C24.7578 51.4433 24.6083 51.3529 24.441 51.298C24.2737 51.2431 24.0938 51.2254 23.917 51.2465C23.5252 51.353 23.1227 51.4259 22.7151 51.4639C22.2841 51.4381 22.1759 51.0853 22.1004 50.7462C22.0973 50.7335 22.0915 50.7215 22.0832 50.7108C22.0749 50.7001 22.0643 50.691 22.0521 50.6839C22.0398 50.6768 22.0261 50.672 22.0117 50.6696C21.9973 50.6673 21.9825 50.6674 21.9682 50.6701C21.9539 50.6728 21.9403 50.678 21.9282 50.6853C21.9161 50.6927 21.9058 50.7021 21.8979 50.7129C21.8899 50.7238 21.8844 50.736 21.8817 50.7487C21.8791 50.7614 21.8793 50.7745 21.8823 50.7872C21.9084 51.0742 22.0577 51.3414 22.2995 51.5339Z" fill="#BFE3C6"/>
<path opacity="0.592" d="M20.1395 58.2796C20.3185 58.5806 20.5963 58.8266 20.9362 58.9852C21.2882 59.1753 21.6573 59.4201 21.5646 59.8261C21.4564 60.2656 20.9825 60.5059 20.5825 60.7081C20.5589 60.7233 20.5426 60.7459 20.5368 60.7712C20.531 60.7966 20.5362 60.8229 20.5513 60.8451C20.5664 60.8672 20.5903 60.8836 20.6183 60.8909C20.6463 60.8982 20.6764 60.8959 20.7027 60.8845C21.1265 60.7115 21.4796 60.4268 21.714 60.0694C21.7965 59.9178 21.8261 59.7478 21.7988 59.5811C21.7716 59.4145 21.6889 59.2589 21.5612 59.1342C21.2882 58.8757 20.8898 58.754 20.6134 58.5092C20.4432 58.3572 20.3288 58.1633 20.285 57.9528C20.2412 57.7422 20.2701 57.5249 20.3678 57.3292C20.3987 57.2243 20.1687 57.1802 20.124 57.2881C20.0505 57.4457 20.014 57.6148 20.0166 57.7853C20.0193 57.9557 20.0611 58.1239 20.1395 58.2796Z" fill="#BFE3C6"/>
<path opacity="0.592" d="M8.15344 54.7363C8.12282 54.611 8.1358 54.4804 8.19067 54.3618C8.24553 54.2432 8.33971 54.1421 8.46079 54.0718C9.04285 53.7464 9.62491 54.2239 10.1932 54.2619C10.7083 54.3029 11.0517 53.8954 11.1891 53.4879C11.2528 53.2852 11.268 53.0729 11.2337 52.8647C11.1994 52.6566 11.1164 52.457 10.9899 52.2789C10.9725 52.259 10.9474 52.2454 10.9194 52.2407C10.8914 52.236 10.8625 52.2405 10.838 52.2534C10.8135 52.2663 10.7952 52.2867 10.7865 52.3107C10.7778 52.3347 10.7793 52.3607 10.7907 52.3838C10.9346 52.5813 11.0136 52.8103 11.0191 53.0453C11.0246 53.2802 10.9562 53.5119 10.8217 53.7144C10.7582 53.8427 10.6427 53.9451 10.498 54.0014C10.3533 54.0578 10.19 54.0639 10.0404 54.0186C9.77017 53.9228 9.49383 53.841 9.21283 53.7737C8.98639 53.7184 8.74563 53.7311 8.52818 53.8098C8.31073 53.8884 8.12884 54.0287 8.01093 54.2086C7.92426 54.4165 7.8977 54.6402 7.93367 54.8595C7.9482 55.1301 7.99423 55.3987 8.07103 55.6609C8.10193 55.7825 8.31656 55.7293 8.28565 55.6061C8.20409 55.3216 8.15972 55.0298 8.15344 54.7363Z" fill="#BFE3C6"/>
<path opacity="0.592" d="M15.9089 68.6354C15.972 68.6154 16.0394 68.6087 16.1059 68.6158C16.1723 68.623 16.236 68.6437 16.2918 68.6764C16.5131 68.8068 16.7185 68.9571 16.9048 69.125C17.3028 69.4206 17.7853 69.6132 18.299 69.6816C18.5218 69.7126 18.7496 69.6985 18.9653 69.6402C19.1811 69.5819 19.379 69.4811 19.5443 69.3452C19.7097 69.2093 19.838 69.042 19.9197 68.8558C20.0014 68.6696 20.0343 68.4695 20.016 68.2704C19.9868 68.1472 19.7722 68.2004 19.8031 68.3236C19.8269 68.5605 19.7594 68.7975 19.6116 68.9961C19.4638 69.1946 19.2444 69.343 18.9892 69.417C18.7185 69.4857 18.4338 69.5 18.156 69.4587C17.8782 69.4173 17.6144 69.3215 17.3838 69.1782C17.1411 69.0397 16.914 68.8808 16.7056 68.7038C16.5472 68.5603 16.3449 68.4609 16.1236 68.4179C15.7561 68.3784 15.3578 68.7038 15.5415 69.0292C15.6033 69.1387 15.8025 69.0429 15.7407 68.9212C15.6789 68.7996 15.8025 68.6901 15.9089 68.6354Z" fill="#BFE3C6"/>
<path opacity="0.592" d="M31.4962 65.9756C31.5103 66.1662 31.5763 66.3509 31.6884 66.514C31.8005 66.6771 31.9555 66.8137 32.1401 66.9124C32.523 67.1709 33.0758 67.4005 33.1703 67.8628C33.263 68.3783 32.5882 68.4878 32.159 68.4467C32.0062 68.433 32.0216 68.6368 32.159 68.6505C32.3665 68.6889 32.5819 68.6764 32.782 68.6142C32.982 68.552 33.159 68.4426 33.2939 68.2977C33.3927 68.1191 33.4192 67.9159 33.3688 67.722C33.3185 67.5282 33.1944 67.3556 33.0175 67.2332C32.6655 66.9215 32.159 66.777 31.8825 66.3923C31.7649 66.1596 31.7353 65.8995 31.7981 65.6507C31.8609 65.4019 32.0128 65.1777 32.2311 65.0115C32.3238 64.9309 32.1555 64.7819 32.0628 64.8762C31.7276 65.1684 31.5259 65.5599 31.4962 65.9756V65.9756Z" fill="#BFE3C6"/>
<path opacity="0.592" d="M44.3393 68.3645C44.2298 68.5381 44.1762 68.735 44.1844 68.9337C44.1926 69.1324 44.2622 69.3253 44.3857 69.4914C44.5387 69.6882 44.6476 69.9091 44.7068 70.1422C44.7364 70.3699 44.665 70.5989 44.5076 70.7809C44.4251 70.8718 44.3219 70.9462 44.2048 70.9995C44.0876 71.0528 43.9592 71.0837 43.8277 71.0901C43.6962 71.0966 43.5647 71.0785 43.4416 71.037C43.3186 70.9955 43.2067 70.9316 43.1134 70.8493C43.0906 70.8292 43.0597 70.8178 43.0275 70.8178C42.9953 70.8178 42.9645 70.8292 42.9417 70.8493C42.9189 70.8695 42.9061 70.8968 42.9061 70.9254C42.9061 70.9539 42.9189 70.9812 42.9417 71.0014C43.1156 71.1447 43.3328 71.2403 43.5669 71.2764C43.801 71.3126 44.0419 71.2878 44.2603 71.2052C44.4713 71.1142 44.6476 70.9706 44.7675 70.792C44.8874 70.6134 44.9457 70.4076 44.9351 70.2C44.9076 69.7225 44.4011 69.3819 44.4011 68.8937C44.4057 68.6681 44.5059 68.4522 44.6818 68.2888C44.8576 68.1255 45.0963 68.0266 45.3506 68.0118C45.3811 68.0118 45.4104 68.001 45.432 67.9819C45.4535 67.9628 45.4657 67.9369 45.4657 67.9099C45.4657 67.8828 45.4535 67.8569 45.432 67.8378C45.4104 67.8187 45.3811 67.808 45.3506 67.808C45.1425 67.8167 44.9403 67.8724 44.7633 67.9699C44.5863 68.0673 44.4404 68.2031 44.3393 68.3645Z" fill="#BFE3C6"/>
<path opacity="0.592" d="M37.5812 49.6589C37.7777 50.0208 38.0477 50.3476 38.3779 50.623C38.5616 50.7994 38.7213 51.0579 38.4242 51.2206C38.1666 51.3446 37.873 51.3976 37.5812 51.3727C37.5507 51.3727 37.5214 51.3834 37.4998 51.4025C37.4783 51.4216 37.4661 51.4475 37.4661 51.4745C37.4661 51.5016 37.4783 51.5275 37.4998 51.5466C37.5214 51.5657 37.5507 51.5764 37.5812 51.5764C37.9641 51.5901 38.6388 51.5217 38.7917 51.1552C38.9445 50.7887 38.5461 50.4876 38.3006 50.2565C37.9237 49.9381 37.7035 49.5011 37.6876 49.04C37.6875 48.8372 37.7579 48.6392 37.8895 48.4732C38.021 48.3072 38.2071 48.1812 38.4225 48.1123C38.4381 48.1088 38.4527 48.1027 38.4655 48.0942C38.4784 48.0857 38.4893 48.075 38.4975 48.0628C38.5057 48.0506 38.5111 48.0371 38.5134 48.023C38.5157 48.0089 38.5149 47.9946 38.5109 47.9808C38.507 47.967 38.5 47.9541 38.4904 47.9427C38.4808 47.9313 38.4688 47.9217 38.455 47.9144C38.4412 47.9071 38.4259 47.9023 38.41 47.9003C38.3941 47.8983 38.378 47.899 38.3624 47.9025C38.1769 47.968 38.0085 48.0664 37.8676 48.1917C37.7267 48.317 37.6163 48.4666 37.5431 48.6311C37.4699 48.7956 37.4355 48.9717 37.4421 49.1485C37.4486 49.3252 37.496 49.4989 37.5812 49.6589Z" fill="#BFE3C6"/>
<path opacity="0.592" d="M37.397 57.5725C37.8572 57.7899 37.9482 58.2917 38.1027 58.6856C38.1594 58.8796 38.2666 59.0591 38.4157 59.2099C38.5647 59.3607 38.7516 59.4785 38.9612 59.5539C39.412 59.6964 39.9046 59.6964 40.3554 59.5539C40.6129 59.4501 40.8444 59.3018 41.0363 59.1177C41.2283 58.9336 41.3768 58.7174 41.4732 58.4818C41.535 58.3602 41.3015 58.3054 41.2585 58.4271C41.165 58.6509 41.018 58.8542 40.8274 59.023C40.6368 59.1918 40.4073 59.3221 40.1545 59.4049C39.9049 59.4708 39.6412 59.483 39.3853 59.4404C39.1293 59.3978 38.8886 59.3017 38.683 59.16C38.3156 58.8559 38.2847 58.3723 38.101 57.9785C38.0296 57.8099 37.9149 57.6583 37.7659 57.5358C37.6168 57.4134 37.4376 57.3233 37.2425 57.2729C37.0179 57.2239 36.7828 57.227 36.56 57.2818C36.3371 57.3367 36.134 57.4415 35.9702 57.5861C35.8483 57.7078 36.0011 57.8447 36.1075 57.7488C36.2704 57.5976 36.4852 57.4983 36.7184 57.4664C36.9516 57.4345 37.1902 57.4718 37.397 57.5725Z" fill="#BFE3C6"/>
<path opacity="0.592" d="M51.5128 53.7327C51.386 54.0771 51.3896 54.4487 51.5231 54.7911C51.6003 55.1439 51.6158 55.5514 51.2157 55.7552C51.0401 55.8337 50.8379 55.8522 50.6479 55.807C50.4578 55.7618 50.2932 55.6562 50.1855 55.5104C50.1083 55.4024 49.9091 55.5104 49.9864 55.6183C50.0855 55.7572 50.2241 55.8706 50.3884 55.9469C50.5527 56.0233 50.7368 56.0599 50.9221 56.0532C51.1057 56.0401 51.2811 55.9807 51.4277 55.8821C51.5744 55.7834 51.6861 55.6497 51.7497 55.4967C51.8212 55.1113 51.7924 54.7165 51.6656 54.3425C51.6164 54.1429 51.6544 53.9343 51.772 53.7586C51.8217 53.6864 51.8962 53.6303 51.9847 53.5985C52.0731 53.5667 52.1707 53.561 52.2631 53.5822C52.4005 53.5958 52.4623 53.4058 52.3249 53.3647C52.1623 53.3325 51.9922 53.3517 51.8439 53.4189C51.6956 53.4861 51.5784 53.5971 51.5128 53.7327Z" fill="#BFE3C6"/>
</g>
<path opacity="0.592" d="M60.8394 61.6282L60.8552 61.7626L49.6816 62.7934L49.6658 62.6591L60.8394 61.6282Z" fill="#BFE3C6"/>
<path opacity="0.592" d="M11.6008 61.0799L11.6041 61.2149L0.54063 61.4255L0.537354 61.2904L11.6008 61.0799Z" fill="#BFE3C6"/>
</g>
</svg>
