<svg width="15" height="18" viewBox="0 0 15 18" fill="none" xmlns="http://www.w3.org/2000/svg">
<path d="M1.90671 0.408913L7.45176 7.10607L12.9968 0.408913C13.0991 0.280983 13.2215 0.178942 13.3568 0.108744C13.4921 0.0385459 13.6376 0.00159603 13.7849 5.05726e-05C13.9321 -0.00149489 14.0782 0.032395 14.2145 0.0997428C14.3508 0.167091 14.4746 0.266548 14.5787 0.392311C14.6828 0.518073 14.7652 0.667624 14.8209 0.832235C14.8767 0.996846 14.9048 1.17322 14.9035 1.35107C14.9022 1.52892 14.8716 1.70468 14.8135 1.8681C14.7554 2.03151 14.6709 2.17931 14.565 2.30287L9.0199 9.00003L14.565 15.6972C14.6709 15.8207 14.7554 15.9685 14.8135 16.132C14.8716 16.2954 14.9022 16.4711 14.9035 16.649C14.9048 16.8268 14.8767 17.0032 14.8209 17.1678C14.7652 17.3324 14.6828 17.482 14.5787 17.6077C14.4746 17.7335 14.3508 17.833 14.2145 17.9003C14.0782 17.9677 13.9321 18.0016 13.7849 18C13.6376 17.9985 13.4921 17.9615 13.3568 17.8913C13.2215 17.8211 13.0991 17.7191 12.9968 17.5911L7.45176 10.894L1.90671 17.5911C1.80441 17.7191 1.68203 17.8211 1.54673 17.8913C1.41143 17.9615 1.2659 17.9985 1.11865 18C0.971394 18.0016 0.82536 17.9677 0.689066 17.9003C0.552773 17.833 0.42895 17.7335 0.324822 17.6077C0.220694 17.482 0.138346 17.3324 0.0825842 17.1678C0.0268221 17.0032 -0.00123772 16.8268 4.18726e-05 16.649C0.00132147 16.4711 0.0319149 16.2954 0.090037 16.132C0.148159 15.9685 0.232646 15.8207 0.338568 15.6972L5.88362 9.00003L0.338568 2.30287C0.136553 2.05025 0.0247706 1.71191 0.0272974 1.36071C0.0298242 1.00952 0.146458 0.67357 0.352077 0.425229C0.557697 0.176887 0.835851 0.0360208 1.12663 0.032969C1.41741 0.0299172 1.69755 0.164924 1.90671 0.408913Z" fill="#1F1F39"/>
</svg>
