<svg width="12" height="12" viewBox="0 0 12 12" fill="none" xmlns="http://www.w3.org/2000/svg">
<path d="M5.94794 12C4.77155 12 3.62158 11.6481 2.64344 10.9888C1.66531 10.3295 0.902947 9.39246 0.452762 8.2961C0.00257717 7.19975 -0.115212 5.99335 0.114291 4.82946C0.343793 3.66558 0.910279 2.59648 1.74211 1.75736C2.57395 0.918247 3.63377 0.346802 4.78755 0.115291C5.94134 -0.11622 7.13727 0.00259973 8.22411 0.456726C9.31096 0.910851 10.2399 1.67989 10.8935 2.66658C11.547 3.65328 11.8959 4.81332 11.8959 6C11.8942 7.59077 11.2669 9.11589 10.1519 10.2407C9.03679 11.3656 7.5249 11.9983 5.94794 12ZM5.94794 2.18182C5.80453 2.18182 5.667 2.23929 5.56559 2.34158C5.46419 2.44387 5.40722 2.58261 5.40722 2.72728V6C5.40709 6.07168 5.42097 6.14268 5.44806 6.20895C5.47515 6.27521 5.51493 6.33544 5.56511 6.38619L7.85777 8.69891C7.90765 8.75101 7.96731 8.79256 8.03328 8.82115C8.09925 8.84974 8.17021 8.86478 8.242 8.86541C8.3138 8.86604 8.385 8.85224 8.45145 8.82482C8.51791 8.79739 8.57828 8.75689 8.62905 8.70567C8.67982 8.65446 8.71997 8.59356 8.74716 8.52653C8.77434 8.45949 8.78803 8.38766 8.7874 8.31524C8.78678 8.24281 8.77186 8.17124 8.74352 8.10469C8.71518 8.03815 8.67399 7.97796 8.62235 7.92764L6.48866 5.77637V2.72728C6.48866 2.58261 6.43169 2.44387 6.33029 2.34158C6.22888 2.23929 6.09135 2.18182 5.94794 2.18182Z" fill="#B8B8D2"/>
</svg>
