<svg width="62" height="76" viewBox="0 0 62 76" fill="none" xmlns="http://www.w3.org/2000/svg">
<path d="M30.9059 54.744C47.9747 54.744 61.8118 42.4892 61.8118 27.372C61.8118 12.2549 47.9747 0 30.9059 0C13.837 0 0 12.2549 0 27.372C0 42.4892 13.837 54.744 30.9059 54.744Z" fill="#EAEAFF"/>
<path d="M30.9059 54.7441C24.7933 54.7441 18.818 53.1387 13.7355 50.131C8.65306 47.1234 4.69178 42.8484 2.35258 37.8469C0.0133911 32.8453 -0.598648 27.3417 0.593862 22.032C1.78637 16.7224 4.72987 11.8451 9.05214 8.01709C13.3744 4.18905 18.8813 1.58211 24.8765 0.525958C30.8716 -0.530198 37.0858 0.0118599 42.7331 2.08358C48.3804 4.15531 53.2072 7.66365 56.6032 12.165C59.9992 16.6663 61.8118 21.9584 61.8118 27.372C61.8118 34.6315 58.5556 41.5937 52.7597 46.727C46.9637 51.8602 39.1026 54.7441 30.9059 54.7441Z" fill="#FFEBF0"/>
<path d="M34.6831 21.3043C35.2269 21.0598 35.8442 20.9742 36.4465 21.0597C37.012 21.0956 37.5565 21.264 38.0244 21.5474" fill="white"/>
<path d="M29.3191 21.3043C28.7753 21.0598 28.1579 20.9742 27.5557 21.0597C26.99 21.0961 26.4454 21.2649 25.9778 21.5489" fill="white"/>
<path d="M46.4243 61.2783L50.9452 71.9747C54.8747 70.3287 58.531 68.2135 61.812 65.6883C61.0188 63.6262 60.332 62.066 60.332 62.066L46.4243 61.2783Z" fill="#DA5742"/>
<path d="M10.9132 72.1784L15.6246 60.9939L1.71699 61.7816C1.71699 61.7953 0.889403 63.6809 0 66.044C3.30303 68.5222 6.97517 70.5863 10.9132 72.1784Z" fill="#DA5742"/>
<path d="M46.4243 61.2783L47.9868 64.9158L61.7811 65.6761C61.0308 63.7631 60.332 62.066 60.332 62.066L46.4243 61.2783Z" fill="#C43D28"/>
<path d="M15.7704 60.6001L14.2079 64.2375L0.198975 65.4465C0.949301 63.5456 1.86961 61.3878 1.86961 61.3878L15.7704 60.6001Z" fill="#C43D28"/>
<path d="M15.1904 44.5221C9.1174 46.9719 2.4692 54.519 0.017334 63.3693H10.8687L9.07447 71.4045C15.7601 74.4309 23.1625 76.006 30.6708 75.9999C38.2084 76.0111 45.6395 74.4239 52.3427 71.371L50.442 64.4079L61.4153 63.5396C61.3998 63.5396 58.8707 51.0518 47.2999 45.1395C38.0264 40.4163 23.7427 41.1219 15.1904 44.5221Z" fill="#5063BF"/>
<path d="M13.8253 54.2605L7.3728 63.3693L11.0351 63.3556L13.8253 54.2605Z" fill="#5063BF"/>
<path d="M50.4404 64.4018L53.7027 64.1569L46.4243 53.1215L50.4404 64.4018Z" fill="#5063BF"/>
<path d="M11.0041 63.506C10.966 63.4961 10.9336 63.4738 10.9133 63.4437C10.8929 63.4135 10.8861 63.3777 10.8942 63.3433L13.9625 53.2704C13.9737 53.2367 13.9988 53.208 14.0329 53.19C14.0669 53.172 14.1074 53.1659 14.1462 53.1731C14.1836 53.1837 14.2152 53.2062 14.2349 53.2363C14.2546 53.2663 14.2609 53.3018 14.2526 53.3358L11.1878 63.4102C11.1791 63.4368 11.1611 63.4602 11.1364 63.4772C11.1118 63.4941 11.0816 63.5037 11.0504 63.5045L11.0041 63.506Z" fill="#1F1F39"/>
<path d="M50.1482 64.4003L46.2249 53.1215C46.2184 53.1055 46.2157 53.0886 46.2168 53.0717C46.2179 53.0547 46.2229 53.0382 46.2314 53.023C46.2399 53.0078 46.2517 52.9943 46.2662 52.9833C46.2807 52.9722 46.2976 52.9639 46.3159 52.9588C46.3339 52.9531 46.353 52.9506 46.3721 52.9516C46.3912 52.9526 46.4099 52.957 46.427 52.9645C46.4442 52.9721 46.4594 52.9826 46.4719 52.9954C46.4844 53.0083 46.4938 53.0232 46.4996 53.0394L50.4384 64.3197C50.4448 64.3357 50.4474 64.3528 50.4462 64.3698C50.445 64.3868 50.4399 64.4033 50.4312 64.4186C50.4225 64.4338 50.4105 64.4472 50.3958 64.4582C50.3811 64.4692 50.364 64.4774 50.3456 64.4824C50.3147 64.4824 50.2993 64.4961 50.2838 64.4961C50.2527 64.4948 50.2228 64.4849 50.1984 64.4677C50.1741 64.4505 50.1565 64.4269 50.1482 64.4003Z" fill="#1F1F39"/>
<path d="M19.9291 22.3766C19.9291 22.3766 16.3423 22.3766 15.3774 20.9928C15.1095 20.617 15.0072 20.167 15.0898 19.7287C15.1725 19.2903 15.4343 18.8943 15.8255 18.616C15.2961 18.0023 14.937 17.2871 14.7772 16.5279C14.6173 15.7688 14.6612 14.9869 14.9052 14.2456C15.2294 13.5622 15.8072 12.9973 16.5431 12.6442C17.2789 12.2911 18.1288 12.171 18.9522 12.3037C18.9522 12.3037 16.8832 9.06008 19.414 6.63005C22.5046 3.64346 27.69 6.63005 27.69 6.63005C27.7897 6.08672 28.1052 5.59277 28.5795 5.23706C29.0538 4.88135 29.6559 4.68725 30.2775 4.68968C32.5096 4.68968 32.5096 5.88493 32.5096 5.88493C33.1562 5.17543 34.028 4.65381 35.0125 4.38737C35.9971 4.12092 37.0492 4.12188 38.0331 4.39011C43.1978 5.73438 42.3084 10.8104 42.3084 10.8104C42.6117 10.7541 42.9246 10.7522 43.2287 10.8048C43.5327 10.8573 43.8219 10.9632 44.079 11.1163C44.3362 11.2693 44.5561 11.4664 44.7259 11.696C44.8957 11.9255 45.0119 12.1828 45.0676 12.4527C45.2715 13.0109 45.2247 13.6172 44.937 14.1457C44.6492 14.6741 44.1425 15.0841 43.5224 15.2903C43.5224 15.2903 45.6068 14.9861 46.127 16.4855C46.3493 17.1124 46.3355 17.7862 46.0877 18.4055C45.84 19.0248 45.3717 19.556 44.7534 19.9192L43.543 25.1457L20.4305 25.9866L19.9291 22.3766Z" fill="#1F1F39"/>
<path d="M15.9321 21.9128C13.4339 22.9317 13.1729 25.9988 15.0581 27.927C16.9434 29.8553 21.6943 29.4067 21.6943 29.4067L21.0041 22.5104C20.2732 22.0609 19.4318 21.7722 18.5497 21.6683C17.6676 21.5644 16.7703 21.6482 15.9321 21.9128Z" fill="#C43D28"/>
<path d="M45.8784 21.9144C48.3767 22.9317 48.6376 26.0004 46.7524 27.9271C44.8671 29.8538 40.1162 29.4067 40.1162 29.4067L41.3885 22.4162C42.0126 21.9752 42.7618 21.6951 43.5539 21.6066C44.3459 21.518 45.1502 21.6246 45.8784 21.9144Z" fill="#C43D28"/>
<path d="M41.4658 27.9803C41.5804 27.1663 41.9358 26.3936 42.496 25.7404C43.2315 24.8377 44.28 24.1728 45.4819 23.8471C45.506 23.8408 45.5314 23.8389 45.5564 23.8417C45.5814 23.8445 45.6054 23.8518 45.6271 23.8632C45.6487 23.8747 45.6674 23.89 45.682 23.9081C45.6966 23.9263 45.7068 23.947 45.7119 23.9688C45.7191 23.9902 45.7212 24.0126 45.7181 24.0348C45.715 24.0569 45.7067 24.0782 45.6938 24.0974C45.6809 24.1165 45.6636 24.1331 45.6431 24.1461C45.6226 24.159 45.5992 24.168 45.5746 24.1726C44.4632 24.4767 43.4908 25.0879 42.7999 25.9168C42.2819 26.5191 41.9489 27.2301 41.8333 27.9803C41.8324 28.0232 41.8127 28.0642 41.7785 28.0945C41.7442 28.1249 41.698 28.1423 41.6495 28.143C41.6011 28.1423 41.5549 28.1249 41.5206 28.0945C41.4863 28.0642 41.4667 28.0232 41.4658 27.9803V27.9803Z" fill="#1F1F39"/>
<path d="M20.8209 27.9819C20.7042 27.2327 20.3732 26.5224 19.8594 25.9184C19.1717 25.0869 18.1962 24.4772 17.0813 24.1818C17.0335 24.1693 16.9926 24.1416 16.9665 24.1039C16.9405 24.0663 16.9312 24.0214 16.9405 23.978C16.9556 23.9356 16.9876 23.8995 17.0306 23.8766C17.0736 23.8536 17.1246 23.8453 17.174 23.8533C18.3789 24.1718 19.4299 24.8363 20.1616 25.742C20.7282 26.392 21.0843 27.1663 21.1918 27.9819C21.1918 28.0033 21.187 28.0244 21.1778 28.0442C21.1686 28.0639 21.155 28.0819 21.138 28.097C21.1209 28.1121 21.1007 28.1241 21.0784 28.1322C21.0561 28.1404 21.0322 28.1446 21.0081 28.1446C20.9839 28.1446 20.9601 28.1404 20.9378 28.1322C20.9155 28.1241 20.8952 28.1121 20.8782 28.097C20.8611 28.0819 20.8476 28.0639 20.8383 28.0442C20.8291 28.0244 20.8243 28.0033 20.8243 27.9819H20.8209Z" fill="#1F1F39"/>
<path d="M25.6954 35.6232L25.067 43.333C25.067 43.333 25.9409 45.0301 30.5614 45.0301C35.5733 45.0301 36.952 43.333 36.952 43.333L36.7151 35.7388C36.7151 35.7388 39.8417 35.2902 41.3509 30.2963C42.2537 27.2285 42.5081 24.0392 42.1013 20.8895C42.1013 20.8895 34.7182 21.9068 32.2165 19.1924C29.7149 16.478 27.1926 13.756 23.5646 15.114C19.9366 16.4719 20.3916 25.2264 21.3428 29.393C21.9418 31.8512 23.4789 34.0514 25.6954 35.6232Z" fill="#DA5742"/>
<path d="M27.3193 25.2264C26.991 25.1993 26.688 25.0589 26.4756 24.8355C26.2632 24.6122 26.1586 24.3238 26.1844 24.0326C26.1581 23.7413 26.2625 23.4525 26.4749 23.2288C26.6874 23.0051 26.9907 22.8645 27.3193 22.8374C27.6479 22.8645 27.9513 23.0051 28.1637 23.2288C28.3761 23.4525 28.4805 23.7413 28.4543 24.0326C28.48 24.3238 28.3754 24.6122 28.1631 24.8355C27.9507 25.0589 27.6476 25.1993 27.3193 25.2264Z" fill="#1F1F39"/>
<path d="M35.5815 25.2264C35.2532 25.1993 34.9502 25.0589 34.7378 24.8355C34.5254 24.6122 34.4208 24.3238 34.4466 24.0326C34.4204 23.7413 34.5247 23.4525 34.7372 23.2288C34.9496 23.0051 35.2529 22.8645 35.5815 22.8374C35.9102 22.8645 36.2135 23.0051 36.4259 23.2288C36.6383 23.4525 36.7427 23.7413 36.7165 24.0326C36.7422 24.3238 36.6376 24.6122 36.4253 24.8355C36.2129 25.0589 35.9098 25.1993 35.5815 25.2264Z" fill="#1F1F39"/>
<path d="M30.5817 25.675C30.9646 26.3532 31.9553 26.0141 31.9553 26.0141C31.9553 26.0141 30.9594 25.783 30.9594 25.1017C30.9594 24.4205 30.889 22.1045 30.889 22.1045C30.5636 23.2713 30.4598 24.478 30.5817 25.675Z" fill="#1F1F39"/>
<path d="M25.3416 41.2496C25.4188 41.2299 33.6329 38.406 35.1816 37.1165C35.1816 36.3288 35.2125 35.7479 35.2125 35.7479C33.5956 36.3611 31.8274 36.5947 30.0787 36.4261C28.5698 36.4318 27.0762 36.1583 25.6935 35.6232C25.709 36.3151 25.4188 40.9714 25.3416 41.2496Z" fill="#C43D28"/>
<path d="M37.6483 28.1719C36.3022 28.1719 35.2119 27.5652 35.2119 26.8155C35.2119 26.0658 36.3022 25.4575 37.6483 25.4575C38.9945 25.4575 40.0865 26.0658 40.0865 26.8155C40.0865 27.5652 38.9893 28.1719 37.6483 28.1719Z" fill="#C43D28"/>
<path d="M24.7592 28.1719C23.413 28.1719 22.3228 27.5652 22.3228 26.8155C22.3228 26.0658 23.413 25.4575 24.7592 25.4575C26.1053 25.4575 27.1973 26.0658 27.1973 26.8155C27.1973 27.5652 26.1001 28.1719 24.7592 28.1719Z" fill="#C43D28"/>
<path d="M31.4242 28.4852C32.0818 28.2405 32.7005 27.9211 33.2648 27.5348C33.2648 27.5348 33.5722 27.3994 33.725 27.5348C33.6082 27.9379 33.3981 28.3151 33.1078 28.6423C32.8175 28.9696 32.4535 29.2397 32.0389 29.4356C31.6242 29.5572 31.1762 29.5567 30.7618 29.4341C30.3474 29.3116 29.9889 29.0737 29.7398 28.7559C29.2797 28.213 29.8927 28.3483 29.8927 28.3483C30.3849 28.496 30.9086 28.5428 31.4242 28.4852Z" fill="white"/>
<path d="M25.602 32.8267C27.9011 33.3696 27.4718 34.32 28.4677 33.9124C29.4636 33.5049 29.7554 32.6959 31.7781 32.962C33.8007 33.2281 33.356 34.1785 34.6437 34.0478C36.3087 33.6002 37.8315 32.8121 39.089 31.747C40.1003 30.9258 41.5254 29.5694 41.5254 29.5694C41.5254 29.5694 40.6051 35.2704 35.4868 36.6283C31.639 37.6457 26.1841 37.1712 23.746 34.0432C22.4584 32.6208 21.571 30.9477 21.1567 29.1619C21.1567 29.1619 23.303 32.2838 25.602 32.8267Z" fill="#1F1F39"/>
<path d="M27.9458 32.15C27.9237 32.139 27.9047 32.1238 27.89 32.1055C27.8754 32.0872 27.8655 32.0662 27.861 32.0441C27.8566 32.022 27.8578 31.9993 27.8644 31.9777C27.871 31.956 27.883 31.9359 27.8994 31.9189L28.5124 31.1038C28.5248 31.0842 28.542 31.0674 28.5627 31.0544C28.5834 31.0414 28.607 31.0326 28.632 31.0287C28.6569 31.0248 28.6825 31.0258 28.707 31.0317C28.7314 31.0376 28.7541 31.0482 28.7734 31.0627C28.7955 31.0737 28.8145 31.0889 28.8292 31.1072C28.8438 31.1256 28.8537 31.1465 28.8582 31.1686C28.8626 31.1907 28.8614 31.2134 28.8548 31.235C28.8482 31.2567 28.8362 31.2768 28.8198 31.2939L28.2068 32.1089C28.189 32.1299 28.1659 32.1469 28.1394 32.1585C28.1128 32.1702 28.0836 32.1761 28.054 32.1758C28.0163 32.1737 27.9796 32.1649 27.9458 32.15Z" fill="#1F1F39"/>
<path d="M24.6835 31.5791C24.6563 31.5427 24.6459 31.4984 24.6546 31.4554C24.6632 31.4124 24.6902 31.374 24.7299 31.3482L25.6485 30.8057C25.6896 30.7816 25.7397 30.7725 25.7882 30.7801C25.8368 30.7877 25.8802 30.8116 25.9095 30.8467C25.9378 30.8834 25.9487 30.9284 25.9401 30.9721C25.9314 31.0158 25.9038 31.0548 25.8631 31.0807L24.9445 31.6201C24.9116 31.6368 24.8743 31.6457 24.8364 31.646C24.8067 31.6462 24.7775 31.6403 24.7509 31.6287C24.7244 31.617 24.7013 31.6001 24.6835 31.5791Z" fill="#1F1F39"/>
<path d="M31.2424 32.2838V31.6056C31.2433 31.5627 31.263 31.5217 31.2972 31.4914C31.3315 31.461 31.3777 31.4437 31.4261 31.4429C31.4738 31.4457 31.5187 31.4638 31.5525 31.4937C31.5863 31.5236 31.6067 31.5634 31.6099 31.6056V32.2838C31.6119 32.3057 31.6086 32.3277 31.6001 32.3484C31.5916 32.369 31.5782 32.3878 31.5607 32.4034C31.5433 32.419 31.5222 32.4311 31.499 32.4388C31.4757 32.4465 31.4509 32.4496 31.4261 32.448C31.3774 32.4472 31.3309 32.4296 31.2966 32.399C31.2623 32.3683 31.2429 32.327 31.2424 32.2838V32.2838Z" fill="#1F1F39"/>
<path d="M34.1564 31.9341L33.8491 31.2528C33.8397 31.2323 33.8351 31.2103 33.8355 31.1881C33.8359 31.166 33.8412 31.1441 33.8513 31.1239C33.8614 31.1036 33.876 31.0853 33.8942 31.0701C33.9124 31.0549 33.9338 31.0431 33.9573 31.0354C33.9804 31.0273 34.005 31.0234 34.0298 31.0238C34.0547 31.0243 34.0791 31.0291 34.1018 31.038C34.1245 31.047 34.145 31.0598 34.162 31.0758C34.1791 31.0918 34.1923 31.1106 34.2011 31.1312L34.5084 31.8094C34.5178 31.8299 34.5224 31.8519 34.522 31.8741C34.5217 31.8962 34.5163 31.9181 34.5062 31.9383C34.4961 31.9586 34.4815 31.9769 34.4633 31.9921C34.4451 32.0073 34.4237 32.0191 34.4002 32.0268C34.3865 32.0405 34.3711 32.0405 34.3402 32.0405C34.3011 32.0407 34.2629 32.0307 34.2302 32.0117C34.1976 31.9928 34.1719 31.9658 34.1564 31.9341Z" fill="#1F1F39"/>
<path d="M37.6194 31.7418L36.5462 31.1993C36.502 31.1772 36.4692 31.1408 36.4548 31.0977C36.4404 31.0546 36.4455 31.0082 36.469 30.9684C36.494 30.9293 36.5351 30.9003 36.5838 30.8875C36.6325 30.8747 36.6849 30.8792 36.73 30.9L37.8031 31.4425C37.8407 31.4613 37.8702 31.4905 37.8872 31.5257C37.9042 31.5608 37.9077 31.5999 37.8972 31.637C37.8867 31.6741 37.8627 31.7071 37.829 31.7309C37.7952 31.7548 37.7536 31.7682 37.7104 31.7691C37.6781 31.7661 37.647 31.7568 37.6194 31.7418Z" fill="#1F1F39"/>
<g opacity="0.592">
<g opacity="0.592">
<path opacity="0.592" d="M22.2998 51.5339C22.4473 51.6019 22.6088 51.6429 22.7746 51.6544C22.9404 51.6659 23.1071 51.6477 23.2647 51.6008C23.6631 51.5065 24.0769 51.3286 24.4752 51.5187C24.6451 51.601 24.7794 51.7309 24.8571 51.888C24.9347 52.0451 24.9514 52.2206 24.9045 52.387C24.8736 52.5086 25.0882 52.5634 25.1191 52.4417C25.1631 52.2886 25.164 52.1282 25.1218 51.9747C25.0795 51.8212 24.9954 51.6793 24.8767 51.5613C24.7581 51.4433 24.6085 51.3529 24.4412 51.298C24.274 51.2431 24.094 51.2254 23.9172 51.2465C23.5254 51.353 23.1229 51.4259 22.7153 51.4639C22.2843 51.4381 22.1762 51.0853 22.1006 50.7462C22.0976 50.7335 22.0917 50.7215 22.0835 50.7108C22.0752 50.7001 22.0646 50.691 22.0523 50.6839C22.04 50.6768 22.0263 50.672 22.0119 50.6696C21.9975 50.6673 21.9827 50.6674 21.9684 50.6701C21.9541 50.6728 21.9405 50.678 21.9285 50.6853C21.9164 50.6927 21.9061 50.7021 21.8981 50.7129C21.8901 50.7238 21.8847 50.736 21.882 50.7487C21.8793 50.7614 21.8795 50.7745 21.8826 50.7872C21.9087 51.0742 22.058 51.3414 22.2998 51.5339Z" fill="#BFE3C6"/>
<path opacity="0.592" d="M20.1396 58.2796C20.3186 58.5806 20.5964 58.8266 20.9363 58.9852C21.2883 59.1753 21.6574 59.4201 21.5647 59.8261C21.4565 60.2656 20.9826 60.5059 20.5826 60.7081C20.559 60.7233 20.5427 60.7459 20.5369 60.7712C20.5312 60.7966 20.5363 60.8229 20.5514 60.8451C20.5665 60.8672 20.5904 60.8836 20.6184 60.8909C20.6465 60.8982 20.6766 60.8959 20.7028 60.8845C21.1266 60.7115 21.4798 60.4268 21.7141 60.0694C21.7966 59.9178 21.8262 59.7478 21.799 59.5811C21.7717 59.4145 21.689 59.2589 21.5613 59.1342C21.2883 58.8757 20.8899 58.754 20.6135 58.5092C20.4433 58.3572 20.3289 58.1633 20.2851 57.9528C20.2413 57.7422 20.2702 57.5249 20.368 57.3292C20.3989 57.2243 20.1688 57.1802 20.1242 57.2881C20.0506 57.4457 20.0141 57.6148 20.0167 57.7853C20.0194 57.9557 20.0612 58.1239 20.1396 58.2796Z" fill="#BFE3C6"/>
<path opacity="0.592" d="M8.15381 54.7363C8.12319 54.611 8.13617 54.4804 8.19103 54.3618C8.2459 54.2432 8.34008 54.1421 8.46115 54.0718C9.04321 53.7464 9.62527 54.2239 10.1936 54.2619C10.7087 54.3029 11.0521 53.8954 11.1895 53.4879C11.2532 53.2852 11.2684 53.0729 11.2341 52.8647C11.1998 52.6566 11.1167 52.457 10.9903 52.2789C10.9728 52.259 10.9477 52.2454 10.9198 52.2407C10.8918 52.236 10.8628 52.2405 10.8383 52.2534C10.8139 52.2663 10.7955 52.2867 10.7869 52.3107C10.7782 52.3347 10.7797 52.3607 10.7911 52.3838C10.9349 52.5813 11.014 52.8103 11.0195 53.0453C11.0249 53.2802 10.9566 53.5119 10.822 53.7144C10.7586 53.8427 10.6431 53.9451 10.4984 54.0014C10.3537 54.0578 10.1903 54.0639 10.0408 54.0186C9.77053 53.9228 9.4942 53.841 9.21319 53.7737C8.98676 53.7184 8.746 53.7311 8.52855 53.8098C8.3111 53.8884 8.12921 54.0287 8.0113 54.2086C7.92462 54.4165 7.89806 54.6402 7.93403 54.8595C7.94857 55.1301 7.9946 55.3987 8.07139 55.6609C8.1023 55.7825 8.31692 55.7293 8.28602 55.6061C8.20445 55.3216 8.16009 55.0298 8.15381 54.7363Z" fill="#BFE3C6"/>
<path opacity="0.592" d="M15.9093 68.6354C15.9723 68.6154 16.0398 68.6087 16.1062 68.6158C16.1727 68.623 16.2364 68.6437 16.2922 68.6764C16.5135 68.8068 16.7189 68.9571 16.9052 69.125C17.3032 69.4206 17.7857 69.6132 18.2994 69.6816C18.5221 69.7126 18.75 69.6985 18.9657 69.6402C19.1814 69.5819 19.3794 69.4811 19.5447 69.3452C19.71 69.2093 19.8384 69.042 19.9201 68.8558C20.0018 68.6696 20.0347 68.4695 20.0164 68.2704C19.9872 68.1472 19.7725 68.2004 19.8034 68.3236C19.8272 68.5605 19.7597 68.7975 19.612 68.9961C19.4642 69.1946 19.2448 69.343 18.9896 69.417C18.7188 69.4857 18.4341 69.5 18.1564 69.4587C17.8786 69.4173 17.6148 69.3215 17.3842 69.1782C17.1415 69.0397 16.9144 68.8808 16.706 68.7038C16.5476 68.5603 16.3453 68.4609 16.1239 68.4179C15.7565 68.3784 15.3581 68.7038 15.5419 69.0292C15.6037 69.1387 15.8029 69.0429 15.741 68.9212C15.6792 68.7996 15.8029 68.6901 15.9093 68.6354Z" fill="#BFE3C6"/>
<path opacity="0.592" d="M31.4966 65.9756C31.5107 66.1662 31.5766 66.3509 31.6888 66.514C31.8009 66.6771 31.9558 66.8137 32.1405 66.9124C32.5233 67.1709 33.0762 67.4005 33.1707 67.8628C33.2634 68.3783 32.5886 68.4878 32.1593 68.4467C32.0065 68.433 32.022 68.6368 32.1593 68.6505C32.3669 68.6889 32.5823 68.6764 32.7823 68.6142C32.9824 68.552 33.1594 68.4426 33.2943 68.2977C33.3931 68.1191 33.4195 67.9159 33.3692 67.722C33.3189 67.5282 33.1948 67.3556 33.0178 67.2332C32.6659 66.9215 32.1593 66.777 31.8829 66.3923C31.7653 66.1596 31.7356 65.8995 31.7984 65.6507C31.8613 65.4019 32.0131 65.1777 32.2315 65.0115C32.3242 64.9309 32.1559 64.7819 32.0632 64.8762C31.728 65.1684 31.5262 65.5599 31.4966 65.9756V65.9756Z" fill="#BFE3C6"/>
<path opacity="0.592" d="M44.3397 68.3645C44.2302 68.5381 44.1766 68.735 44.1848 68.9337C44.1929 69.1324 44.2626 69.3253 44.386 69.4914C44.539 69.6882 44.648 69.9091 44.7071 70.1422C44.7368 70.3699 44.6654 70.5989 44.508 70.7809C44.4254 70.8718 44.3223 70.9462 44.2051 70.9995C44.088 71.0528 43.9595 71.0837 43.8281 71.0901C43.6966 71.0966 43.5651 71.0785 43.442 71.037C43.3189 70.9955 43.2071 70.9316 43.1138 70.8493C43.091 70.8292 43.0601 70.8178 43.0279 70.8178C42.9957 70.8178 42.9648 70.8292 42.9421 70.8493C42.9193 70.8695 42.9065 70.8968 42.9065 70.9254C42.9065 70.9539 42.9193 70.9812 42.9421 71.0014C43.116 71.1447 43.3332 71.2403 43.5673 71.2764C43.8013 71.3126 44.0422 71.2878 44.2607 71.2052C44.4717 71.1142 44.648 70.9706 44.7679 70.792C44.8878 70.6134 44.9461 70.4076 44.9355 70.2C44.908 69.7225 44.4015 69.3819 44.4015 68.8937C44.4061 68.6681 44.5063 68.4522 44.6821 68.2888C44.858 68.1255 45.0967 68.0266 45.351 68.0118C45.3815 68.0118 45.4108 68.001 45.4323 67.9819C45.4539 67.9628 45.466 67.9369 45.466 67.9099C45.466 67.8828 45.4539 67.8569 45.4323 67.8378C45.4108 67.8187 45.3815 67.808 45.351 67.808C45.1428 67.8167 44.9407 67.8724 44.7637 67.9699C44.5867 68.0673 44.4407 68.2031 44.3397 68.3645Z" fill="#BFE3C6"/>
<path opacity="0.592" d="M37.5815 49.6589C37.778 50.0208 38.0481 50.3476 38.3782 50.623C38.5619 50.7994 38.7216 51.0579 38.4246 51.2206C38.167 51.3446 37.8734 51.3976 37.5815 51.3727C37.551 51.3727 37.5218 51.3834 37.5002 51.4025C37.4786 51.4216 37.4665 51.4475 37.4665 51.4745C37.4665 51.5016 37.4786 51.5275 37.5002 51.5466C37.5218 51.5657 37.551 51.5764 37.5815 51.5764C37.9644 51.5901 38.6392 51.5217 38.792 51.1552C38.9448 50.7887 38.5465 50.4876 38.301 50.2565C37.924 49.9381 37.7038 49.5011 37.688 49.04C37.6878 48.8372 37.7583 48.6392 37.8898 48.4732C38.0213 48.3072 38.2075 48.1812 38.4229 48.1123C38.4384 48.1088 38.4531 48.1027 38.4659 48.0942C38.4788 48.0857 38.4896 48.075 38.4978 48.0628C38.506 48.0506 38.5115 48.0371 38.5138 48.023C38.5161 48.0089 38.5152 47.9946 38.5113 47.9808C38.5073 47.967 38.5004 47.9541 38.4908 47.9427C38.4812 47.9313 38.4691 47.9217 38.4553 47.9144C38.4416 47.9071 38.4263 47.9023 38.4104 47.9003C38.3945 47.8983 38.3783 47.899 38.3628 47.9025C38.1773 47.968 38.0089 48.0664 37.868 48.1917C37.7271 48.317 37.6166 48.4666 37.5435 48.6311C37.4703 48.7956 37.4359 48.9717 37.4424 49.1485C37.449 49.3252 37.4963 49.4989 37.5815 49.6589Z" fill="#BFE3C6"/>
<path opacity="0.592" d="M37.3971 57.5725C37.8573 57.7899 37.9483 58.2917 38.1028 58.6856C38.1596 58.8796 38.2667 59.0591 38.4158 59.2099C38.5649 59.3607 38.7517 59.4785 38.9613 59.5539C39.4121 59.6964 39.9047 59.6964 40.3555 59.5539C40.613 59.4501 40.8445 59.3018 41.0364 59.1177C41.2284 58.9336 41.3769 58.7174 41.4733 58.4818C41.5351 58.3602 41.3016 58.3054 41.2587 58.4271C41.1652 58.6509 41.0181 58.8542 40.8275 59.023C40.6369 59.1918 40.4074 59.3221 40.1546 59.4049C39.9051 59.4708 39.6413 59.483 39.3854 59.4404C39.1294 59.3978 38.8887 59.3017 38.6832 59.16C38.3157 58.8559 38.2848 58.3723 38.1011 57.9785C38.0297 57.8099 37.915 57.6583 37.766 57.5358C37.617 57.4134 37.4378 57.3233 37.2426 57.2729C37.018 57.2239 36.783 57.227 36.5601 57.2818C36.3373 57.3367 36.1341 57.4415 35.9703 57.5861C35.8484 57.7078 36.0012 57.8447 36.1077 57.7488C36.2705 57.5976 36.4853 57.4983 36.7185 57.4664C36.9517 57.4345 37.1903 57.4718 37.3971 57.5725Z" fill="#BFE3C6"/>
<path opacity="0.592" d="M51.5131 53.7327C51.3864 54.0771 51.39 54.4487 51.5234 54.7911C51.6007 55.1439 51.6162 55.5514 51.2161 55.7552C51.0404 55.8337 50.8383 55.8522 50.6482 55.807C50.4582 55.7618 50.2936 55.6562 50.1859 55.5104C50.1086 55.4024 49.9095 55.5104 49.9867 55.6183C50.0858 55.7572 50.2245 55.8706 50.3888 55.9469C50.553 56.0233 50.7371 56.0599 50.9225 56.0532C51.106 56.0401 51.2815 55.9807 51.4281 55.8821C51.5747 55.7834 51.6865 55.6497 51.7501 55.4967C51.8215 55.1113 51.7928 54.7165 51.6659 54.3425C51.6168 54.1429 51.6548 53.9343 51.7724 53.7586C51.8221 53.6864 51.8966 53.6303 51.985 53.5985C52.0735 53.5667 52.1711 53.561 52.2635 53.5822C52.4008 53.5958 52.4626 53.4058 52.3253 53.3647C52.1627 53.3325 51.9925 53.3517 51.8442 53.4189C51.6959 53.4861 51.5788 53.5971 51.5131 53.7327Z" fill="#BFE3C6"/>
</g>
<path opacity="0.592" d="M60.8394 61.6282L60.8552 61.7626L49.6816 62.7934L49.6658 62.6591L60.8394 61.6282Z" fill="#BFE3C6"/>
<path opacity="0.592" d="M11.6011 61.0799L11.6043 61.2149L0.540875 61.4255L0.537598 61.2904L11.6011 61.0799Z" fill="#BFE3C6"/>
</g>
</svg>
