<svg width="48" height="47" viewBox="0 0 48 47" fill="none" xmlns="http://www.w3.org/2000/svg">
<path d="M23.5299 47C36.525 47 47.0597 36.4787 47.0597 23.5C47.0597 10.5213 36.525 0 23.5299 0C10.5347 0 0 10.5213 0 23.5C0 36.4787 10.5347 47 23.5299 47Z" fill="#173AFF"/>
<path d="M31.0167 21.6497C31.3419 21.8372 31.6119 22.1069 31.7996 22.4317C31.9873 22.7564 32.0862 23.1248 32.0862 23.4998C32.0862 23.8748 31.9873 24.2432 31.7996 24.568C31.6119 24.8927 31.3419 25.1624 31.0167 25.3499L21.3909 30.9044C21.0657 31.092 20.6968 31.1907 20.3213 31.1907C19.9459 31.1907 19.577 31.092 19.2518 30.9045C18.9266 30.717 18.6566 30.4473 18.4689 30.1225C18.2811 29.7978 18.1823 29.4294 18.1823 29.0544V17.9453C18.1823 17.5703 18.2811 17.2019 18.4689 16.8771C18.6566 16.5523 18.9266 16.2827 19.2518 16.0952C19.577 15.9077 19.9459 15.809 20.3213 15.809C20.6968 15.809 21.0657 15.9077 21.3909 16.0952L31.0167 21.6497Z" fill="white"/>
</svg>
