<svg width="17" height="21" viewBox="0 0 17 21" fill="none" xmlns="http://www.w3.org/2000/svg">
<path d="M15.9375 20.6818H3.18749C2.34212 20.6818 1.53137 20.355 0.933595 19.7732C0.335824 19.1914 0 18.4023 0 17.5795L0 3.10227C0 2.2795 0.335824 1.49042 0.933595 0.908634C1.53137 0.326845 2.34212 0 3.18749 0L14.875 0C15.4385 0 15.979 0.217897 16.3776 0.605756C16.7761 0.993615 17 1.51966 17 2.06818V15.501C17.0006 15.6707 16.9594 15.8381 16.8799 15.9891L16.3008 17.1173C16.2276 17.2611 16.1895 17.4195 16.1895 17.58C16.1895 17.7406 16.2276 17.899 16.3008 18.0428L16.8788 19.1669C16.9592 19.315 17.0008 19.4802 17 19.6477C17 19.922 16.888 20.185 16.6888 20.3789C16.4895 20.5729 16.2192 20.6818 15.9375 20.6818ZM3.18749 16.5454C2.9057 16.5454 2.63545 16.6544 2.43619 16.8483C2.23694 17.0422 2.12499 17.3053 2.12499 17.5795C2.12499 17.8538 2.23694 18.1168 2.43619 18.3107C2.63545 18.5047 2.9057 18.6136 3.18749 18.6136H14.2449C14.0028 17.9444 14.0028 17.2147 14.2449 16.5454H3.18749ZM6.37498 5.17045C6.09319 5.17045 5.82294 5.2794 5.62368 5.47333C5.42443 5.66726 5.31249 5.93028 5.31249 6.20454C5.31249 6.4788 5.42443 6.74182 5.62368 6.93575C5.82294 7.12968 6.09319 7.23863 6.37498 7.23863H10.625C10.9068 7.23863 11.177 7.12968 11.3763 6.93575C11.5755 6.74182 11.6875 6.4788 11.6875 6.20454C11.6875 5.93028 11.5755 5.66726 11.3763 5.47333C11.177 5.2794 10.9068 5.17045 10.625 5.17045H6.37498Z" fill="#C8C6D4"/>
</svg>
