<svg width="25" height="25" viewBox="0 0 25 25" fill="none" xmlns="http://www.w3.org/2000/svg">
<path d="M25 0V24.3173H0V0H25Z" fill="white" fill-opacity="0.01"/>
<path d="M12.5 21.2271C12.243 21.2273 11.9917 21.1532 11.7781 21.0143L9.06247 19.2513H5.2083C4.3795 19.2513 3.58464 18.931 2.99859 18.361C2.41254 17.7909 2.0833 17.0178 2.0833 16.2116L2.0833 6.07938C2.0833 5.27321 2.41254 4.50006 2.99859 3.93001C3.58464 3.35996 4.3795 3.03971 5.2083 3.03971H19.7916C20.6204 3.03971 21.4153 3.35996 22.0013 3.93001C22.5874 4.50006 22.9166 5.27321 22.9166 6.07938V16.2116C22.9166 17.0178 22.5874 17.7909 22.0013 18.361C21.4153 18.931 20.6204 19.2513 19.7916 19.2513H15.9375L13.2198 21.0143C13.0066 21.1527 12.7562 21.2267 12.5 21.2271ZM16.1458 10.1323C15.8368 10.1323 15.5347 10.2214 15.2777 10.3884C15.0208 10.5554 14.8205 10.7928 14.7022 11.0705C14.584 11.3482 14.553 11.6538 14.6133 11.9486C14.6736 12.2434 14.8224 12.5142 15.0409 12.7268C15.2595 12.9393 15.5379 13.0841 15.841 13.1427C16.1441 13.2014 16.4582 13.1713 16.7437 13.0562C17.0293 12.9412 17.2733 12.7464 17.445 12.4965C17.6167 12.2465 17.7083 11.9527 17.7083 11.6521C17.7083 11.249 17.5437 10.8624 17.2507 10.5774C16.9576 10.2924 16.5602 10.1323 16.1458 10.1323ZM8.85413 10.1323C8.5451 10.1323 8.24301 10.2214 7.98605 10.3884C7.7291 10.5554 7.52883 10.7928 7.41057 11.0705C7.29231 11.3482 7.26137 11.6538 7.32165 11.9486C7.38194 12.2434 7.53076 12.5142 7.74928 12.7268C7.9678 12.9393 8.24621 13.0841 8.5493 13.1427C8.8524 13.2014 9.16657 13.1713 9.45208 13.0562C9.73758 12.9412 9.98161 12.7464 10.1533 12.4965C10.325 12.2465 10.4166 11.9527 10.4166 11.6521C10.4166 11.249 10.252 10.8624 9.95899 10.5774C9.66596 10.2924 9.26853 10.1323 8.85413 10.1323Z" fill="#5063BF"/>
</svg>
