<svg width="25" height="25" viewBox="0 0 25 25" fill="none" xmlns="http://www.w3.org/2000/svg">
<path d="M25 0V24.3173H0V0H25Z" fill="white" fill-opacity="0.01"/>
<path d="M19.7915 22.2909H5.20816C4.65563 22.2909 4.12573 22.0774 3.73503 21.6974C3.34432 21.3173 3.12483 20.8019 3.12483 20.2645V19.2512C3.12649 17.9081 3.67575 16.6205 4.65214 15.6707C5.62854 14.721 6.95234 14.1867 8.33317 14.1851H16.6665C18.0473 14.1867 19.3711 14.721 20.3475 15.6707C21.3239 16.6205 21.8732 17.9081 21.8748 19.2512V20.2645C21.8748 20.8019 21.6553 21.3173 21.2646 21.6974C20.8739 22.0774 20.344 22.2909 19.7915 22.2909ZM12.4998 12.1587C11.4697 12.1587 10.4627 11.8616 9.60624 11.3049C8.74973 10.7482 8.08217 9.95701 7.68796 9.0313C7.29375 8.10559 7.19061 7.08696 7.39158 6.10423C7.59254 5.1215 8.08859 4.21881 8.81698 3.5103C9.54538 2.80179 10.4734 2.31929 11.4837 2.12381C12.4941 1.92834 13.5413 2.02866 14.493 2.4121C15.4447 2.79555 16.2581 3.44488 16.8304 4.278C17.4027 5.11112 17.7082 6.0906 17.7082 7.09258C17.7065 8.4357 17.1572 9.72335 16.1809 10.6731C15.2045 11.6228 13.8807 12.1571 12.4998 12.1587Z" fill="#C8C6D4"/>
</svg>
