<svg width="34" height="34" viewBox="0 0 34 34" fill="none" xmlns="http://www.w3.org/2000/svg">
<g id="codicon:file-pdf">
<path id="Vector" fill-rule="evenodd" clip-rule="evenodd" d="M29.4313 9.435L22.4613 2.4225L21.7175 2.125H5.3125L4.25 3.1875V14.875H6.375V4.25H19.125V11.6875L20.1875 12.75H27.625V14.875H29.75V10.2L29.4313 9.435ZM21.25 10.625V4.25L27.625 10.625H21.25ZM5.3125 17L4.25 18.0625V30.8125L5.3125 31.875H28.6875L29.75 30.8125V18.0625L28.6875 17H5.3125ZM27.625 27.625V29.75H6.375V19.125H27.625V27.625ZM10.625 25.5H9.945V27.625H8.5V21.25H10.7525C12.3462 21.25 13.1538 22.015 13.1538 23.375C13.1579 23.664 13.0992 23.9505 12.9818 24.2147C12.8644 24.4788 12.6911 24.7144 12.4738 24.905C11.9471 25.3155 11.2922 25.5263 10.625 25.5ZM10.4975 22.4188H9.945V24.395H10.4975C11.2625 24.395 11.645 24.055 11.645 23.3962C11.645 22.7375 11.2625 22.4188 10.4975 22.4188ZM19.125 26.7325C19.4388 26.4234 19.6842 26.0518 19.8453 25.6418C20.0064 25.2318 20.0795 24.7926 20.06 24.3525C20.06 22.2275 18.9338 21.25 16.66 21.25H14.4075V27.625H16.66C17.1095 27.6468 17.5588 27.5791 17.982 27.4259C18.4051 27.2727 18.7936 27.037 19.125 26.7325ZM15.8312 26.4562V22.4188H16.5325C16.8035 22.4015 17.0752 22.4398 17.331 22.5311C17.5868 22.6224 17.8212 22.765 18.02 22.95C18.2001 23.1391 18.34 23.3628 18.4313 23.6075C18.5226 23.8522 18.5634 24.1129 18.5512 24.3738C18.5831 24.9339 18.3921 25.4839 18.02 25.9037C17.8255 26.0899 17.5953 26.2348 17.3433 26.3298C17.0913 26.4247 16.8228 26.4677 16.5538 26.4562H15.8312ZM25.2875 25.16H23.2262V27.625H21.7812V21.25H25.4788V22.4188H23.2262V23.9912H25.2875V25.16Z" fill="black"/>
</g>
</svg>
