<svg width="32" height="32" viewBox="0 0 32 32" fill="none" xmlns="http://www.w3.org/2000/svg">
<g id="mingcute:announcement-line" clip-path="url(#clip0_281_1019)">
<g id="Group">
<path id="Vector" fill-rule="evenodd" clip-rule="evenodd" d="M25.3333 6.32122V10.6666C25.8586 10.6666 26.3788 10.77 26.8641 10.971C27.3494 11.1721 27.7903 11.4667 28.1617 11.8381C28.5332 12.2096 28.8278 12.6505 29.0288 13.1358C29.2299 13.6211 29.3333 14.1413 29.3333 14.6666C29.3333 15.1918 29.2299 15.712 29.0288 16.1973C28.8278 16.6826 28.5332 17.1236 28.1617 17.495C27.7903 17.8664 27.3494 18.1611 26.8641 18.3621C26.3788 18.5631 25.8586 18.6666 25.3333 18.6666V22.6666C25.3333 24.8639 22.8253 26.1186 21.0667 24.7999L18.32 22.7386C16.8518 21.6377 15.1423 20.9027 13.3333 20.5946V24.3866C13.3335 25.2582 13.0185 26.1005 12.4465 26.7583C11.8745 27.416 11.0841 27.8448 10.2208 27.9656C9.35757 28.0864 8.47975 27.8911 7.74916 27.4157C7.01858 26.9403 6.48448 26.2168 6.24532 25.3786L4.15199 18.0506C3.39868 17.1609 2.90844 16.0788 2.73637 14.9259C2.5643 13.773 2.71723 12.5949 3.17797 11.5241C3.6387 10.4533 4.38898 9.53221 5.34446 8.86442C6.29993 8.19662 7.42274 7.80858 8.58666 7.74389L12.6107 7.51989C14.5795 7.41033 16.4942 6.835 18.1973 5.84122L21.3227 4.01722C23.1013 2.98122 25.3333 4.26256 25.3333 6.32122ZM7.51199 20.1039L8.80932 24.6466C8.87176 24.8664 9.01164 25.0563 9.20315 25.1811C9.39466 25.3059 9.62486 25.3572 9.85123 25.3255C10.0776 25.2938 10.2849 25.1813 10.4347 25.0087C10.5846 24.8361 10.667 24.6151 10.6667 24.3866V20.3732L8.58666 20.2572C8.22469 20.2371 7.86513 20.1858 7.51199 20.1039ZM22.6667 6.32122L19.54 8.14656C17.6405 9.25381 15.5224 9.9336 13.3333 10.1386V17.8972C15.716 18.2252 17.984 19.1546 19.92 20.6052L22.6667 22.6666V6.32122ZM10.6667 10.2986L8.73332 10.4052C7.83392 10.4549 6.98581 10.8399 6.35641 11.4843C5.72701 12.1287 5.36206 12.9857 5.33359 13.886C5.30513 14.7863 5.61522 15.6646 6.20265 16.3475C6.79009 17.0303 7.61218 17.4682 8.50666 17.5746L8.73332 17.5946L10.6667 17.7012V10.2986ZM25.3333 13.3332V15.9999C25.6732 15.9995 26 15.8694 26.2471 15.6361C26.4943 15.4028 26.643 15.084 26.6629 14.7447C26.6828 14.4054 26.5724 14.0714 26.3543 13.8108C26.1362 13.5502 25.8268 13.3827 25.4893 13.3426L25.3333 13.3332Z" fill="#E20D47"/>
</g>
</g>
<defs>
<clipPath id="clip0_281_1019">
<rect width="32" height="32" fill="white"/>
</clipPath>
</defs>
</svg>
