<svg width="33" height="34" viewBox="0 0 33 34" fill="none" xmlns="http://www.w3.org/2000/svg">
<g clip-path="url(#clip0_281_1086)">
<path fill-rule="evenodd" clip-rule="evenodd" d="M18.6808 3.25C19.3264 3.25016 19.9514 3.47747 20.4462 3.89213L20.625 4.05575L26.6943 10.125C27.1508 10.5815 27.4321 11.1841 27.489 11.8272L27.5 12.0692V28C27.5002 28.6938 27.2382 29.362 26.7664 29.8708C26.2947 30.3795 25.6481 30.6911 24.9562 30.7431L24.75 30.75H8.25C7.55621 30.7502 6.88797 30.4882 6.37925 30.0164C5.87052 29.5447 5.55891 28.8981 5.50688 28.2062L5.5 28V6C5.49978 5.30621 5.76181 4.63797 6.23356 4.12925C6.70531 3.62052 7.35191 3.30891 8.04375 3.25688L8.25 3.25H18.6808ZM16.5 6H8.25V28H24.75V14.25H18.5625C18.0498 14.25 17.5555 14.059 17.1759 13.7143C16.7964 13.3696 16.5588 12.8958 16.5096 12.3855L16.5 12.1875V6ZM17.1875 15.625C18.0992 15.625 18.9735 15.9872 19.6182 16.6318C20.2628 17.2765 20.625 18.1508 20.625 19.0625C20.625 19.9742 20.2628 20.8485 19.6182 21.4932C18.9735 22.1378 18.0992 22.5 17.1875 22.5H15.125V23.875C15.125 24.2397 14.9801 24.5894 14.7223 24.8473C14.4644 25.1051 14.1147 25.25 13.75 25.25C13.3853 25.25 13.0356 25.1051 12.7777 24.8473C12.5199 24.5894 12.375 24.2397 12.375 23.875V17.1375C12.375 16.7364 12.5344 16.3517 12.818 16.068C13.1016 15.7844 13.4864 15.625 13.8875 15.625H17.1875ZM17.1875 18.375H15.125V19.75H17.1875C17.3593 19.7503 17.525 19.6863 17.652 19.5706C17.7789 19.4548 17.8579 19.2957 17.8735 19.1246C17.889 18.9535 17.8399 18.7828 17.7358 18.6461C17.6318 18.5094 17.4803 18.4166 17.3113 18.386L17.1875 18.375ZM19.25 6.56925V11.5H24.1807L19.25 6.56925Z" fill="black"/>
</g>
<defs>
<clipPath id="clip0_281_1086">
<rect width="33" height="33" fill="white" transform="translate(0 0.5)"/>
</clipPath>
</defs>
</svg>
