<svg width="29" height="30" viewBox="0 0 29 30" fill="none" xmlns="http://www.w3.org/2000/svg">
<g id="octicon:comment-discussion-16">
<path id="Vector" d="M3.17188 2.3125H18.5781C20.329 2.3125 21.75 3.7335 21.75 5.48438V15.4531C21.75 16.2944 21.4158 17.1011 20.821 17.696C20.2261 18.2908 19.4194 18.625 18.5781 18.625H12.7981L8.13269 23.2886C7.76303 23.6568 7.29263 23.9074 6.78078 24.0087C6.26892 24.11 5.73853 24.0576 5.25646 23.8579C4.77438 23.6583 4.3622 23.3204 4.07186 22.8868C3.78153 22.4533 3.62604 21.9435 3.625 21.4217V18.625H3.17188C2.33064 18.625 1.52386 18.2908 0.929021 17.696C0.334179 17.1011 0 16.2944 0 15.4531L0 5.48438C0 3.7335 1.421 2.3125 3.17188 2.3125ZM2.71875 5.48438V15.4531C2.71875 15.7032 2.92175 15.9062 3.17188 15.9062H4.98438C5.3449 15.9062 5.69067 16.0495 5.9456 16.3044C6.20053 16.5593 6.34375 16.9051 6.34375 17.2656V21.235L11.2737 16.305C11.3998 16.1787 11.5495 16.0784 11.7144 16.01C11.8792 15.9416 12.0559 15.9063 12.2344 15.9062H18.5781C18.6983 15.9062 18.8136 15.8585 18.8985 15.7735C18.9835 15.6886 19.0312 15.5733 19.0312 15.4531V5.48438C19.0312 5.3642 18.9835 5.24894 18.8985 5.16397C18.8136 5.07899 18.6983 5.03125 18.5781 5.03125H3.17188C3.0517 5.03125 2.93644 5.07899 2.85147 5.16397C2.76649 5.24894 2.71875 5.3642 2.71875 5.48438ZM26.2812 9.10938C26.2812 8.9892 26.2335 8.87394 26.1485 8.78897C26.0636 8.70399 25.9483 8.65625 25.8281 8.65625H24.9219C24.5613 8.65625 24.2156 8.51303 23.9607 8.2581C23.7057 8.00317 23.5625 7.6574 23.5625 7.29688C23.5625 6.93635 23.7057 6.59058 23.9607 6.33565C24.2156 6.08072 24.5613 5.9375 24.9219 5.9375H25.8281C27.579 5.9375 29 7.3585 29 9.10938V19.0781C29 19.9194 28.6658 20.7261 28.071 21.321C27.4761 21.9158 26.6694 22.25 25.8281 22.25H25.375V25.0467C25.374 25.5685 25.2185 26.0783 24.9281 26.5118C24.6378 26.9454 24.2256 27.2833 23.7435 27.4829C23.2615 27.6826 22.7311 27.735 22.2192 27.6337C21.7074 27.5324 21.237 27.2818 20.8673 26.9136L16.7113 22.7575C16.5323 22.5913 16.4015 22.38 16.3326 22.1457C16.2637 21.9115 16.2593 21.663 16.3197 21.4264C16.3802 21.1898 16.5034 20.9739 16.6763 20.8015C16.8492 20.6291 17.0654 20.5064 17.3021 20.4466C17.5384 20.386 17.7867 20.3902 18.0208 20.4588C18.2549 20.5274 18.4662 20.6578 18.6325 20.8363L22.6562 24.86V20.8906C22.6562 20.5301 22.7995 20.1843 23.0544 19.9294C23.3093 19.6745 23.6551 19.5312 24.0156 19.5312H25.8281C25.9483 19.5312 26.0636 19.4835 26.1485 19.3985C26.2335 19.3136 26.2812 19.1983 26.2812 19.0781V9.10938Z" fill="#00B135"/>
</g>
</svg>
