<svg width="17" height="18" viewBox="0 0 17 18" fill="none" xmlns="http://www.w3.org/2000/svg">
<g id="solar:book-outline">
<path id="Vector" d="M5.1355 5.4585C5.1355 5.3176 5.19147 5.18247 5.2911 5.08285C5.39073 4.98322 5.52585 4.92725 5.66675 4.92725H11.3334C11.4743 4.92725 11.6094 4.98322 11.7091 5.08285C11.8087 5.18247 11.8647 5.3176 11.8647 5.4585C11.8647 5.59939 11.8087 5.73452 11.7091 5.83415C11.6094 5.93378 11.4743 5.98975 11.3334 5.98975H5.66675C5.52585 5.98975 5.39073 5.93378 5.2911 5.83415C5.19147 5.73452 5.1355 5.59939 5.1355 5.4585ZM5.66675 7.40641C5.52585 7.40641 5.39073 7.46238 5.2911 7.56201C5.19147 7.66164 5.1355 7.79677 5.1355 7.93766C5.1355 8.07856 5.19147 8.21368 5.2911 8.31331C5.39073 8.41294 5.52585 8.46891 5.66675 8.46891H9.20841C9.34931 8.46891 9.48444 8.41294 9.58406 8.31331C9.68369 8.21368 9.73966 8.07856 9.73966 7.93766C9.73966 7.79677 9.68369 7.66164 9.58406 7.56201C9.48444 7.46238 9.34931 7.40641 9.20841 7.40641H5.66675Z" fill="black"/>
<path id="Vector_2" fill-rule="evenodd" clip-rule="evenodd" d="M7.04429 1.38525C6.076 1.38525 5.29471 1.38525 4.68059 1.46813C4.04309 1.55313 3.50617 1.7373 3.07975 2.163C2.65334 2.58942 2.47059 3.12634 2.38488 3.76384C2.302 4.37796 2.302 5.15925 2.302 6.12755V11.8721C2.302 12.8404 2.302 13.6217 2.38488 14.2358C2.46988 14.8733 2.65404 15.4103 3.07975 15.8367C3.50617 16.2631 4.04309 16.4458 4.68059 16.5323C5.29471 16.6144 6.076 16.6144 7.04429 16.6144H9.95554C10.9238 16.6144 11.7051 16.6144 12.3193 16.5323C12.9568 16.4458 13.4937 16.2631 13.9201 15.8367C14.3465 15.4103 14.5293 14.8733 14.6157 14.2358C14.6978 13.6217 14.6978 12.8404 14.6978 11.8721V6.12755C14.6978 5.15925 14.6978 4.37796 14.6157 3.76384C14.5293 3.12634 14.3465 2.58942 13.9201 2.163C13.4937 1.73659 12.9568 1.55384 12.3193 1.46813C11.7051 1.38525 10.9238 1.38525 9.95554 1.38525H7.04429ZM3.832 2.91455C4.02821 2.71834 4.30304 2.59084 4.82367 2.52071C5.35775 2.44917 6.0675 2.44775 7.08396 2.44775H9.91729C10.9338 2.44775 11.6428 2.44917 12.1783 2.52071C12.6982 2.59084 12.973 2.71905 13.1693 2.91455C13.3655 3.11075 13.493 3.38559 13.5631 3.90621C13.6346 4.4403 13.636 5.15005 13.636 6.1665V11.3019H5.51217C4.93275 11.3019 4.5375 11.3019 4.19821 11.3926C3.89984 11.4725 3.61771 11.6039 3.3645 11.7808V6.1665C3.3645 5.15005 3.36592 4.4403 3.43746 3.9055C3.50759 3.38559 3.6365 3.11075 3.832 2.91455ZM3.38363 13.4262C3.39425 13.677 3.41125 13.8973 3.43746 14.0942C3.50759 14.6141 3.63579 14.8889 3.83129 15.0851C4.0275 15.2813 4.30234 15.4088 4.82296 15.479C5.35704 15.5505 6.06679 15.5519 7.08325 15.5519H9.91658C10.933 15.5519 11.6421 15.5505 12.1776 15.479C12.6975 15.4088 12.9723 15.2806 13.1685 15.0851C13.3648 14.8889 13.4923 14.6141 13.5624 14.0935C13.6212 13.6578 13.6325 13.1053 13.6346 12.3644H5.59434C4.90159 12.3644 4.65934 12.3687 4.47304 12.419C4.22339 12.4859 3.99377 12.6126 3.80398 12.7881C3.61419 12.9636 3.46992 13.1826 3.38363 13.4262Z" fill="black"/>
</g>
</svg>
