<svg
  width="25"
  height="26"
  viewBox="0 0 25 26"
  fill="none"
  xmlns="http://www.w3.org/2000/svg"
>
  <path
    d="M22.6562 7.53125V18.4688C22.6562 18.8832 22.4916 19.2806 22.1986 19.5736C21.9056 19.8666 21.5082 20.0312 21.0938 20.0312H3.90625C3.49185 20.0312 3.09442 19.8666 2.8014 19.5736C2.50837 19.2806 2.34375 18.8832 2.34375 18.4688V7.53125M22.6562 7.53125C22.6562 7.11685 22.4916 6.71942 22.1986 6.4264C21.9056 6.13337 21.5082 5.96875 21.0938 5.96875H3.90625C3.49185 5.96875 3.09442 6.13337 2.8014 6.4264C2.50837 6.71942 2.34375 7.11685 2.34375 7.53125M22.6562 7.53125L13.3891 13.9469C13.1278 14.1276 12.8177 14.2245 12.5 14.2245C12.1823 14.2245 11.8722 14.1276 11.6109 13.9469L2.34375 7.53125"
    stroke="black"
    stroke-width="2"
    stroke-linecap="round"
    stroke-linejoin="round"
  />
</svg>
