<svg width="24" height="25" viewBox="0 0 24 25" fill="none" xmlns="http://www.w3.org/2000/svg">
<path d="M15.68 15.087C19.17 15.087 22 12.269 22 8.793C22 5.318 19.17 2.5 15.68 2.5C12.19 2.5 9.36299 5.318 9.36299 8.793C9.36299 10.403 10.097 11.574 10.097 11.574L2.45499 19.184C2.11199 19.526 1.63199 20.414 2.45499 21.234L3.33699 22.112C3.67999 22.405 4.54199 22.815 5.24699 22.112L6.27699 21.088C7.30499 22.112 8.48099 21.527 8.92199 20.941C9.65599 19.917 8.77499 18.892 8.77499 18.892L9.06899 18.599C10.479 20.005 11.714 19.185 12.155 18.599C12.89 17.575 12.155 16.55 12.155 16.55C11.861 15.965 11.273 15.965 12.008 15.233L12.89 14.355C13.595 14.94 15.045 15.087 15.682 15.087H15.68Z" stroke="black" stroke-width="1.5" stroke-linejoin="round"/>
<path d="M17.885 8.79403C17.8837 9.37733 17.6507 9.93623 17.2374 10.3478C16.8241 10.7595 16.2643 10.9901 15.681 10.989C15.0977 10.9901 14.5378 10.7595 14.1245 10.3478C13.7112 9.93623 13.4783 9.37733 13.477 8.79403C13.4775 8.50512 13.5349 8.21914 13.646 7.95243C13.757 7.68571 13.9195 7.44348 14.1242 7.23956C14.3288 7.03564 14.5717 6.87403 14.8388 6.76396C15.1059 6.65388 15.3921 6.5975 15.681 6.59803C15.9699 6.5975 16.2561 6.65388 16.5232 6.76396C16.7903 6.87403 17.0331 7.03564 17.2378 7.23956C17.4425 7.44348 17.6049 7.68571 17.716 7.95243C17.827 8.21914 17.8845 8.50512 17.885 8.79403Z" stroke="black" stroke-width="1.5"/>
</svg>
