<svg width="24" height="24" viewBox="0 0 24 24" fill="none" xmlns="http://www.w3.org/2000/svg">
<path d="M15.68 14.587C19.17 14.587 22 11.769 22 8.293C22 4.818 19.17 2 15.68 2C12.19 2 9.36299 4.818 9.36299 8.293C9.36299 9.903 10.097 11.074 10.097 11.074L2.45499 18.684C2.11199 19.026 1.63199 19.914 2.45499 20.734L3.33699 21.612C3.67999 21.905 4.54199 22.315 5.24699 21.612L6.27699 20.588C7.30499 21.612 8.48099 21.027 8.92199 20.441C9.65599 19.417 8.77499 18.392 8.77499 18.392L9.06899 18.099C10.479 19.505 11.714 18.685 12.155 18.099C12.89 17.075 12.155 16.05 12.155 16.05C11.861 15.465 11.273 15.465 12.008 14.733L12.89 13.855C13.595 14.44 15.045 14.587 15.682 14.587H15.68Z" stroke="black" stroke-width="1.5" stroke-linejoin="round"/>
<path d="M17.885 8.294C17.8837 8.8773 17.6507 9.4362 17.2374 9.84781C16.8241 10.2594 16.2643 10.4901 15.681 10.489C15.0977 10.4901 14.5378 10.2594 14.1245 9.84781C13.7112 9.4362 13.4783 8.8773 13.477 8.294C13.4775 8.00509 13.5349 7.71911 13.646 7.4524C13.757 7.18568 13.9195 6.94345 14.1242 6.73953C14.3288 6.53561 14.5717 6.374 14.8388 6.26393C15.1059 6.15385 15.3921 6.09747 15.681 6.098C15.9699 6.09747 16.2561 6.15385 16.5232 6.26393C16.7903 6.374 17.0331 6.53561 17.2378 6.73953C17.4425 6.94345 17.6049 7.18568 17.716 7.4524C17.827 7.71911 17.8845 8.00509 17.885 8.294Z" stroke="black" stroke-width="1.5"/>
</svg>
