<svg
  xmlns="http://www.w3.org/2000/svg"
  width="72"
  height="72"
  viewBox="0 0 73 72"
  fill="#EC7B9C"
>
  <path
    d="M36.0458 72C55.9533 72 72.0915 55.8823 72.0915 36C72.0915 16.1177 55.9533 0 36.0458 0C16.1382 0 0 16.1177 0 36C0 55.8823 16.1382 72 36.0458 72Z"
  />
  <path
    d="M47.515 33.1656C48.0131 33.4528 48.4267 33.866 48.7143 34.3635C49.0019 34.861 49.1533 35.4253 49.1533 35.9998C49.1533 36.5742 49.0019 37.1385 48.7143 37.636C48.4267 38.1335 48.0131 38.5467 47.515 38.8339L32.769 47.343C32.2708 47.6303 31.7058 47.7815 31.1305 47.7815C30.5553 47.7815 29.9903 47.6303 29.4921 47.343C28.994 47.0558 28.5803 46.6427 28.2927 46.1452C28.0051 45.6477 27.8537 45.0833 27.8536 44.5088V27.4907C27.8537 26.9162 28.0051 26.3518 28.2927 25.8543C28.5803 25.3568 28.994 24.9437 29.4921 24.6565C29.9903 24.3692 30.5553 24.218 31.1305 24.218C31.7058 24.218 32.2708 24.3692 32.769 24.6565L47.515 33.1656Z"
    fill="white"
  />
</svg>
