<svg width="24" height="18" viewBox="0 0 24 18" fill="none" xmlns="http://www.w3.org/2000/svg">
<path d="M11.0119 17.4816C11.122 17.6415 11.2693 17.7722 11.4412 17.8625C11.613 17.9528 11.8042 18 11.9984 18C12.1925 18 12.3837 17.9528 12.5556 17.8625C12.7274 17.7722 12.8748 17.6415 12.9848 17.4816L23.7857 1.88267C23.9107 1.70275 23.984 1.49202 23.9977 1.27336C24.0113 1.0547 23.9648 0.83649 23.8631 0.642429C23.7614 0.448367 23.6085 0.285878 23.4209 0.172618C23.2333 0.0593576 23.0183 -0.000343589 22.7992 1.48748e-06H1.19753C0.978923 0.000904316 0.764699 0.0613732 0.577896 0.174905C0.391092 0.288437 0.238776 0.450736 0.137327 0.644349C0.0358782 0.837962 -0.0108646 1.05556 0.00212512 1.27375C0.0151149 1.49194 0.0873458 1.70246 0.21105 1.88267L11.0119 17.4816Z" fill="black"/>
</svg>
