<svg width="22" height="17" viewBox="0 0 22 17" fill="none" xmlns="http://www.w3.org/2000/svg">
<path d="M10.0942 16.0392C10.1952 16.1813 10.3302 16.2975 10.4877 16.3778C10.6453 16.4581 10.8205 16.5 10.9985 16.5C11.1765 16.5 11.3518 16.4581 11.5093 16.3778C11.6668 16.2975 11.8019 16.1813 11.9028 16.0392L21.8036 2.17349C21.9182 2.01356 21.9854 1.82624 21.9979 1.63188C22.0104 1.43751 21.9677 1.24355 21.8745 1.07105C21.7813 0.898548 21.6411 0.754114 21.4692 0.653438C21.2972 0.552762 21.1001 0.499695 20.8993 0.500001H1.09773C0.897346 0.500804 0.700974 0.554554 0.529738 0.655471C0.358501 0.756388 0.218878 0.900654 0.125883 1.07275C0.0328884 1.24485 -0.00995926 1.43828 0.00194803 1.63222C0.0138553 1.82617 0.080067 2.0133 0.193463 2.17349L10.0942 16.0392Z" fill="black"/>
</svg>
