<svg
  xmlns="http://www.w3.org/2000/svg"
  width="38"
  height="38"
  viewBox="0 0 38 38"
  fill="none"
>
  <path
    d="M32.9234 26.1161C32.0996 24.697 30.875 20.6818 30.875 15.4375C30.875 12.2881 29.6239 9.2676 27.3969 7.04061C25.1699 4.81361 22.1494 3.5625 19 3.5625C15.8505 3.5625 12.8301 4.81361 10.6031 7.04061C8.3761 9.2676 7.12499 12.2881 7.12499 15.4375C7.12499 20.6833 5.89889 24.697 5.07507 26.1161C4.86469 26.4769 4.75316 26.8867 4.75172 27.3043C4.75029 27.722 4.859 28.1326 5.0669 28.4948C5.2748 28.857 5.57453 29.158 5.93586 29.3674C6.2972 29.5768 6.70736 29.6872 7.12499 29.6875H13.1827C13.4567 31.0281 14.1853 32.233 15.2453 33.0983C16.3053 33.9636 17.6317 34.4362 19 34.4362C20.3683 34.4362 21.6947 33.9636 22.7547 33.0983C23.8147 32.233 24.5433 31.0281 24.8173 29.6875H30.875C31.2925 29.6869 31.7025 29.5763 32.0636 29.3668C32.4247 29.1573 32.7242 28.8563 32.932 28.4942C33.1397 28.132 33.2483 27.7215 33.2468 27.304C33.2453 26.8865 33.1337 26.4768 32.9234 26.1161ZM19 32.0625C18.2635 32.0623 17.5451 31.8338 16.9438 31.4085C16.3425 30.9831 15.8878 30.3819 15.6423 29.6875H22.3576C22.1121 30.3819 21.6574 30.9831 21.0562 31.4085C20.4549 31.8338 19.7365 32.0623 19 32.0625ZM7.12499 27.3125C8.26796 25.3472 9.49999 20.7931 9.49999 15.4375C9.49999 12.9179 10.5009 10.5016 12.2825 8.71999C14.0641 6.93839 16.4804 5.9375 19 5.9375C21.5195 5.9375 23.9359 6.93839 25.7175 8.71999C27.4991 10.5016 28.5 12.9179 28.5 15.4375C28.5 20.7887 29.7291 25.3427 30.875 27.3125H7.12499Z"
    fill="black"
  />
</svg>
