<svg
  xmlns="http://www.w3.org/2000/svg"
  width="23"
  height="22"
  viewBox="0 0 23 22"
  fill="none"
>
  <path
    d="M17 14.4375H18.375V17.875H17V14.4375ZM14.25 11H15.625V17.875H14.25V11ZM8.0625 17.875C7.15115 17.8739 6.27745 17.5114 5.63303 16.867C4.98861 16.2226 4.62609 15.3488 4.625 14.4375H6C6 14.8454 6.12096 15.2442 6.34759 15.5834C6.57422 15.9225 6.89634 16.1869 7.27322 16.343C7.65009 16.4991 8.06479 16.54 8.46487 16.4604C8.86496 16.3808 9.23246 16.1844 9.52091 15.8959C9.80935 15.6075 10.0058 15.24 10.0854 14.8399C10.165 14.4398 10.1241 14.0251 9.968 13.6482C9.8119 13.2713 9.54754 12.9492 9.20836 12.7226C8.86919 12.496 8.47042 12.375 8.0625 12.375V11C8.97418 11 9.84852 11.3622 10.4932 12.0068C11.1378 12.6515 11.5 13.5258 11.5 14.4375C11.5 15.3492 11.1378 16.2235 10.4932 16.8682C9.84852 17.5128 8.97418 17.875 8.0625 17.875Z"
    fill="black"
  />
  <path
    d="M19.75 1.375H3.25C2.88544 1.37536 2.53591 1.52035 2.27813 1.77813C2.02035 2.03591 1.87536 2.38544 1.875 2.75V19.25C1.87536 19.6146 2.02035 19.9641 2.27813 20.2219C2.53591 20.4797 2.88544 20.6246 3.25 20.625H19.75C20.1145 20.6245 20.4639 20.4794 20.7217 20.2217C20.9794 19.9639 21.1245 19.6145 21.125 19.25V2.75C21.1246 2.38544 20.9797 2.03591 20.7219 1.77813C20.4641 1.52035 20.1146 1.37536 19.75 1.375ZM19.75 7.5625H10.125V2.75H19.75V7.5625ZM8.75 2.75V7.5625H3.25V2.75H8.75ZM3.25 19.25V8.9375H19.75L19.7514 19.25H3.25Z"
    fill="black"
  />
</svg>
