<svg
  xmlns="http://www.w3.org/2000/svg"
  width="37"
  height="38"
  viewBox="0 0 37 38"
  fill="none"
>
  <path
    d="M16.7656 19C16.7656 19.46 16.9483 19.9011 17.2736 20.2264C17.5989 20.5516 18.04 20.7344 18.5 20.7344C18.96 20.7344 19.4011 20.5516 19.7264 20.2264C20.0516 19.9011 20.2344 19.46 20.2344 19C20.2344 18.54 20.0516 18.0989 19.7264 17.7736C19.4011 17.4484 18.96 17.2656 18.5 17.2656C18.04 17.2656 17.5989 17.4484 17.2736 17.7736C16.9483 18.0989 16.7656 18.54 16.7656 19ZM23.9922 19C23.9922 19.46 24.1749 19.9011 24.5002 20.2264C24.8254 20.5516 25.2666 20.7344 25.7266 20.7344C26.1865 20.7344 26.6277 20.5516 26.9529 20.2264C27.2782 19.9011 27.4609 19.46 27.4609 19C27.4609 18.54 27.2782 18.0989 26.9529 17.7736C26.6277 17.4484 26.1865 17.2656 25.7266 17.2656C25.2666 17.2656 24.8254 17.4484 24.5002 17.7736C24.1749 18.0989 23.9922 18.54 23.9922 19ZM9.53905 19C9.53905 19.46 9.72178 19.9011 10.047 20.2264C10.3723 20.5516 10.8134 20.7344 11.2734 20.7344C11.7334 20.7344 12.1746 20.5516 12.4998 20.2264C12.8251 19.9011 13.0078 19.46 13.0078 19C13.0078 18.54 12.8251 18.0989 12.4998 17.7736C12.1746 17.4484 11.7334 17.2656 11.2734 17.2656C10.8134 17.2656 10.3723 17.4484 10.047 17.7736C9.72178 18.0989 9.53905 18.54 9.53905 19ZM33.4301 12.7273C32.6135 10.787 31.4428 9.04541 29.9505 7.54951C28.4686 6.06227 26.7095 4.8801 24.7726 4.06992C22.7853 3.23525 20.6752 2.8125 18.5 2.8125H18.4277C16.2381 2.82334 14.1171 3.25693 12.1226 4.10967C10.2023 4.92815 8.45964 6.11243 6.99169 7.59648C5.51386 9.08877 4.354 10.8231 3.55185 12.7563C2.72079 14.758 2.30165 16.8862 2.31249 19.0759C2.32475 21.5852 2.91841 24.0575 4.04687 26.2988V31.791C4.04687 32.2318 4.22198 32.6546 4.53369 32.9663C4.84539 33.278 5.26816 33.4531 5.70898 33.4531H11.2048C13.4461 34.5816 15.9184 35.1752 18.4277 35.1875H18.5036C20.668 35.1875 22.7673 34.7684 24.7437 33.9481C26.6708 33.1476 28.4234 31.9792 29.9035 30.5083C31.3958 29.0305 32.5701 27.3033 33.3903 25.3774C34.2431 23.3829 34.6767 21.2619 34.6875 19.0723C34.6983 16.8718 34.272 14.7363 33.4301 12.7273ZM27.9704 28.5535C25.4375 31.0611 22.0771 32.4414 18.5 32.4414H18.4386C16.2598 32.4306 14.0954 31.8886 12.184 30.8696L11.8805 30.707H6.79296V25.6195L6.63036 25.316C5.61142 23.4046 5.06943 21.2402 5.05859 19.0614C5.04413 15.459 6.42079 12.077 8.94648 9.52959C11.4685 6.98223 14.8397 5.57305 18.4422 5.55859H18.5036C20.3102 5.55859 22.0627 5.90908 23.714 6.60283C25.3255 7.27852 26.7708 8.25049 28.0138 9.49346C29.2531 10.7328 30.2287 12.1817 30.9044 13.7933C31.6054 15.4626 31.9559 17.2331 31.9486 19.0614C31.9269 22.6603 30.5142 26.0314 27.9704 28.5535Z"
    fill="black"
  />
</svg>
