<svg
  xmlns="http://www.w3.org/2000/svg"
  width="23"
  height="22"
  viewBox="0 0 23 22"
  fill="none"
>
  <path
    d="M19.4182 12.958L19.3723 12.5024L19.3586 12.5033L19.343 12.5061L19.4182 12.958ZM19.4182 12.958L19.464 13.4145L19.4796 13.4127L19.4943 13.4099L19.4182 12.958ZM15.7148 17.9832L16.0054 17.6284L16.0008 17.6257L15.7148 17.9832ZM15.7148 17.9832L15.4243 18.3379L15.4288 18.3416L15.7148 17.9832ZM7.28517 17.9832L6.99458 17.6293L6.98817 17.6348L6.98083 17.6412L7.28517 17.9832ZM7.28517 17.9832L7.57575 18.3388L7.58308 18.3324L7.5895 18.3269L7.28517 17.9832ZM3.58092 9.042V8.58367H3.55892L3.536 8.5855L3.58092 9.042ZM3.58092 9.042V9.50033H3.60383L3.62675 9.49758L3.58092 9.042ZM13.9127 3.03508C13.8989 2.86888 13.8797 2.70317 13.8549 2.53825C13.8339 2.39232 13.79 2.25062 13.7248 2.11842L12.9098 2.53917C12.919 2.5575 12.9346 2.59417 12.9502 2.6895C12.9676 2.79033 12.9804 2.92142 13.0015 3.12583L13.9127 3.03508ZM14.0923 4.13783C14.0813 4.12408 14.0483 4.06817 14.0126 3.872C13.9699 3.59425 13.9378 3.31511 13.9145 3.03508L13.0015 3.12583C13.0382 3.49342 13.0684 3.79775 13.1106 4.03425C13.1518 4.26525 13.216 4.50083 13.3636 4.69425L14.0923 4.13783ZM14.5177 4.31383C14.4375 4.32461 14.356 4.31401 14.2813 4.2831C14.2066 4.25219 14.1414 4.20207 14.0923 4.13783L13.3627 4.69333C13.5099 4.88637 13.7056 5.03699 13.9298 5.12989C14.1541 5.22279 14.399 5.25466 14.6396 5.22225L14.5177 4.31383ZM15.4233 3.66025C15.1254 3.905 14.9219 4.07092 14.7615 4.18183C14.5974 4.2955 14.5342 4.31108 14.5177 4.31383L14.6396 5.22225C14.8798 5.19017 15.0915 5.06917 15.2849 4.93442C15.482 4.79692 15.7176 4.60442 16.0045 4.36975L15.4233 3.66025ZM16.2043 3.146C16.0577 3.19275 15.9339 3.267 15.8166 3.35042C15.7029 3.43108 15.5737 3.53742 15.4233 3.66025L16.0045 4.36975C16.1631 4.23958 16.2657 4.15617 16.3482 4.0975C16.3892 4.0645 16.435 4.03791 16.4839 4.01867L16.2043 3.146ZM17.1696 3.19367C16.8642 3.0615 16.5213 3.04457 16.2043 3.146L16.4839 4.01867C16.5893 3.98528 16.7033 3.99114 16.8048 4.03517L17.1696 3.19367ZM17.8956 3.784C17.7581 3.6465 17.6398 3.52733 17.5353 3.43567C17.4269 3.33625 17.3035 3.25457 17.1696 3.19367L16.8048 4.03517C16.824 4.04342 16.8588 4.06267 16.9322 4.12683C17.0083 4.19283 17.1018 4.28633 17.2475 4.43208L17.8956 3.784ZM18.7142 4.60258L17.8956 3.784L17.2475 4.43208L18.0661 5.25067L18.7142 4.60258ZM19.3045 5.32858C19.2433 5.19465 19.1613 5.07121 19.0616 4.96283C18.9699 4.85833 18.8508 4.74008 18.7142 4.60258L18.0661 5.25067C18.2118 5.39642 18.3044 5.48992 18.3722 5.566C18.4364 5.63933 18.4548 5.67417 18.463 5.69342L19.3045 5.32858ZM19.3522 6.29383C19.4536 5.97691 19.4367 5.63397 19.3045 5.32858L18.463 5.69342C18.5067 5.79498 18.5123 5.90893 18.4786 6.01425L19.3522 6.29383ZM18.8379 7.07483C18.9607 6.9245 19.0671 6.79525 19.1478 6.68158C19.2303 6.56425 19.3054 6.4405 19.3522 6.29383L18.4786 6.01425C18.4596 6.06316 18.4334 6.1089 18.4007 6.14992C18.3133 6.26717 18.2226 6.38181 18.1284 6.49367L18.8379 7.07483ZM18.1843 7.9805C18.1871 7.964 18.2027 7.90075 18.3163 7.73666C18.4273 7.57625 18.5932 7.37275 18.8379 7.07483L18.1284 6.49367C17.8938 6.78058 17.7003 7.01617 17.5638 7.21325C17.429 7.40575 17.308 7.61842 17.2759 7.85858L18.1843 7.9805ZM18.3603 8.40583C18.2961 8.35676 18.246 8.29156 18.2151 8.21686C18.1842 8.14216 18.1736 8.06062 18.1843 7.9805L17.2759 7.85858C17.2437 8.09902 17.2756 8.34371 17.3685 8.56782C17.4614 8.79192 17.6119 8.98746 17.8048 9.13458L18.3603 8.40583ZM19.4631 8.58458C19.079 8.54608 18.8187 8.52042 18.6262 8.48558C18.43 8.44983 18.3741 8.41683 18.3603 8.40583L17.8048 9.13458C17.9973 9.28125 18.2329 9.34542 18.4648 9.38758C18.7004 9.42975 19.0038 9.46091 19.3723 9.49758L19.4631 8.58458ZM20.3798 8.77342C20.2475 8.70816 20.1059 8.66423 19.9599 8.64325C19.8224 8.62033 19.6556 8.60383 19.4631 8.58458L19.3714 9.49666C19.5767 9.51775 19.7078 9.53058 19.8087 9.548C19.8605 9.55383 19.9112 9.56743 19.959 9.58833L20.3798 8.77342ZM21.0278 9.48933C20.9055 9.18019 20.6752 8.92585 20.3798 8.77342L19.959 9.58833C20.0576 9.63901 20.1344 9.72368 20.1753 9.82666L21.0278 9.48933ZM21.1241 10.4197C21.1241 10.2263 21.1241 10.0586 21.1149 9.91925C21.1087 9.77225 21.0793 9.62715 21.0278 9.48933L20.1753 9.82666C20.1827 9.84591 20.1937 9.88441 20.2001 9.98066C20.2072 10.1272 20.2097 10.274 20.2074 10.4207L21.1241 10.4197ZM21.1241 11.5784V10.4197H20.2074V11.5784H21.1241ZM21.0278 12.5079C21.0847 12.3649 21.1058 12.2219 21.1149 12.078C21.1241 11.9396 21.1241 11.7718 21.1241 11.5784H20.2074C20.2074 11.7837 20.2074 11.9157 20.2001 12.0175C20.1996 12.0698 20.1913 12.1217 20.1753 12.1715L21.0278 12.5079ZM20.3798 13.2247C20.6754 13.0721 20.9057 12.8174 21.0278 12.5079L20.1753 12.1715C20.1344 12.2745 20.0576 12.3592 19.959 12.4098L20.3798 13.2247ZM19.4631 13.4136C19.6556 13.3943 19.8233 13.3769 19.9599 13.354C20.102 13.3311 20.2423 13.2953 20.3788 13.2257L19.959 12.4098C19.9112 12.4308 19.8605 12.4444 19.8087 12.4502C19.7078 12.4676 19.5767 12.4804 19.3723 12.5015L19.4631 13.4136ZM18.3613 13.5923C18.375 13.5813 18.4309 13.5474 18.6271 13.5126C18.8196 13.4777 19.0799 13.4512 19.4631 13.4136L19.3723 12.5015C19.0047 12.5382 18.7004 12.5675 18.4639 12.6106C18.2329 12.6518 17.9983 12.716 17.8048 12.8627L18.3613 13.5923ZM18.1843 14.0177C18.1737 13.9375 18.1844 13.8559 18.2155 13.7812C18.2465 13.7065 18.2968 13.6413 18.3613 13.5923L17.8048 12.8627C17.6118 13.0099 17.4612 13.2056 17.3683 13.4298C17.2754 13.6541 17.2435 13.899 17.2759 14.1396L18.1843 14.0177ZM18.8379 14.9233C18.6565 14.7088 18.4826 14.488 18.3163 14.2615C18.2027 14.0983 18.1871 14.0342 18.1843 14.0177L17.2768 14.1405C17.3089 14.3807 17.4299 14.5915 17.5638 14.7849C17.7013 14.9811 17.8938 15.2176 18.1284 15.5036L18.8379 14.9233ZM19.3522 15.7043C19.3049 15.5648 19.2359 15.4337 19.1478 15.3157C19.0486 15.1817 18.9453 15.0508 18.8379 14.9233L18.1284 15.5036C18.2586 15.6631 18.342 15.7648 18.4007 15.8482C18.4333 15.889 18.4595 15.9344 18.4786 15.983L19.3522 15.7043ZM19.3045 16.6696C19.4367 16.3642 19.4536 16.0212 19.3522 15.7043L18.4786 15.983C18.5125 16.0886 18.507 16.2029 18.463 16.3047L19.3045 16.6696ZM18.7151 17.3947C18.8517 17.2581 18.9699 17.1398 19.0616 17.0353C19.1569 16.9262 19.2431 16.8117 19.3045 16.6696L18.463 16.3047C18.439 16.3513 18.4081 16.3939 18.3713 16.4312C18.2728 16.5394 18.171 16.6445 18.0661 16.7466L18.7151 17.3947ZM17.8956 18.2142L18.7151 17.3947L18.0661 16.7466L17.2475 17.5661L17.8956 18.2142ZM17.1696 18.8036C17.3108 18.7422 17.4263 18.6569 17.5353 18.5616C17.6398 18.4699 17.7581 18.3507 17.8956 18.2132L17.2475 17.5661C17.1018 17.7118 17.0083 17.8044 16.9322 17.8713C16.8946 17.9082 16.8516 17.9391 16.8048 17.963L17.1696 18.8036ZM16.2043 18.8522C16.5214 18.9533 16.8643 18.936 17.1696 18.8036L16.8048 17.963C16.7032 18.0067 16.5892 18.0123 16.4839 17.9786L16.2043 18.8522ZM15.4233 18.337C15.5737 18.4598 15.7029 18.5662 15.8166 18.6468C15.9339 18.7302 16.0577 18.8054 16.2043 18.8522L16.4839 17.9786C16.435 17.9596 16.3893 17.9334 16.3482 17.9007C16.231 17.813 16.1163 17.722 16.0045 17.6275L15.4233 18.337ZM14.5177 17.6843C14.5342 17.6862 14.5983 17.7027 14.7615 17.8163C14.9219 17.9272 15.1254 18.0932 15.4233 18.337L16.0045 17.6275C15.7176 17.3937 15.482 17.2003 15.2849 17.0628C15.0924 16.929 14.8798 16.808 14.6396 16.7759L14.5177 17.6843ZM14.0923 17.8603C14.1414 17.7961 14.2066 17.746 14.2813 17.7151C14.356 17.6842 14.4375 17.6736 14.5177 17.6843L14.6396 16.7759C14.3992 16.7436 14.1546 16.7754 13.9305 16.8681C13.7064 16.9608 13.5108 17.1112 13.3636 17.3039L14.0923 17.8603ZM13.9136 18.9631C13.9521 18.579 13.9778 18.3187 14.0126 18.1262C14.0483 17.93 14.0813 17.8741 14.0923 17.8603L13.3636 17.3039C13.2169 17.4964 13.1528 17.7329 13.1106 17.9639C13.0684 18.1995 13.0373 18.5029 13.0006 18.8714L13.9136 18.9631ZM13.7248 19.8797C13.7953 19.7422 13.8302 19.602 13.854 19.4599C13.8778 19.3224 13.8943 19.1556 13.9136 18.9631L13.0006 18.8714C12.9879 19.0176 12.9717 19.1635 12.9502 19.3087C12.9443 19.3605 12.9307 19.4112 12.9098 19.459L13.7248 19.8797ZM13.0088 20.5278C13.318 20.4055 13.5723 20.1752 13.7248 19.8797L12.9098 19.459C12.8592 19.5576 12.7745 19.6344 12.6715 19.6753L13.0088 20.5278ZM12.0784 20.6241C12.2718 20.6241 12.4396 20.6241 12.5789 20.6149C12.7219 20.6057 12.8658 20.5847 13.0088 20.5278L12.6715 19.6753C12.6217 19.6913 12.5698 19.6996 12.5175 19.7001C12.4167 19.7074 12.2838 19.7074 12.0775 19.7074L12.0784 20.6241ZM10.9198 20.6241H12.0784L12.0775 19.7074H10.9198V20.6241ZM9.98933 20.5278C10.1333 20.5847 10.2762 20.6057 10.4202 20.6149C10.5586 20.6241 10.7263 20.6241 10.9198 20.6241V19.7074C10.7144 19.7074 10.5824 19.7074 10.4807 19.7001C10.4284 19.6996 10.3765 19.6913 10.3267 19.6753L9.98933 20.5278ZM9.27342 19.8797C9.42585 20.1752 9.68019 20.4055 9.98933 20.5278L10.3267 19.6753C10.2237 19.6344 10.139 19.5576 10.0883 19.459L9.27342 19.8797ZM9.08458 18.9631C9.10383 19.1556 9.12125 19.3233 9.14325 19.4599C9.16708 19.602 9.20283 19.7422 9.27342 19.8797L10.0883 19.459C10.0674 19.4112 10.0538 19.3605 10.048 19.3087C10.0265 19.1638 10.0094 19.0183 9.99667 18.8723L9.08458 18.9631ZM8.90583 17.8603C8.91683 17.8741 8.94983 17.93 8.98558 18.1262C9.02042 18.3187 9.04608 18.5799 9.08458 18.9631L9.99667 18.8723C9.96 18.5047 9.92975 18.2004 9.88758 17.9639C9.84633 17.7329 9.78217 17.4973 9.63458 17.3039L8.90583 17.8603ZM8.4805 17.6843C8.56062 17.6736 8.64216 17.6842 8.71686 17.7151C8.79156 17.746 8.85676 17.7961 8.90583 17.8603L9.63458 17.3039C9.48746 17.111 9.29192 16.9614 9.06782 16.8685C8.84372 16.7756 8.59902 16.7437 8.35858 16.7759L8.4805 17.6843ZM7.57483 18.3379C7.87275 18.0932 8.07625 17.9272 8.23667 17.8163C8.40075 17.7027 8.464 17.6862 8.4805 17.6843L8.35858 16.7759C8.11842 16.808 7.90667 16.929 7.71325 17.0637C7.51617 17.2003 7.28058 17.3937 6.99367 17.6284L7.57483 18.3379ZM6.79383 18.8522C6.9405 18.8054 7.06425 18.7312 7.18158 18.6477C7.29525 18.5671 7.4245 18.4607 7.57483 18.3379L6.99367 17.6284C6.88181 17.7226 6.76717 17.8133 6.64992 17.9007C6.60892 17.9334 6.56317 17.9597 6.51425 17.9786L6.79383 18.8522ZM5.82858 18.8054C6.13397 18.9376 6.47692 18.9536 6.79383 18.8522L6.51425 17.9786C6.40893 18.0123 6.29498 18.0067 6.19342 17.963L5.82858 18.8054ZM5.10258 18.2142C5.24008 18.3517 5.35833 18.4708 5.46283 18.5625C5.571 18.6569 5.68742 18.744 5.82858 18.8054L6.19342 17.963C6.14653 17.9391 6.10357 17.9082 6.066 17.8713C5.9579 17.7727 5.85274 17.6709 5.75067 17.5661L5.10258 18.2142ZM4.284 17.3956L5.10258 18.2142L5.75067 17.5661L4.93208 16.7475L4.284 17.3956ZM3.69367 16.6696C3.75508 16.8107 3.84125 16.9262 3.93658 17.0353C4.02825 17.1398 4.14742 17.2581 4.284 17.3956L4.93208 16.7475C4.82693 16.6454 4.72483 16.5403 4.62592 16.4322C4.58909 16.3946 4.55818 16.3516 4.53425 16.3047L3.69367 16.6696ZM3.646 15.7043C3.54457 16.0212 3.5615 16.3642 3.69367 16.6696L4.53425 16.3047C4.49022 16.2033 4.48528 16.0893 4.51867 15.9839L3.646 15.7043ZM4.16025 14.9233C4.03742 15.0737 3.93108 15.2029 3.85042 15.3166C3.76235 15.4343 3.69337 15.5652 3.646 15.7043L4.51867 15.9839C4.53791 15.935 4.5645 15.8892 4.5975 15.8482C4.65617 15.7657 4.73958 15.6631 4.86975 15.5045L4.16025 14.9233ZM4.81383 14.0177C4.81108 14.0342 4.7955 14.0974 4.68183 14.2615C4.57 14.4219 4.405 14.6254 4.16025 14.9233L4.86975 15.5045C5.10442 15.2176 5.29783 14.982 5.43442 14.7849C5.56917 14.5924 5.69017 14.3797 5.72225 14.1396L4.81383 14.0177ZM4.63783 13.5923C4.70207 13.6414 4.75219 13.7066 4.7831 13.7813C4.81401 13.856 4.82461 13.9375 4.81383 14.0177L5.72225 14.1396C5.75449 13.8991 5.72254 13.6544 5.62965 13.4303C5.53675 13.2062 5.38622 13.0107 5.19333 12.8636L4.63783 13.5923ZM3.53508 13.4145C3.91917 13.4521 4.1795 13.4777 4.372 13.5126C4.56817 13.5483 4.62408 13.5813 4.63783 13.5923L5.19333 12.8627C5.00083 12.716 4.76525 12.6518 4.53333 12.6106C4.29775 12.5684 3.99433 12.5372 3.62583 12.5006L3.53508 13.4145ZM2.61842 13.2247C2.75592 13.2953 2.89617 13.3302 3.03825 13.354C3.17575 13.3778 3.34167 13.3952 3.53508 13.4145L3.62675 12.5015C3.48052 12.4888 3.3347 12.4717 3.1895 12.4502C3.13765 12.4443 3.08697 12.4307 3.03917 12.4098L2.61842 13.2247ZM1.97033 12.5079C2.09251 12.8174 2.32277 13.0721 2.61842 13.2247L3.03917 12.4098C2.94061 12.3592 2.86376 12.2745 2.82283 12.1715L1.97033 12.5079ZM1.875 11.5802C1.875 11.7737 1.875 11.9414 1.88417 12.0807C1.8901 12.2275 1.9195 12.3723 1.97125 12.5097L2.82375 12.1733C2.80781 12.1235 2.79947 12.0716 2.799 12.0193C2.79219 11.8728 2.78974 11.726 2.79167 11.5793L1.875 11.5802ZM1.875 10.4216V11.5802H2.79167V10.4216H1.875ZM1.97125 9.49117C1.9197 9.62929 1.89031 9.7747 1.88417 9.922C1.875 10.0604 1.875 10.2282 1.875 10.4216H2.79167C2.79167 10.2162 2.79167 10.0842 2.799 9.9825C2.79944 9.93021 2.80779 9.87829 2.82375 9.8285L1.97125 9.49117ZM2.61933 8.77525C2.32385 8.92768 2.09362 9.18202 1.97125 9.49117L2.82375 9.8285C2.86468 9.72551 2.94153 9.64084 3.04008 9.59017L2.61933 8.77525ZM3.536 8.5855C3.3435 8.60475 3.17575 8.62308 3.03917 8.64508C2.89323 8.66606 2.75154 8.70999 2.61933 8.77525L3.04008 9.59017C3.05842 9.581 3.09508 9.56542 3.19042 9.54983C3.29125 9.53242 3.42233 9.51958 3.62675 9.4985L3.536 8.5855ZM4.63875 8.40767C4.625 8.41867 4.56908 8.45166 4.37292 8.48742C4.18042 8.52225 3.92008 8.547 3.536 8.5855L3.62675 9.4985C3.99433 9.46183 4.29958 9.43158 4.53517 9.38941C4.76708 9.34817 5.00267 9.284 5.19517 9.13642L4.63875 8.40767ZM4.81475 7.98233C4.82553 8.06245 4.81493 8.144 4.78402 8.2187C4.75311 8.29339 4.70299 8.35859 4.63875 8.40767L5.19517 9.13642C5.38789 8.98919 5.53824 8.7936 5.63097 8.56951C5.7237 8.34541 5.75551 8.09986 5.72317 7.8595L4.81475 7.98233ZM4.16117 7.07575C4.40592 7.37458 4.57183 7.57808 4.68367 7.7385C4.79733 7.90258 4.812 7.96583 4.81475 7.98233L5.72317 7.8595C5.69108 7.61933 5.57008 7.4085 5.43533 7.21508C5.29875 7.018 5.10533 6.78242 4.87067 6.4955L4.16117 7.07575ZM3.64692 6.29475C3.69275 6.44142 3.76792 6.56608 3.85133 6.68342C3.932 6.79617 4.03833 6.92633 4.16117 7.07575L4.87067 6.4955C4.77652 6.38334 4.68573 6.2684 4.59842 6.15083C4.56549 6.11015 4.53891 6.06472 4.51958 6.01608L3.64692 6.29475ZM3.69458 5.33042C3.56265 5.63553 3.54572 5.97811 3.64692 6.29475L4.51958 6.01608C4.4862 5.91065 4.49206 5.7967 4.53608 5.69525L3.69458 5.33042ZM4.28492 4.60442C4.14742 4.741 4.02825 4.85925 3.93658 4.96467C3.83718 5.07309 3.7555 5.19653 3.69458 5.33042L4.53608 5.69525C4.56008 5.6487 4.59098 5.60513 4.62775 5.56783C4.72595 5.45934 4.82776 5.35417 4.933 5.2525L4.28492 4.60442ZM5.1035 3.78492L4.28492 4.60442L4.933 5.2525L5.75158 4.433L5.1035 3.78492ZM5.8295 3.1955C5.69565 3.25649 5.57222 3.33815 5.46375 3.4375C5.35925 3.52917 5.24008 3.64742 5.1035 3.78492L5.75158 4.433C5.89733 4.28817 5.99083 4.19467 6.06692 4.12775C6.14025 4.06358 6.17508 4.04525 6.19433 4.03608L5.8295 3.1955ZM6.79475 3.14692C6.47772 3.04577 6.13477 3.06304 5.8295 3.1955L6.19433 4.03608C6.29578 3.99205 6.40973 3.98711 6.51517 4.0205L6.79475 3.14692ZM7.57575 3.66208C7.42542 3.53925 7.29617 3.43292 7.1825 3.35225C7.06486 3.26382 6.934 3.19452 6.79475 3.14692L6.51517 4.0205C6.56407 4.03946 6.60981 4.06574 6.65083 4.09842C6.73333 4.158 6.836 4.24142 6.9955 4.37158L7.57575 3.66208ZM8.48142 4.31567C8.46492 4.31292 8.40167 4.29733 8.23758 4.18367C8.01103 4.01716 7.79029 3.84381 7.57575 3.66208L6.9955 4.37158C7.2815 4.60625 7.518 4.79967 7.71417 4.93625C7.90667 5.07008 8.11933 5.19108 8.3595 5.22408L8.48142 4.31567ZM8.90675 4.13875C8.85778 4.20316 8.79263 4.25345 8.71792 4.28453C8.64322 4.3156 8.56162 4.32634 8.48142 4.31567L8.3595 5.22408C8.6 5.25659 8.84483 5.22395 9.0691 5.13121C9.29337 5.03848 9.48911 4.88803 9.63642 4.69517L8.90675 4.13875ZM9.0855 3.03692C9.047 3.42008 9.02133 3.68133 8.9865 3.87292C8.95075 4.06908 8.91775 4.125 8.90675 4.13875L9.63642 4.69517C9.78308 4.50267 9.84725 4.26708 9.8885 4.03517C9.93067 3.79958 9.96183 3.49617 9.9985 3.12767L9.0855 3.03692ZM9.27433 2.12025C9.20375 2.25775 9.168 2.398 9.14417 2.54008C9.12125 2.67758 9.10475 2.8435 9.0855 3.03692L9.99758 3.12858C10.0103 2.98235 10.0274 2.83653 10.0489 2.69133C10.0547 2.63947 10.0683 2.58879 10.0893 2.541L9.27433 2.12025ZM9.99117 1.47217C9.68153 1.59457 9.42682 1.82426 9.27433 2.12025L10.0893 2.541C10.1399 2.44245 10.2246 2.36559 10.3276 2.32467L9.99117 1.47217ZM10.9207 1.37592C10.7273 1.37592 10.5595 1.37592 10.4202 1.38508C10.2734 1.39101 10.1286 1.42041 9.99117 1.47217L10.3276 2.32467C10.3774 2.3087 10.4293 2.30036 10.4816 2.29992C10.5824 2.29258 10.7153 2.29258 10.9216 2.29258L10.9207 1.37592ZM12.0793 1.37592H10.9207V2.29258H12.0793V1.37592ZM13.0098 1.47217C12.8716 1.4206 12.7262 1.39121 12.5789 1.38508C12.4405 1.37592 12.2727 1.37592 12.0793 1.37592V2.29258C12.2847 2.29258 12.4167 2.29258 12.5184 2.29992C12.5707 2.30066 12.6226 2.30899 12.6724 2.32467L13.0098 1.47217ZM13.7257 2.12025C13.573 1.8246 13.3183 1.59435 13.0088 1.47217L12.6724 2.32467C12.7754 2.36559 12.8601 2.44245 12.9107 2.541L13.7257 2.12025ZM14.7083 11C14.7083 11.8509 14.3703 12.667 13.7686 13.2686C13.167 13.8703 12.3509 14.2083 11.5 14.2083V15.125C12.594 15.125 13.6432 14.6904 14.4168 13.9168C15.1904 13.1432 15.625 12.094 15.625 11H14.7083ZM11.5 7.79167C12.3509 7.79167 13.167 8.12968 13.7686 8.73136C14.3703 9.33304 14.7083 10.1491 14.7083 11H15.625C15.625 9.90598 15.1904 8.85677 14.4168 8.08318C13.6432 7.3096 12.594 6.875 11.5 6.875V7.79167ZM8.29167 11C8.29167 10.1491 8.62969 9.33304 9.23137 8.73136C9.83305 8.12968 10.6491 7.79167 11.5 7.79167V6.875C10.406 6.875 9.35677 7.3096 8.58319 8.08318C7.8096 8.85677 7.375 9.90598 7.375 11H8.29167ZM11.5 14.2083C10.6491 14.2083 9.83305 13.8703 9.23137 13.2686C8.62969 12.667 8.29167 11.8509 8.29167 11H7.375C7.375 12.094 7.8096 13.1432 8.58319 13.9168C9.35677 14.6904 10.406 15.125 11.5 15.125V14.2083Z"
    fill="black"
  />
</svg>
